SignikaNegative-Bold.ufo
<glyph name="exclam" format="2">
  <advance width="611"/>
  <unicode hex="0021"/>
  <outline>
    <contour>
      <point x="184" y="414" type="curve"/>
      <point x="222" y="403"/>
      <point x="271" y="401"/>
      <point x="298" y="401" type="curve" smooth="yes"/>
      <point x="328" y="401"/>
      <point x="370" y="403"/>
      <point x="409" y="414" type="curve"/>
      <point x="428" y="672"/>
      <point x="464" y="929"/>
      <point x="464" y="1187" type="curve" smooth="yes"/>
      <point x="464" y="1364" type="line"/>
      <point x="381" y="1388"/>
      <point x="214" y="1388"/>
      <point x="132" y="1364" type="curve"/>
      <point x="132" y="1190" type="line" smooth="yes"/>
      <point x="132" y="929"/>
      <point x="162" y="672"/>
    </contour>
    <contour>
      <point x="298" y="270" type="curve" smooth="yes"/>
      <point x="245" y="270"/>
      <point x="191" y="258"/>
      <point x="154" y="238" type="curve"/>
      <point x="141" y="214"/>
      <point x="133" y="158"/>
      <point x="133" y="123" type="curve" smooth="yes"/>
      <point x="133" y="87"/>
      <point x="141" y="33"/>
      <point x="154" y="9" type="curve"/>
      <point x="191" y="-11"/>
      <point x="245" y="-22"/>
      <point x="298" y="-22" type="curve" smooth="yes"/>
      <point x="350" y="-22"/>
      <point x="405" y="-11"/>
      <point x="440" y="9" type="curve"/>
      <point x="455" y="33"/>
      <point x="462" y="87"/>
      <point x="462" y="123" type="curve" smooth="yes"/>
      <point x="462" y="158"/>
      <point x="455" y="214"/>
      <point x="440" y="238" type="curve"/>
      <point x="405" y="258"/>
      <point x="350" y="270"/>
    </contour>
  </outline>
</glyph>
<glyph name="numbersign" format="2">
  <advance width="1415"/>
  <unicode hex="0023"/>
  <outline>
    <contour>
      <point x="191" y="25" type="curve"/>
      <point x="477" y="1299" type="line"/>
      <point x="509" y="1313"/>
      <point x="560" y="1321"/>
      <point x="609" y="1321" type="curve" smooth="yes"/>
      <point x="659" y="1321"/>
      <point x="708" y="1313"/>
      <point x="737" y="1299" type="curve"/>
      <point x="451" y="25" type="line"/>
      <point x="419" y="10"/>
      <point x="369" y="3"/>
      <point x="320" y="3" type="curve" smooth="yes"/>
      <point x="270" y="3"/>
      <point x="220" y="10"/>
    </contour>
    <contour>
      <point x="691" y="25" type="curve"/>
      <point x="977" y="1299" type="line"/>
      <point x="1009" y="1313"/>
      <point x="1060" y="1321"/>
      <point x="1109" y="1321" type="curve" smooth="yes"/>
      <point x="1159" y="1321"/>
      <point x="1208" y="1313"/>
      <point x="1237" y="1299" type="curve"/>
      <point x="951" y="25" type="line"/>
      <point x="919" y="10"/>
      <point x="869" y="3"/>
      <point x="819" y="3" type="curve" smooth="yes"/>
      <point x="770" y="3"/>
      <point x="720" y="10"/>
    </contour>
    <contour>
      <point x="1263" y="271" type="curve"/>
      <point x="55" y="271" type="line"/>
      <point x="43" y="304"/>
      <point x="38" y="347"/>
      <point x="38" y="388" type="curve" smooth="yes"/>
      <point x="38" y="431"/>
      <point x="43" y="472"/>
      <point x="55" y="506" type="curve"/>
      <point x="1263" y="506" type="line"/>
      <point x="1275" y="472"/>
      <point x="1281" y="431"/>
      <point x="1281" y="388" type="curve" smooth="yes"/>
      <point x="1281" y="347"/>
      <point x="1275" y="304"/>
    </contour>
    <contour>
      <point x="1368" y="818" type="curve"/>
      <point x="160" y="818" type="line"/>
      <point x="148" y="852"/>
      <point x="143" y="894"/>
      <point x="143" y="936" type="curve" smooth="yes"/>
      <point x="143" y="978"/>
      <point x="148" y="1019"/>
      <point x="160" y="1053" type="curve"/>
      <point x="1368" y="1053" type="line"/>
      <point x="1380" y="1019"/>
      <point x="1386" y="978"/>
      <point x="1386" y="936" type="curve" smooth="yes"/>
      <point x="1386" y="894"/>
      <point x="1380" y="852"/>
    </contour>
  </outline>
</glyph>
<glyph name="dollar" format="2">
  <advance width="1080"/>
  <unicode hex="0024"/>
  <outline>
    <contour>
      <point x="508" y="43" type="curve" smooth="yes"/>
      <point x="765" y="43"/>
      <point x="943" y="179"/>
      <point x="943" y="389" type="curve" smooth="yes"/>
      <point x="943" y="566"/>
      <point x="837" y="680"/>
      <point x="681" y="739" type="curve" smooth="yes"/>
      <point x="515" y="802" type="line" smooth="yes"/>
      <point x="446" y="828"/>
      <point x="408" y="852"/>
      <point x="408" y="906" type="curve" smooth="yes"/>
      <point x="408" y="957"/>
      <point x="450" y="990"/>
      <point x="526" y="990" type="curve" smooth="yes"/>
      <point x="607" y="990"/>
      <point x="707" y="962"/>
      <point x="809" y="913" type="curve"/>
      <point x="868" y="963"/>
      <point x="910" y="1055"/>
      <point x="910" y="1137" type="curve"/>
      <point x="802" y="1191"/>
      <point x="670" y="1230"/>
      <point x="492" y="1230" type="curve" smooth="yes"/>
      <point x="275" y="1230"/>
      <point x="99" y="1090"/>
      <point x="99" y="874" type="curve" smooth="yes"/>
      <point x="99" y="711"/>
      <point x="215" y="615"/>
      <point x="358" y="562" type="curve" smooth="yes"/>
      <point x="530" y="498" type="line" smooth="yes"/>
      <point x="610" y="468"/>
      <point x="633" y="422"/>
      <point x="632" y="380" type="curve" smooth="yes"/>
      <point x="632" y="318"/>
      <point x="581" y="281"/>
      <point x="500" y="282" type="curve" smooth="yes"/>
      <point x="402" y="283"/>
      <point x="274" y="331"/>
      <point x="179" y="390" type="curve"/>
      <point x="121" y="354"/>
      <point x="72" y="242"/>
      <point x="70" y="167" type="curve"/>
      <point x="150" y="112"/>
      <point x="333" y="43"/>
    </contour>
    <contour>
      <point x="496" y="-127" type="curve" smooth="yes"/>
      <point x="537" y="-127"/>
      <point x="576" y="-124"/>
      <point x="603" y="-116" type="curve"/>
      <point x="603" y="142" type="line"/>
      <point x="387" y="142" type="line"/>
      <point x="387" y="-116" type="line"/>
      <point x="415" y="-124"/>
      <point x="454" y="-127"/>
    </contour>
    <contour>
      <point x="407" y="1129" type="line"/>
      <point x="622" y="1129" type="line"/>
      <point x="622" y="1388" type="line"/>
      <point x="594" y="1396"/>
      <point x="552" y="1399"/>
      <point x="514" y="1399" type="curve" smooth="yes"/>
      <point x="477" y="1399"/>
      <point x="435" y="1396"/>
      <point x="407" y="1388" type="curve"/>
    </contour>
  </outline>
</glyph>
<glyph name="percent" format="2">
  <advance width="1958"/>
  <unicode hex="0025"/>
  <outline>
    <contour>
      <point x="1868" y="406" type="curve" smooth="yes"/>
      <point x="1868" y="661"/>
      <point x="1773" y="835"/>
      <point x="1527" y="835" type="curve" smooth="yes"/>
      <point x="1280" y="835"/>
      <point x="1188" y="663"/>
      <point x="1188" y="406" type="curve" smooth="yes"/>
      <point x="1188" y="150"/>
      <point x="1276" y="-26"/>
      <point x="1527" y="-26" type="curve" smooth="yes"/>
      <point x="1774" y="-26"/>
      <point x="1868" y="146"/>
    </contour>
    <contour>
      <point x="1429" y="406" type="curve" smooth="yes"/>
      <point x="1429" y="542"/>
      <point x="1439" y="652"/>
      <point x="1528" y="652" type="curve" smooth="yes"/>
      <point x="1616" y="652"/>
      <point x="1626" y="542"/>
      <point x="1626" y="406" type="curve" smooth="yes"/>
      <point x="1626" y="269"/>
      <point x="1616" y="157"/>
      <point x="1528" y="157" type="curve" smooth="yes"/>
      <point x="1439" y="157"/>
      <point x="1429" y="269"/>
    </contour>
    <contour>
      <point x="770" y="865" type="curve" smooth="yes"/>
      <point x="770" y="1121"/>
      <point x="675" y="1295"/>
      <point x="430" y="1295" type="curve" smooth="yes"/>
      <point x="183" y="1295"/>
      <point x="90" y="1123"/>
      <point x="90" y="865" type="curve" smooth="yes"/>
      <point x="90" y="610"/>
      <point x="178" y="434"/>
      <point x="430" y="434" type="curve" smooth="yes"/>
      <point x="677" y="434"/>
      <point x="770" y="606"/>
    </contour>
    <contour>
      <point x="331" y="865" type="curve" smooth="yes"/>
      <point x="331" y="1002"/>
      <point x="342" y="1112"/>
      <point x="430" y="1112" type="curve" smooth="yes"/>
      <point x="519" y="1112"/>
      <point x="529" y="1002"/>
      <point x="529" y="865" type="curve" smooth="yes"/>
      <point x="529" y="729"/>
      <point x="519" y="617"/>
      <point x="430" y="617" type="curve" smooth="yes"/>
      <point x="342" y="617"/>
      <point x="331" y="729"/>
    </contour>
    <component base="fraction" xOffset="728"/>
  </outline>
</glyph>
<glyph name="ampersand" format="2">
  <advance width="1303"/>
  <unicode hex="0026"/>
  <outline>
    <contour>
      <point x="1044" y="844" type="curve" smooth="yes"/>
      <point x="659" y="844" type="line" smooth="yes"/>
      <point x="519" y="844"/>
      <point x="454" y="897"/>
      <point x="454" y="1007" type="curve" smooth="yes"/>
      <point x="454" y="1094"/>
      <point x="510" y="1160"/>
      <point x="625" y="1160" type="curve" smooth="yes"/>
      <point x="725" y="1160"/>
      <point x="824" y="1134"/>
      <point x="914" y="1105" type="curve" smooth="yes"/>
      <point x="965" y="1160"/>
      <point x="994" y="1254"/>
      <point x="991" y="1329" type="curve"/>
      <point x="884" y="1366"/>
      <point x="729" y="1395"/>
      <point x="575" y="1395" type="curve" smooth="yes"/>
      <point x="309" y="1395"/>
      <point x="141" y="1246"/>
      <point x="141" y="1031" type="curve" smooth="yes"/>
      <point x="141" y="854"/>
      <point x="266" y="717"/>
      <point x="430" y="713" type="curve"/>
      <point x="430" y="744" type="line"/>
      <point x="260" y="744"/>
      <point x="82" y="589"/>
      <point x="82" y="358" type="curve" smooth="yes"/>
      <point x="82" y="148"/>
      <point x="217" y="-29"/>
      <point x="472" y="-29" type="curve" smooth="yes"/>
      <point x="594" y="-29"/>
      <point x="707" y="16"/>
      <point x="784" y="83" type="curve"/>
      <point x="805" y="-3" type="line"/>
      <point x="838" y="-12"/>
      <point x="890" y="-18"/>
      <point x="940" y="-18" type="curve" smooth="yes"/>
      <point x="993" y="-18"/>
      <point x="1042" y="-12"/>
      <point x="1077" y="0" type="curve"/>
      <point x="1069" y="95"/>
      <point x="1064" y="228"/>
      <point x="1064" y="317" type="curve" smooth="yes"/>
      <point x="1064" y="469" type="line" smooth="yes"/>
      <point x="1064" y="537"/>
      <point x="1062" y="642"/>
      <point x="1055" y="731" type="curve"/>
      <point x="779" y="731" type="line"/>
      <point x="772" y="642"/>
      <point x="770" y="537"/>
      <point x="770" y="469" type="curve" smooth="yes"/>
      <point x="770" y="281" type="line"/>
      <point x="726" y="244"/>
      <point x="652" y="203"/>
      <point x="556" y="203" type="curve" smooth="yes"/>
      <point x="466" y="203"/>
      <point x="394" y="259"/>
      <point x="394" y="385" type="curve" smooth="yes"/>
      <point x="394" y="516"/>
      <point x="476" y="592"/>
      <point x="636" y="592" type="curve" smooth="yes"/>
      <point x="1109" y="592" type="line" smooth="yes"/>
      <point x="1224" y="592"/>
      <point x="1292" y="639"/>
      <point x="1292" y="743" type="curve" smooth="yes"/>
      <point x="1292" y="797"/>
      <point x="1278" y="852"/>
      <point x="1253" y="882" type="curve"/>
      <point x="1197" y="857"/>
      <point x="1120" y="844"/>
    </contour>
  </outline>
</glyph>
<glyph name="quotesingle" format="2">
  <advance width="475"/>
  <unicode hex="0027"/>
  <outline>
    <contour>
      <point x="85" y="1432" type="curve" smooth="yes"/>
      <point x="85" y="1390"/>
      <point x="121" y="1177"/>
      <point x="156" y="981" type="curve"/>
      <point x="189" y="961"/>
      <point x="267" y="961"/>
      <point x="300" y="981" type="curve"/>
      <point x="335" y="1177"/>
      <point x="371" y="1390"/>
      <point x="371" y="1432" type="curve" smooth="yes"/>
      <point x="371" y="1473"/>
      <point x="365" y="1512"/>
      <point x="357" y="1549" type="curve"/>
      <point x="320" y="1571"/>
      <point x="277" y="1582"/>
      <point x="228" y="1582" type="curve" smooth="yes"/>
      <point x="178" y="1582"/>
      <point x="136" y="1571"/>
      <point x="98" y="1549" type="curve"/>
      <point x="90" y="1512"/>
      <point x="85" y="1473"/>
    </contour>
  </outline>
</glyph>
<glyph name="parenleft" format="2">
  <advance width="738"/>
  <unicode hex="0028"/>
  <outline>
    <contour>
      <point x="429" y="545" type="curve" smooth="yes"/>
      <point x="429" y="837"/>
      <point x="516" y="1170"/>
      <point x="700" y="1426" type="curve"/>
      <point x="663" y="1506"/>
      <point x="596" y="1559"/>
      <point x="528" y="1582" type="curve"/>
      <point x="255" y="1323"/>
      <point x="118" y="900"/>
      <point x="118" y="545" type="curve" smooth="yes"/>
      <point x="118" y="191"/>
      <point x="255" y="-233"/>
      <point x="528" y="-492" type="curve"/>
      <point x="596" y="-468"/>
      <point x="663" y="-415"/>
      <point x="700" y="-336" type="curve"/>
      <point x="516" y="-79"/>
      <point x="429" y="253"/>
    </contour>
  </outline>
</glyph>
<glyph name="parenright" format="2">
  <advance width="738"/>
  <unicode hex="0029"/>
  <outline>
    <contour>
      <point x="309" y="545" type="curve" smooth="yes"/>
      <point x="309" y="837"/>
      <point x="222" y="1170"/>
      <point x="38" y="1426" type="curve"/>
      <point x="75" y="1506"/>
      <point x="142" y="1559"/>
      <point x="210" y="1582" type="curve"/>
      <point x="483" y="1323"/>
      <point x="620" y="900"/>
      <point x="620" y="545" type="curve" smooth="yes"/>
      <point x="620" y="191"/>
      <point x="483" y="-233"/>
      <point x="210" y="-492" type="curve"/>
      <point x="142" y="-468"/>
      <point x="75" y="-415"/>
      <point x="38" y="-336" type="curve"/>
      <point x="222" y="-79"/>
      <point x="309" y="253"/>
    </contour>
  </outline>
</glyph>
<glyph name="asterisk" format="2">
  <advance width="1037"/>
  <unicode hex="002A"/>
  <outline>
    <contour>
      <point x="397" y="1460" type="curve"/>
      <point x="404" y="1333" type="line" smooth="yes"/>
      <point x="409" y="1243"/>
      <point x="446" y="1144"/>
      <point x="472" y="1055" type="curve"/>
      <point x="484" y="1041"/>
      <point x="501" y="1033"/>
      <point x="518" y="1033" type="curve" smooth="yes"/>
      <point x="534" y="1033"/>
      <point x="551" y="1041"/>
      <point x="563" y="1055" type="curve"/>
      <point x="589" y="1144"/>
      <point x="627" y="1243"/>
      <point x="631" y="1333" type="curve" smooth="yes"/>
      <point x="638" y="1460" type="line"/>
      <point x="582" y="1483"/>
      <point x="452" y="1483"/>
    </contour>
    <contour>
      <point x="75" y="1050" type="curve"/>
      <point x="197" y="1018" type="line" smooth="yes"/>
      <point x="284" y="995"/>
      <point x="389" y="998"/>
      <point x="482" y="997" type="curve"/>
      <point x="501" y="1003"/>
      <point x="512" y="1016"/>
      <point x="518" y="1033" type="curve" smooth="yes"/>
      <point x="523" y="1050"/>
      <point x="521" y="1067"/>
      <point x="511" y="1083" type="curve"/>
      <point x="435" y="1136"/>
      <point x="351" y="1203"/>
      <point x="267" y="1235" type="curve" smooth="yes"/>
      <point x="149" y="1280" type="line"/>
      <point x="109" y="1233"/>
      <point x="69" y="1110"/>
    </contour>
    <contour>
      <point x="364" y="618" type="curve"/>
      <point x="432" y="725" type="line" smooth="yes"/>
      <point x="482" y="800"/>
      <point x="511" y="900"/>
      <point x="542" y="988" type="curve"/>
      <point x="540" y="1006"/>
      <point x="532" y="1022"/>
      <point x="518" y="1033" type="curve" smooth="yes"/>
      <point x="503" y="1044"/>
      <point x="485" y="1046"/>
      <point x="467" y="1042" type="curve"/>
      <point x="395" y="986"/>
      <point x="305" y="928"/>
      <point x="249" y="857" type="curve" smooth="yes"/>
      <point x="169" y="759" type="line"/>
      <point x="201" y="706"/>
      <point x="306" y="631"/>
    </contour>
    <contour>
      <point x="864" y="758" type="curve"/>
      <point x="785" y="855" type="line" smooth="yes"/>
      <point x="728" y="926"/>
      <point x="643" y="986"/>
      <point x="568" y="1042" type="curve"/>
      <point x="550" y="1046"/>
      <point x="532" y="1044"/>
      <point x="518" y="1033" type="curve" smooth="yes"/>
      <point x="503" y="1022"/>
      <point x="495" y="1006"/>
      <point x="493" y="988" type="curve"/>
      <point x="524" y="901"/>
      <point x="552" y="799"/>
      <point x="602" y="723" type="curve" smooth="yes"/>
      <point x="671" y="616" type="line"/>
      <point x="732" y="631"/>
      <point x="834" y="708"/>
    </contour>
    <contour>
      <point x="886" y="1278" type="curve"/>
      <point x="769" y="1231" type="line" smooth="yes"/>
      <point x="684" y="1199"/>
      <point x="601" y="1138"/>
      <point x="524" y="1083" type="curve"/>
      <point x="516" y="1067"/>
      <point x="512" y="1050"/>
      <point x="518" y="1033" type="curve" smooth="yes"/>
      <point x="523" y="1016"/>
      <point x="536" y="1003"/>
      <point x="553" y="997" type="curve"/>
      <point x="644" y="999"/>
      <point x="752" y="993"/>
      <point x="838" y="1016" type="curve" smooth="yes"/>
      <point x="962" y="1050" type="line"/>
      <point x="966" y="1112"/>
      <point x="924" y="1233"/>
    </contour>
  </outline>
</glyph>
<glyph name="plus" format="2">
  <advance width="1080"/>
  <unicode hex="002B"/>
  <outline>
    <contour>
      <point x="116" y="757" type="curve"/>
      <point x="284" y="757" type="line" smooth="yes"/>
      <point x="334" y="757"/>
      <point x="374" y="755"/>
      <point x="423" y="755" type="curve" smooth="yes"/>
      <point x="657" y="755" type="line" smooth="yes"/>
      <point x="706" y="755"/>
      <point x="746" y="757"/>
      <point x="796" y="757" type="curve" smooth="yes"/>
      <point x="964" y="757" type="line"/>
      <point x="973" y="713"/>
      <point x="977" y="680"/>
      <point x="977" y="637" type="curve" smooth="yes"/>
      <point x="977" y="594"/>
      <point x="973" y="555"/>
      <point x="964" y="517" type="curve"/>
      <point x="796" y="517" type="line" smooth="yes"/>
      <point x="746" y="517"/>
      <point x="706" y="519"/>
      <point x="657" y="519" type="curve" smooth="yes"/>
      <point x="423" y="519" type="line" smooth="yes"/>
      <point x="374" y="519"/>
      <point x="334" y="517"/>
      <point x="284" y="517" type="curve" smooth="yes"/>
      <point x="116" y="517" type="line"/>
      <point x="107" y="553"/>
      <point x="103" y="594"/>
      <point x="103" y="637" type="curve" smooth="yes"/>
      <point x="103" y="680"/>
      <point x="107" y="718"/>
    </contour>
    <contour>
      <point x="413" y="888" type="curve" smooth="yes"/>
      <point x="413" y="1067" type="line"/>
      <point x="456" y="1076"/>
      <point x="497" y="1078"/>
      <point x="540" y="1078" type="curve" smooth="yes"/>
      <point x="583" y="1078"/>
      <point x="624" y="1076"/>
      <point x="667" y="1067" type="curve"/>
      <point x="667" y="888" type="line" smooth="yes"/>
      <point x="667" y="837"/>
      <point x="665" y="797"/>
      <point x="665" y="748" type="curve" smooth="yes"/>
      <point x="665" y="527" type="line" smooth="yes"/>
      <point x="665" y="478"/>
      <point x="667" y="440"/>
      <point x="667" y="390" type="curve" smooth="yes"/>
      <point x="667" y="208" type="line"/>
      <point x="624" y="199"/>
      <point x="586" y="197"/>
      <point x="543" y="197" type="curve" smooth="yes"/>
      <point x="500" y="197"/>
      <point x="456" y="199"/>
      <point x="413" y="208" type="curve"/>
      <point x="413" y="390" type="line" smooth="yes"/>
      <point x="413" y="440"/>
      <point x="415" y="478"/>
      <point x="415" y="527" type="curve" smooth="yes"/>
      <point x="415" y="748" type="line" smooth="yes"/>
      <point x="415" y="797"/>
      <point x="413" y="837"/>
    </contour>
  </outline>
</glyph>
<glyph name="comma" format="2">
  <advance width="583"/>
  <unicode hex="002C"/>
  <outline>
    <contour>
      <point x="442" y="249" type="curve"/>
      <point x="409" y="269"/>
      <point x="344" y="284"/>
      <point x="294" y="284" type="curve" smooth="yes"/>
      <point x="243" y="284"/>
      <point x="179" y="269"/>
      <point x="145" y="249" type="curve"/>
      <point x="131" y="225"/>
      <point x="122" y="167"/>
      <point x="122" y="129" type="curve" smooth="yes"/>
      <point x="122" y="90"/>
      <point x="131" y="39"/>
      <point x="145" y="15" type="curve"/>
      <point x="164" y="-1"/>
      <point x="199" y="-11"/>
      <point x="231" y="-16" type="curve"/>
      <point x="217" y="-109"/>
      <point x="140" y="-183"/>
      <point x="47" y="-217" type="curve"/>
      <point x="41" y="-270"/>
      <point x="67" y="-330"/>
      <point x="119" y="-355" type="curve"/>
      <point x="350" y="-283"/>
      <point x="467" y="-92"/>
      <point x="467" y="94" type="curve" smooth="yes"/>
      <point x="467" y="150"/>
      <point x="461" y="198"/>
    </contour>
  </outline>
</glyph>
<glyph name="hyphen" format="2">
  <advance width="745"/>
  <unicode hex="002D"/>
  <outline>
    <contour>
      <point x="96" y="418" type="curve"/>
      <point x="649" y="418" type="line"/>
      <point x="660" y="458"/>
      <point x="662" y="510"/>
      <point x="662" y="538" type="curve" smooth="yes"/>
      <point x="662" y="566"/>
      <point x="660" y="618"/>
      <point x="649" y="658" type="curve"/>
      <point x="96" y="658" type="line"/>
      <point x="85" y="618"/>
      <point x="83" y="566"/>
      <point x="83" y="538" type="curve" smooth="yes"/>
      <point x="83" y="510"/>
      <point x="85" y="458"/>
    </contour>
  </outline>
</glyph>
<glyph name="period" format="2">
  <advance width="567"/>
  <unicode hex="002E"/>
  <outline>
    <contour>
      <point x="108" y="132" type="curve" smooth="yes"/>
      <point x="108" y="108"/>
      <point x="114" y="49"/>
      <point x="131" y="14" type="curve"/>
      <point x="169" y="-9"/>
      <point x="232" y="-21"/>
      <point x="283" y="-21" type="curve" smooth="yes"/>
      <point x="334" y="-21"/>
      <point x="398" y="-9"/>
      <point x="436" y="14" type="curve"/>
      <point x="452" y="49"/>
      <point x="458" y="108"/>
      <point x="458" y="132" type="curve" smooth="yes"/>
      <point x="458" y="156"/>
      <point x="452" y="216"/>
      <point x="436" y="250" type="curve"/>
      <point x="398" y="272"/>
      <point x="334" y="286"/>
      <point x="283" y="286" type="curve" smooth="yes"/>
      <point x="232" y="286"/>
      <point x="169" y="272"/>
      <point x="131" y="250" type="curve"/>
      <point x="114" y="216"/>
      <point x="108" y="156"/>
    </contour>
  </outline>
</glyph>
<glyph name="slash" format="2">
  <advance width="894"/>
  <unicode hex="002F"/>
  <outline>
    <contour>
      <point x="632" y="1434" type="curve"/>
      <point x="3" y="-240" type="line"/>
      <point x="77" y="-297"/>
      <point x="170" y="-327"/>
      <point x="257" y="-337" type="curve"/>
      <point x="886" y="1338" type="line"/>
      <point x="813" y="1394"/>
      <point x="719" y="1424"/>
    </contour>
  </outline>
</glyph>
<glyph name="zero" format="2">
  <advance width="1080"/>
  <unicode hex="0030"/>
  <outline>
    <contour>
      <point x="75" y="633" type="curve" smooth="yes"/>
      <point x="75" y="417"/>
      <point x="93" y="232"/>
      <point x="216" y="96" type="curve" smooth="yes"/>
      <point x="292" y="23"/>
      <point x="381" y="-29"/>
      <point x="540" y="-29" type="curve" smooth="yes"/>
      <point x="701" y="-29"/>
      <point x="788" y="23"/>
      <point x="864" y="96" type="curve" smooth="yes"/>
      <point x="987" y="232"/>
      <point x="1005" y="417"/>
      <point x="1005" y="633" type="curve" smooth="yes"/>
      <point x="1005" y="851"/>
      <point x="987" y="1034"/>
      <point x="864" y="1170" type="curve" smooth="yes"/>
      <point x="788" y="1243"/>
      <point x="701" y="1295"/>
      <point x="540" y="1295" type="curve" smooth="yes"/>
      <point x="381" y="1295"/>
      <point x="292" y="1243"/>
      <point x="216" y="1170" type="curve" smooth="yes"/>
      <point x="93" y="1034"/>
      <point x="75" y="851"/>
    </contour>
    <contour>
      <point x="380" y="633" type="curve" smooth="yes"/>
      <point x="380" y="820"/>
      <point x="394" y="936"/>
      <point x="422" y="995" type="curve" smooth="yes"/>
      <point x="445" y="1046"/>
      <point x="490" y="1068"/>
      <point x="540" y="1068" type="curve" smooth="yes"/>
      <point x="592" y="1068"/>
      <point x="635" y="1046"/>
      <point x="658" y="995" type="curve" smooth="yes"/>
      <point x="686" y="936"/>
      <point x="700" y="820"/>
      <point x="700" y="633" type="curve" smooth="yes"/>
      <point x="700" y="449"/>
      <point x="686" y="330"/>
      <point x="658" y="271" type="curve" smooth="yes"/>
      <point x="637" y="219"/>
      <point x="592" y="198"/>
      <point x="540" y="198" type="curve" smooth="yes"/>
      <point x="490" y="198"/>
      <point x="445" y="220"/>
      <point x="422" y="271" type="curve" smooth="yes"/>
      <point x="393" y="330"/>
      <point x="380" y="449"/>
    </contour>
  </outline>
</glyph>
<glyph name="one" format="2">
  <advance width="1080"/>
  <unicode hex="0031"/>
  <outline>
    <contour>
      <point x="745" y="389" type="curve" smooth="yes"/>
      <point x="745" y="1266" type="line"/>
      <point x="692" y="1275"/>
      <point x="647" y="1277"/>
      <point x="605" y="1277" type="curve" smooth="yes"/>
      <point x="563" y="1277"/>
      <point x="517" y="1275"/>
      <point x="464" y="1266" type="curve"/>
      <point x="471" y="979" type="line" smooth="yes"/>
      <point x="473" y="888"/>
      <point x="455" y="726"/>
      <point x="455" y="647" type="curve" smooth="yes"/>
      <point x="455" y="389" type="line" smooth="yes"/>
      <point x="455" y="335"/>
      <point x="457" y="280"/>
      <point x="457" y="224" type="curve" smooth="yes"/>
      <point x="457" y="118" type="line"/>
      <point x="743" y="118" type="line"/>
      <point x="743" y="224" type="line" smooth="yes"/>
      <point x="743" y="280"/>
      <point x="745" y="335"/>
    </contour>
    <contour>
      <point x="331" y="245" type="curve" smooth="yes"/>
      <point x="165" y="245" type="line"/>
      <point x="156" y="208"/>
      <point x="151" y="163"/>
      <point x="151" y="122" type="curve" smooth="yes"/>
      <point x="151" y="82"/>
      <point x="156" y="39"/>
      <point x="165" y="0" type="curve"/>
      <point x="988" y="0" type="line"/>
      <point x="997" y="37"/>
      <point x="1002" y="82"/>
      <point x="1002" y="122" type="curve" smooth="yes"/>
      <point x="1002" y="163"/>
      <point x="997" y="208"/>
      <point x="988" y="245" type="curve"/>
      <point x="876" y="245" type="line" smooth="yes"/>
      <point x="847" y="245"/>
      <point x="768" y="243"/>
      <point x="739" y="243" type="curve" smooth="yes"/>
      <point x="461" y="243" type="line" smooth="yes"/>
      <point x="432" y="243"/>
      <point x="360" y="245"/>
    </contour>
    <contour>
      <point x="75" y="864" type="curve"/>
      <point x="87" y="791"/>
      <point x="140" y="719"/>
      <point x="199" y="692" type="curve"/>
      <point x="341" y="753"/>
      <point x="505" y="875"/>
      <point x="566" y="1038" type="curve"/>
      <point x="464" y="1266" type="line"/>
      <point x="394" y="1118"/>
      <point x="274" y="988"/>
    </contour>
  </outline>
</glyph>
<glyph name="two" format="2">
  <advance width="1080"/>
  <unicode hex="0032"/>
  <outline>
    <contour>
      <point x="103" y="964" type="curve"/>
      <point x="140" y="908"/>
      <point x="244" y="875"/>
      <point x="315" y="874" type="curve"/>
      <point x="341" y="964"/>
      <point x="402" y="1052"/>
      <point x="500" y="1052" type="curve" smooth="yes"/>
      <point x="592" y="1052"/>
      <point x="646" y="990"/>
      <point x="646" y="908" type="curve" smooth="yes"/>
      <point x="646" y="828"/>
      <point x="598" y="768"/>
      <point x="535" y="713" type="curve" smooth="yes"/>
      <point x="321" y="529" type="line" smooth="yes"/>
      <point x="197" y="418"/>
      <point x="89" y="300"/>
      <point x="89" y="190" type="curve" smooth="yes"/>
      <point x="89" y="117"/>
      <point x="139" y="60"/>
      <point x="193" y="-2" type="curve"/>
      <point x="376" y="-2" type="line"/>
      <point x="386" y="201" type="line" smooth="yes"/>
      <point x="388" y="247"/>
      <point x="488" y="329"/>
      <point x="563" y="392" type="curve" smooth="yes"/>
      <point x="708" y="506" type="line" smooth="yes"/>
      <point x="838" y="616"/>
      <point x="949" y="727"/>
      <point x="949" y="900" type="curve" smooth="yes"/>
      <point x="949" y="1138"/>
      <point x="784" y="1295"/>
      <point x="531" y="1295" type="curve" smooth="yes"/>
      <point x="308" y="1295"/>
      <point x="155" y="1145"/>
    </contour>
    <contour>
      <point x="982" y="253" type="curve"/>
      <point x="695" y="253" type="line" smooth="yes"/>
      <point x="542" y="253"/>
      <point x="280" y="229"/>
      <point x="131" y="176" type="curve"/>
      <point x="211" y="-2" type="line"/>
      <point x="793" y="-2" type="line" smooth="yes"/>
      <point x="929" y="-2"/>
      <point x="982" y="59"/>
    </contour>
  </outline>
</glyph>
<glyph name="three" format="2">
  <advance width="1080"/>
  <unicode hex="0033"/>
  <outline>
    <contour>
      <point x="683" y="404" type="curve" smooth="yes"/>
      <point x="683" y="284"/>
      <point x="599" y="210"/>
      <point x="472" y="210" type="curve" smooth="yes"/>
      <point x="370" y="210"/>
      <point x="281" y="254"/>
      <point x="212" y="308" type="curve"/>
      <point x="151" y="260"/>
      <point x="100" y="184"/>
      <point x="87" y="115" type="curve"/>
      <point x="178" y="33"/>
      <point x="328" y="-29"/>
      <point x="510" y="-29" type="curve" smooth="yes"/>
      <point x="765" y="-29"/>
      <point x="989" y="123"/>
      <point x="989" y="393" type="curve" smooth="yes"/>
      <point x="989" y="636"/>
      <point x="814" y="764"/>
      <point x="587" y="764" type="curve" smooth="yes"/>
      <point x="438" y="764"/>
      <point x="360" y="740"/>
      <point x="277" y="710" type="curve"/>
      <point x="288" y="651"/>
      <point x="336" y="581"/>
      <point x="388" y="551" type="curve"/>
      <point x="423" y="567"/>
      <point x="462" y="576"/>
      <point x="500" y="576" type="curve" smooth="yes"/>
      <point x="603" y="576"/>
      <point x="683" y="514"/>
    </contour>
    <contour>
      <point x="717" y="811" type="curve" smooth="yes"/>
      <point x="879" y="966" type="line" smooth="yes"/>
      <point x="920" y="1009"/>
      <point x="936" y="1047"/>
      <point x="936" y="1090" type="curve" smooth="yes"/>
      <point x="936" y="1131"/>
      <point x="922" y="1182"/>
      <point x="877" y="1266" type="curve"/>
      <point x="158" y="1266" type="line"/>
      <point x="136" y="1218"/>
      <point x="132" y="1165"/>
      <point x="132" y="1128" type="curve" smooth="yes"/>
      <point x="132" y="1103"/>
      <point x="134" y="1062"/>
      <point x="152" y="1015" type="curve"/>
      <point x="399" y="1015" type="line" smooth="yes"/>
      <point x="474" y="1015"/>
      <point x="552" y="1026"/>
      <point x="599" y="1039" type="curve"/>
      <point x="607" y="1027" type="line"/>
      <point x="574" y="1001"/>
      <point x="507" y="939"/>
      <point x="471" y="902" type="curve" smooth="yes"/>
      <point x="277" y="710" type="line"/>
      <point x="436" y="645" type="line"/>
      <point x="506" y="671"/>
      <point x="636" y="729"/>
    </contour>
  </outline>
</glyph>
<glyph name="four" format="2">
  <advance width="1080"/>
  <unicode hex="0034"/>
  <outline>
    <contour>
      <point x="120" y="232" type="curve"/>
      <point x="419" y="232" type="line" smooth="yes"/>
      <point x="469" y="232"/>
      <point x="513" y="236"/>
      <point x="561" y="236" type="curve" smooth="yes"/>
      <point x="845" y="236" type="line" smooth="yes"/>
      <point x="894" y="236"/>
      <point x="907" y="235"/>
      <point x="957" y="235" type="curve" smooth="yes"/>
      <point x="1007" y="235" type="line"/>
      <point x="1020" y="281"/>
      <point x="1025" y="335"/>
      <point x="1025" y="375" type="curve" smooth="yes"/>
      <point x="1025" y="410"/>
      <point x="1023" y="446"/>
      <point x="1018" y="482" type="curve"/>
      <point x="957" y="482" type="line" smooth="yes"/>
      <point x="907" y="482"/>
      <point x="894" y="480"/>
      <point x="845" y="480" type="curve" smooth="yes"/>
      <point x="601" y="480" type="line" smooth="yes"/>
      <point x="566" y="480"/>
      <point x="421" y="475"/>
      <point x="341" y="466" type="curve"/>
      <point x="335" y="475" type="line"/>
      <point x="406" y="575"/>
      <point x="501" y="783"/>
      <point x="548" y="890" type="curve" smooth="yes"/>
      <point x="695" y="1220" type="line"/>
      <point x="648" y="1272"/>
      <point x="507" y="1298"/>
      <point x="422" y="1281" type="curve"/>
      <point x="93" y="545" type="line" smooth="yes"/>
      <point x="77" y="509"/>
      <point x="56" y="458"/>
      <point x="56" y="415" type="curve" smooth="yes"/>
      <point x="56" y="362"/>
      <point x="83" y="290"/>
    </contour>
    <contour>
      <point x="559" y="96" type="curve" smooth="yes"/>
      <point x="559" y="0" type="line"/>
      <point x="611" y="-9"/>
      <point x="660" y="-11"/>
      <point x="703" y="-11" type="curve" smooth="yes"/>
      <point x="746" y="-11"/>
      <point x="795" y="-9"/>
      <point x="847" y="0" type="curve"/>
      <point x="847" y="96" type="line" smooth="yes"/>
      <point x="847" y="147"/>
      <point x="845" y="187"/>
      <point x="845" y="236" type="curve" smooth="yes"/>
      <point x="845" y="480" type="line" smooth="yes"/>
      <point x="845" y="529"/>
      <point x="847" y="569"/>
      <point x="847" y="619" type="curve" smooth="yes"/>
      <point x="847" y="823" type="line"/>
      <point x="834" y="836" type="line"/>
      <point x="765" y="836" type="line" smooth="yes"/>
      <point x="634" y="836"/>
      <point x="559" y="744"/>
      <point x="559" y="599" type="curve" smooth="yes"/>
      <point x="559" y="521" type="line" smooth="yes"/>
      <point x="559" y="505"/>
      <point x="561" y="449"/>
      <point x="561" y="434" type="curve" smooth="yes"/>
      <point x="561" y="236" type="line" smooth="yes"/>
      <point x="561" y="187"/>
      <point x="559" y="147"/>
    </contour>
  </outline>
</glyph>
<glyph name="five" format="2">
  <advance width="1080"/>
  <unicode hex="0035"/>
  <outline>
    <contour>
      <point x="440" y="869" type="curve" smooth="yes"/>
      <point x="448" y="959" type="line" smooth="yes"/>
      <point x="452" y="1011"/>
      <point x="447" y="1144"/>
      <point x="434" y="1204" type="curve"/>
      <point x="174" y="1251" type="line"/>
      <point x="139" y="657" type="line"/>
      <point x="226" y="660"/>
      <point x="326" y="675"/>
      <point x="403" y="702" type="curve"/>
      <point x="424" y="757"/>
      <point x="435" y="810"/>
    </contour>
    <contour>
      <point x="89" y="108" type="curve"/>
      <point x="185" y="21"/>
      <point x="331" y="-29"/>
      <point x="486" y="-29" type="curve" smooth="yes"/>
      <point x="731" y="-29"/>
      <point x="977" y="117"/>
      <point x="977" y="433" type="curve" smooth="yes"/>
      <point x="977" y="681"/>
      <point x="820" y="846"/>
      <point x="551" y="846" type="curve" smooth="yes"/>
      <point x="363" y="846"/>
      <point x="222" y="731"/>
      <point x="139" y="657" type="curve"/>
      <point x="168" y="610"/>
      <point x="235" y="564"/>
      <point x="288" y="554" type="curve"/>
      <point x="342" y="596"/>
      <point x="401" y="619"/>
      <point x="465" y="619" type="curve" smooth="yes"/>
      <point x="574" y="619"/>
      <point x="672" y="560"/>
      <point x="672" y="420" type="curve" smooth="yes"/>
      <point x="672" y="282"/>
      <point x="576" y="212"/>
      <point x="460" y="212" type="curve" smooth="yes"/>
      <point x="367" y="212"/>
      <point x="289" y="246"/>
      <point x="210" y="302" type="curve"/>
      <point x="151" y="260"/>
      <point x="100" y="164"/>
    </contour>
    <contour>
      <point x="909" y="1266" type="curve"/>
      <point x="189" y="1266" type="line"/>
      <point x="174" y="1251" type="line"/>
      <point x="184" y="1032" type="line"/>
      <point x="226" y="1026"/>
      <point x="376" y="1019"/>
      <point x="473" y="1019" type="curve" smooth="yes"/>
      <point x="803" y="1019" type="line" smooth="yes"/>
      <point x="884" y="1019"/>
      <point x="929" y="1063"/>
      <point x="929" y="1144" type="curve" smooth="yes"/>
      <point x="929" y="1173"/>
      <point x="927" y="1218"/>
    </contour>
  </outline>
</glyph>
<glyph name="six" format="2">
  <advance width="1080"/>
  <unicode hex="0036"/>
  <outline>
    <contour>
      <point x="552" y="-29" type="curve" smooth="yes"/>
      <point x="797" y="-29"/>
      <point x="1003" y="135"/>
      <point x="1003" y="423" type="curve" smooth="yes"/>
      <point x="1003" y="723"/>
      <point x="856" y="850"/>
      <point x="640" y="850" type="curve" smooth="yes"/>
      <point x="452" y="850"/>
      <point x="322" y="730"/>
      <point x="260" y="608" type="curve"/>
      <point x="310" y="458" type="line"/>
      <point x="379" y="555"/>
      <point x="467" y="611"/>
      <point x="562" y="611" type="curve" smooth="yes"/>
      <point x="653" y="611"/>
      <point x="708" y="555"/>
      <point x="708" y="405" type="curve" smooth="yes"/>
      <point x="708" y="282"/>
      <point x="663" y="191"/>
      <point x="556" y="191" type="curve" smooth="yes"/>
      <point x="505" y="191"/>
      <point x="471" y="217"/>
      <point x="447" y="247" type="curve" smooth="yes"/>
      <point x="409" y="298"/>
      <point x="388" y="394"/>
      <point x="388" y="521" type="curve" smooth="yes"/>
      <point x="388" y="723" type="line" smooth="yes"/>
      <point x="388" y="923"/>
      <point x="459" y="1062"/>
      <point x="645" y="1062" type="curve" smooth="yes"/>
      <point x="725" y="1062"/>
      <point x="793" y="1043"/>
      <point x="846" y="1021" type="curve"/>
      <point x="903" y="1068"/>
      <point x="937" y="1150"/>
      <point x="943" y="1227" type="curve"/>
      <point x="862" y="1268"/>
      <point x="754" y="1295"/>
      <point x="621" y="1295" type="curve" smooth="yes"/>
      <point x="276" y="1295"/>
      <point x="78" y="1040"/>
      <point x="78" y="619" type="curve" smooth="yes"/>
      <point x="78" y="272"/>
      <point x="174" y="166"/>
      <point x="211" y="119" type="curve" smooth="yes"/>
      <point x="249" y="70"/>
      <point x="348" y="-29"/>
    </contour>
  </outline>
</glyph>
<glyph name="seven" format="2">
  <advance width="1080"/>
  <unicode hex="0037"/>
  <outline>
    <contour>
      <point x="947" y="1266" type="curve"/>
      <point x="130" y="1266" type="line"/>
      <point x="114" y="1225"/>
      <point x="103" y="1170"/>
      <point x="103" y="1118" type="curve" smooth="yes"/>
      <point x="103" y="1083"/>
      <point x="108" y="1045"/>
      <point x="117" y="1015" type="curve"/>
      <point x="435" y="1015" type="line" smooth="yes"/>
      <point x="491" y="1015"/>
      <point x="649" y="1024"/>
      <point x="715" y="1041" type="curve"/>
      <point x="724" y="1030" type="line"/>
      <point x="476" y="803"/>
      <point x="316" y="444"/>
      <point x="287" y="94" type="curve" smooth="yes"/>
      <point x="279" y="0" type="line"/>
      <point x="326" y="-8"/>
      <point x="379" y="-11"/>
      <point x="432" y="-11" type="curve" smooth="yes"/>
      <point x="489" y="-11"/>
      <point x="542" y="-8"/>
      <point x="581" y="0" type="curve"/>
      <point x="588" y="90" type="line" smooth="yes"/>
      <point x="618" y="433"/>
      <point x="706" y="635"/>
      <point x="958" y="971" type="curve" smooth="yes"/>
      <point x="986" y="1009"/>
      <point x="1001" y="1054"/>
      <point x="1001" y="1085" type="curve" smooth="yes"/>
      <point x="1001" y="1134"/>
      <point x="972" y="1212"/>
    </contour>
  </outline>
</glyph>
<glyph name="eight" format="2">
  <advance width="1080"/>
  <unicode hex="0038"/>
  <outline>
    <contour>
      <point x="66" y="322" type="curve" smooth="yes"/>
      <point x="66" y="102"/>
      <point x="248" y="-29"/>
      <point x="527" y="-29" type="curve" smooth="yes"/>
      <point x="795" y="-29"/>
      <point x="1013" y="107"/>
      <point x="1013" y="336" type="curve" smooth="yes"/>
      <point x="1013" y="566"/>
      <point x="841" y="683"/>
      <point x="613" y="766" type="curve" smooth="yes"/>
      <point x="566" y="784" type="line" smooth="yes"/>
      <point x="457" y="822"/>
      <point x="390" y="872"/>
      <point x="390" y="952" type="curve" smooth="yes"/>
      <point x="390" y="1028"/>
      <point x="452" y="1084"/>
      <point x="538" y="1084" type="curve" smooth="yes"/>
      <point x="631" y="1084"/>
      <point x="691" y="1025"/>
      <point x="691" y="945" type="curve" smooth="yes"/>
      <point x="691" y="852"/>
      <point x="628" y="776"/>
      <point x="505" y="728" type="curve"/>
      <point x="690" y="644" type="line"/>
      <point x="831" y="685"/>
      <point x="977" y="794"/>
      <point x="977" y="956" type="curve" smooth="yes"/>
      <point x="977" y="1153"/>
      <point x="807" y="1295"/>
      <point x="540" y="1295" type="curve" smooth="yes"/>
      <point x="284" y="1295"/>
      <point x="99" y="1145"/>
      <point x="99" y="951" type="curve" smooth="yes"/>
      <point x="99" y="752"/>
      <point x="242" y="651"/>
      <point x="481" y="559" type="curve" smooth="yes"/>
      <point x="530" y="539" type="line" smooth="yes"/>
      <point x="644" y="496"/>
      <point x="710" y="426"/>
      <point x="710" y="338" type="curve" smooth="yes"/>
      <point x="710" y="249"/>
      <point x="648" y="177"/>
      <point x="539" y="177" type="curve" smooth="yes"/>
      <point x="434" y="177"/>
      <point x="366" y="246"/>
      <point x="366" y="341" type="curve" smooth="yes"/>
      <point x="366" y="441"/>
      <point x="424" y="548"/>
      <point x="583" y="618" type="curve"/>
      <point x="391" y="699" type="line"/>
      <point x="231" y="645"/>
      <point x="66" y="508"/>
    </contour>
  </outline>
</glyph>
<glyph name="nine" format="2">
  <advance width="1080"/>
  <unicode hex="0039"/>
  <outline>
    <contour>
      <point x="528" y="1295" type="curve" smooth="yes"/>
      <point x="283" y="1295"/>
      <point x="77" y="1131"/>
      <point x="77" y="843" type="curve" smooth="yes"/>
      <point x="77" y="543"/>
      <point x="224" y="416"/>
      <point x="440" y="416" type="curve" smooth="yes"/>
      <point x="628" y="416"/>
      <point x="758" y="536"/>
      <point x="820" y="658" type="curve"/>
      <point x="770" y="808" type="line"/>
      <point x="701" y="711"/>
      <point x="613" y="655"/>
      <point x="518" y="655" type="curve" smooth="yes"/>
      <point x="427" y="655"/>
      <point x="372" y="711"/>
      <point x="372" y="861" type="curve" smooth="yes"/>
      <point x="372" y="984"/>
      <point x="417" y="1075"/>
      <point x="524" y="1075" type="curve" smooth="yes"/>
      <point x="575" y="1075"/>
      <point x="609" y="1049"/>
      <point x="633" y="1019" type="curve" smooth="yes"/>
      <point x="672" y="968"/>
      <point x="692" y="872"/>
      <point x="692" y="745" type="curve" smooth="yes"/>
      <point x="692" y="543" type="line" smooth="yes"/>
      <point x="692" y="343"/>
      <point x="621" y="204"/>
      <point x="435" y="204" type="curve" smooth="yes"/>
      <point x="355" y="204"/>
      <point x="287" y="223"/>
      <point x="234" y="245" type="curve"/>
      <point x="177" y="198"/>
      <point x="143" y="116"/>
      <point x="137" y="39" type="curve"/>
      <point x="218" y="-2"/>
      <point x="326" y="-29"/>
      <point x="459" y="-29" type="curve" smooth="yes"/>
      <point x="804" y="-29"/>
      <point x="1002" y="226"/>
      <point x="1002" y="647" type="curve" smooth="yes"/>
      <point x="1002" y="994"/>
      <point x="906" y="1100"/>
      <point x="869" y="1147" type="curve" smooth="yes"/>
      <point x="832" y="1196"/>
      <point x="732" y="1295"/>
    </contour>
  </outline>
</glyph>
<glyph name="less" format="2">
  <advance width="1080"/>
  <unicode hex="003C"/>
  <outline>
    <contour>
      <point x="827" y="1142" type="curve"/>
      <point x="113" y="749" type="line"/>
      <point x="94" y="680"/>
      <point x="97" y="588"/>
      <point x="113" y="523" type="curve"/>
      <point x="826" y="127" type="line"/>
      <point x="896" y="166"/>
      <point x="955" y="267"/>
      <point x="963" y="361" type="curve"/>
      <point x="580" y="558" type="line" smooth="yes"/>
      <point x="540" y="579"/>
      <point x="454" y="615"/>
      <point x="413" y="629" type="curve"/>
      <point x="413" y="644" type="line"/>
      <point x="454" y="658"/>
      <point x="540" y="694"/>
      <point x="580" y="715" type="curve" smooth="yes"/>
      <point x="963" y="912" type="line"/>
      <point x="958" y="1006"/>
      <point x="901" y="1102"/>
    </contour>
  </outline>
</glyph>
<glyph name="equal" format="2">
  <advance width="1080"/>
  <unicode hex="003D"/>
  <outline>
    <contour>
      <point x="116" y="295" type="curve"/>
      <point x="964" y="295" type="line"/>
      <point x="975" y="335"/>
      <point x="977" y="387"/>
      <point x="977" y="415" type="curve" smooth="yes"/>
      <point x="977" y="443"/>
      <point x="975" y="495"/>
      <point x="964" y="535" type="curve"/>
      <point x="116" y="535" type="line"/>
      <point x="105" y="495"/>
      <point x="103" y="443"/>
      <point x="103" y="415" type="curve" smooth="yes"/>
      <point x="103" y="387"/>
      <point x="105" y="335"/>
    </contour>
    <contour>
      <point x="116" y="743" type="curve"/>
      <point x="964" y="743" type="line"/>
      <point x="975" y="783"/>
      <point x="977" y="835"/>
      <point x="977" y="862" type="curve" smooth="yes"/>
      <point x="977" y="890"/>
      <point x="975" y="943"/>
      <point x="964" y="983" type="curve"/>
      <point x="116" y="983" type="line"/>
      <point x="105" y="943"/>
      <point x="103" y="890"/>
      <point x="103" y="862" type="curve" smooth="yes"/>
      <point x="103" y="835"/>
      <point x="105" y="783"/>
    </contour>
  </outline>
</glyph>
<glyph name="greater" format="2">
  <advance width="1077"/>
  <unicode hex="003E"/>
  <outline>
    <contour>
      <point x="251" y="131" type="curve"/>
      <point x="965" y="525" type="line"/>
      <point x="984" y="593"/>
      <point x="982" y="686"/>
      <point x="965" y="751" type="curve"/>
      <point x="253" y="1146" type="line"/>
      <point x="182" y="1107"/>
      <point x="124" y="1006"/>
      <point x="116" y="913" type="curve"/>
      <point x="498" y="716" type="line" smooth="yes"/>
      <point x="539" y="694"/>
      <point x="624" y="659"/>
      <point x="665" y="645" type="curve"/>
      <point x="665" y="629" type="line"/>
      <point x="624" y="615"/>
      <point x="539" y="579"/>
      <point x="498" y="558" type="curve" smooth="yes"/>
      <point x="116" y="361" type="line"/>
      <point x="120" y="267"/>
      <point x="177" y="172"/>
    </contour>
  </outline>
</glyph>
<glyph name="question" format="2">
  <advance width="834"/>
  <unicode hex="003F"/>
  <outline>
    <contour>
      <point x="5" y="1283" type="curve"/>
      <point x="9" y="1207"/>
      <point x="57" y="1112"/>
      <point x="113" y="1069" type="curve"/>
      <point x="184" y="1108"/>
      <point x="263" y="1140"/>
      <point x="346" y="1140" type="curve" smooth="yes"/>
      <point x="453" y="1140"/>
      <point x="509" y="1085"/>
      <point x="509" y="1003" type="curve" smooth="yes"/>
      <point x="509" y="909"/>
      <point x="424" y="846"/>
      <point x="310" y="793" type="curve" smooth="yes"/>
      <point x="202" y="743" type="line"/>
      <point x="178" y="714" type="line"/>
      <point x="194" y="416" type="line"/>
      <point x="231" y="404"/>
      <point x="274" y="401"/>
      <point x="310" y="401" type="curve" smooth="yes"/>
      <point x="346" y="401"/>
      <point x="384" y="404"/>
      <point x="419" y="416" type="curve"/>
      <point x="438" y="576" type="line"/>
      <point x="559" y="640" type="line" smooth="yes"/>
      <point x="708" y="718"/>
      <point x="821" y="837"/>
      <point x="821" y="1035" type="curve" smooth="yes"/>
      <point x="821" y="1245"/>
      <point x="679" y="1396"/>
      <point x="413" y="1396" type="curve" smooth="yes"/>
      <point x="258" y="1396"/>
      <point x="116" y="1348"/>
    </contour>
    <contour>
      <point x="309" y="265" type="curve" smooth="yes"/>
      <point x="257" y="265"/>
      <point x="202" y="253"/>
      <point x="165" y="233" type="curve"/>
      <point x="152" y="209"/>
      <point x="145" y="153"/>
      <point x="145" y="118" type="curve" smooth="yes"/>
      <point x="145" y="82"/>
      <point x="152" y="28"/>
      <point x="165" y="4" type="curve"/>
      <point x="202" y="-16"/>
      <point x="257" y="-27"/>
      <point x="309" y="-27" type="curve" smooth="yes"/>
      <point x="362" y="-27"/>
      <point x="417" y="-16"/>
      <point x="452" y="4" type="curve"/>
      <point x="467" y="28"/>
      <point x="474" y="82"/>
      <point x="474" y="118" type="curve" smooth="yes"/>
      <point x="474" y="153"/>
      <point x="467" y="209"/>
      <point x="452" y="233" type="curve"/>
      <point x="417" y="253"/>
      <point x="362" y="265"/>
    </contour>
  </outline>
</glyph>
<glyph name="at" format="2">
  <advance width="1951"/>
  <unicode hex="0040"/>
  <outline>
    <contour>
      <point x="1381" y="326" type="curve" smooth="yes"/>
      <point x="1381" y="823" type="line"/>
      <point x="1305" y="900"/>
      <point x="1155" y="971"/>
      <point x="1002" y="971" type="curve" smooth="yes"/>
      <point x="726" y="971"/>
      <point x="574" y="757"/>
      <point x="574" y="454" type="curve" smooth="yes"/>
      <point x="574" y="184"/>
      <point x="686" y="-4"/>
      <point x="900" y="-4" type="curve" smooth="yes"/>
      <point x="1063" y="-4"/>
      <point x="1220" y="140"/>
      <point x="1271" y="255" type="curve"/>
      <point x="1168" y="387" type="line"/>
      <point x="1131" y="301"/>
      <point x="1044" y="219"/>
      <point x="968" y="219" type="curve" smooth="yes"/>
      <point x="885" y="219"/>
      <point x="859" y="300"/>
      <point x="859" y="467" type="curve" smooth="yes"/>
      <point x="859" y="629"/>
      <point x="888" y="764"/>
      <point x="1002" y="764" type="curve" smooth="yes"/>
      <point x="1044" y="764"/>
      <point x="1076" y="751"/>
      <point x="1106" y="726" type="curve"/>
      <point x="1106" y="315" type="line" smooth="yes"/>
      <point x="1106" y="142"/>
      <point x="1243" y="3"/>
      <point x="1445" y="3" type="curve" smooth="yes"/>
      <point x="1659" y="3"/>
      <point x="1885" y="181"/>
      <point x="1885" y="591" type="curve" smooth="yes"/>
      <point x="1885" y="1086"/>
      <point x="1507" y="1369"/>
      <point x="1008" y="1369" type="curve" smooth="yes"/>
      <point x="472" y="1369"/>
      <point x="81" y="985"/>
      <point x="81" y="444" type="curve" smooth="yes"/>
      <point x="81" y="-136"/>
      <point x="429" y="-402"/>
      <point x="918" y="-402" type="curve" smooth="yes"/>
      <point x="1081" y="-402"/>
      <point x="1280" y="-359"/>
      <point x="1408" y="-303" type="curve"/>
      <point x="1408" y="-238"/>
      <point x="1383" y="-153"/>
      <point x="1334" y="-100" type="curve"/>
      <point x="1209" y="-148"/>
      <point x="1076" y="-175"/>
      <point x="941" y="-175" type="curve" smooth="yes"/>
      <point x="595" y="-175"/>
      <point x="377" y="25"/>
      <point x="377" y="444" type="curve" smooth="yes"/>
      <point x="377" y="857"/>
      <point x="627" y="1150"/>
      <point x="1008" y="1150" type="curve" smooth="yes"/>
      <point x="1361" y="1150"/>
      <point x="1592" y="941"/>
      <point x="1592" y="598" type="curve" smooth="yes"/>
      <point x="1592" y="312"/>
      <point x="1525" y="220"/>
      <point x="1447" y="220" type="curve" smooth="yes"/>
      <point x="1400" y="220"/>
      <point x="1381" y="250"/>
    </contour>
  </outline>
</glyph>
<glyph name="A" format="2">
  <advance width="1269"/>
  <unicode hex="0041"/>
  <anchor x="640" y="0" name="bottom"/>
  <anchor x="1249" y="20" name="ogonek"/>
  <anchor x="640" y="1464" name="top"/>
  <outline>
    <contour>
      <point x="463" y="1366" type="curve"/>
      <point x="20" y="23" type="line"/>
      <point x="31" y="7" type="line"/>
      <point x="67" y="-6"/>
      <point x="132" y="-13"/>
      <point x="179" y="-13" type="curve" smooth="yes"/>
      <point x="226" y="-13"/>
      <point x="270" y="-11"/>
      <point x="308" y="-2" type="curve"/>
      <point x="522" y="717" type="line" smooth="yes"/>
      <point x="552" y="821"/>
      <point x="597" y="977"/>
      <point x="617" y="1085" type="curve"/>
      <point x="629" y="1085" type="line"/>
      <point x="661" y="956"/>
      <point x="706" y="794"/>
      <point x="738" y="681" type="curve" smooth="yes"/>
      <point x="891" y="148" type="line" smooth="yes"/>
      <point x="928" y="17"/>
      <point x="977" y="-17"/>
      <point x="1073" y="-17" type="curve" smooth="yes"/>
      <point x="1131" y="-17"/>
      <point x="1206" y="-4"/>
      <point x="1249" y="20" type="curve"/>
      <point x="816" y="1364" type="line"/>
      <point x="768" y="1373"/>
      <point x="689" y="1377"/>
      <point x="640" y="1377" type="curve" smooth="yes"/>
      <point x="589" y="1377"/>
      <point x="512" y="1373"/>
    </contour>
    <contour>
      <point x="481" y="292" type="curve" smooth="yes"/>
      <point x="764" y="292" type="line" smooth="yes"/>
      <point x="791" y="292"/>
      <point x="843" y="294"/>
      <point x="871" y="294" type="curve" smooth="yes"/>
      <point x="1029" y="294" type="line"/>
      <point x="952" y="533" type="line"/>
      <point x="808" y="533" type="line" smooth="yes"/>
      <point x="780" y="533"/>
      <point x="731" y="535"/>
      <point x="704" y="535" type="curve" smooth="yes"/>
      <point x="551" y="535" type="line" smooth="yes"/>
      <point x="524" y="535"/>
      <point x="475" y="533"/>
      <point x="448" y="533" type="curve" smooth="yes"/>
      <point x="309" y="533" type="line"/>
      <point x="215" y="294" type="line"/>
      <point x="374" y="294" type="line" smooth="yes"/>
      <point x="401" y="294"/>
      <point x="453" y="292"/>
    </contour>
  </outline>
</glyph>
<glyph name="B" format="2">
  <advance width="1227"/>
  <unicode hex="0042"/>
  <anchor x="597" y="0" name="bottom"/>
  <anchor x="578" y="1464" name="top"/>
  <outline>
    <contour>
      <point x="170" y="1369" type="curve"/>
      <point x="156" y="1356" type="line"/>
      <point x="156" y="10" type="line"/>
      <point x="170" y="-3" type="line"/>
      <point x="338" y="-7"/>
      <point x="500" y="-11"/>
      <point x="655" y="-11" type="curve" smooth="yes"/>
      <point x="965" y="-11"/>
      <point x="1153" y="119"/>
      <point x="1153" y="391" type="curve" smooth="yes"/>
      <point x="1153" y="580"/>
      <point x="1004" y="743"/>
      <point x="841" y="751" type="curve"/>
      <point x="841" y="720" type="line"/>
      <point x="977" y="736"/>
      <point x="1088" y="866"/>
      <point x="1088" y="1014" type="curve" smooth="yes"/>
      <point x="1088" y="1262"/>
      <point x="906" y="1377"/>
      <point x="625" y="1377" type="curve" smooth="yes"/>
      <point x="484" y="1377"/>
      <point x="328" y="1373"/>
    </contour>
    <contour>
      <point x="457" y="203" type="curve"/>
      <point x="457" y="1161" type="line"/>
      <point x="509" y="1159"/>
      <point x="573" y="1159"/>
      <point x="610" y="1159" type="curve" smooth="yes"/>
      <point x="752" y="1159"/>
      <point x="790" y="1075"/>
      <point x="790" y="994" type="curve" smooth="yes"/>
      <point x="790" y="913"/>
      <point x="752" y="826"/>
      <point x="609" y="826" type="curve" smooth="yes"/>
      <point x="341" y="826" type="line"/>
      <point x="341" y="607" type="line"/>
      <point x="633" y="607" type="line" smooth="yes"/>
      <point x="800" y="607"/>
      <point x="846" y="494"/>
      <point x="846" y="405" type="curve" smooth="yes"/>
      <point x="846" y="318"/>
      <point x="806" y="205"/>
      <point x="636" y="205" type="curve" smooth="yes"/>
      <point x="589" y="205"/>
      <point x="524" y="205"/>
    </contour>
  </outline>
</glyph>
<glyph name="C" format="2">
  <advance width="1217"/>
  <unicode hex="0043"/>
  <anchor x="652" y="0" name="bottom"/>
  <anchor x="651" y="1466" name="top"/>
  <outline>
    <contour>
      <point x="873" y="832" type="curve"/>
      <point x="912" y="822"/>
      <point x="946" y="815"/>
      <point x="990" y="815" type="curve" smooth="yes"/>
      <point x="1100" y="815"/>
      <point x="1164" y="866"/>
      <point x="1164" y="984" type="curve" smooth="yes"/>
      <point x="1164" y="1215"/>
      <point x="963" y="1397"/>
      <point x="655" y="1397" type="curve" smooth="yes"/>
      <point x="340" y="1397"/>
      <point x="76" y="1180"/>
      <point x="76" y="678" type="curve" smooth="yes"/>
      <point x="76" y="333"/>
      <point x="207" y="-29"/>
      <point x="623" y="-29" type="curve" smooth="yes"/>
      <point x="842" y="-29"/>
      <point x="1047" y="68"/>
      <point x="1162" y="181" type="curve"/>
      <point x="1148" y="253"/>
      <point x="1080" y="338"/>
      <point x="1021" y="378" type="curve"/>
      <point x="925" y="306"/>
      <point x="814" y="237"/>
      <point x="678" y="237" type="curve" smooth="yes"/>
      <point x="499" y="237"/>
      <point x="396" y="385"/>
      <point x="396" y="676" type="curve" smooth="yes"/>
      <point x="396" y="986"/>
      <point x="468" y="1153"/>
      <point x="645" y="1153" type="curve" smooth="yes"/>
      <point x="828" y="1153"/>
      <point x="877" y="996"/>
    </contour>
  </outline>
</glyph>
<glyph name="D" format="2">
  <advance width="1329"/>
  <unicode hex="0044"/>
  <guideline x="637" y="221" angle="90.0"/>
  <anchor x="629" y="0" name="bottom"/>
  <anchor x="637" y="1464" name="top"/>
  <outline>
    <contour>
      <point x="1251" y="684" type="curve" smooth="yes"/>
      <point x="1251" y="916"/>
      <point x="1216" y="1129"/>
      <point x="1029" y="1277" type="curve" smooth="yes"/>
      <point x="938" y="1349"/>
      <point x="775" y="1377"/>
      <point x="664" y="1377" type="curve" smooth="yes"/>
      <point x="493" y="1377"/>
      <point x="342" y="1375"/>
      <point x="170" y="1369" type="curve"/>
      <point x="156" y="1356" type="line"/>
      <point x="156" y="10" type="line"/>
      <point x="170" y="-3" type="line"/>
      <point x="344" y="-7"/>
      <point x="493" y="-11"/>
      <point x="664" y="-11" type="curve" smooth="yes"/>
      <point x="775" y="-11"/>
      <point x="937" y="17"/>
      <point x="1029" y="89" type="curve" smooth="yes"/>
      <point x="1218" y="237"/>
      <point x="1251" y="450"/>
    </contour>
    <contour>
      <point x="938" y="684" type="curve" smooth="yes"/>
      <point x="938" y="476"/>
      <point x="903" y="227"/>
      <point x="664" y="227" type="curve" smooth="yes"/>
      <point x="594" y="227"/>
      <point x="534" y="227"/>
      <point x="460" y="226" type="curve"/>
      <point x="460" y="1141" type="line"/>
      <point x="534" y="1139"/>
      <point x="594" y="1139"/>
      <point x="664" y="1139" type="curve" smooth="yes"/>
      <point x="903" y="1139"/>
      <point x="938" y="892"/>
    </contour>
  </outline>
</glyph>
<glyph name="E" format="2">
  <advance width="1144"/>
  <unicode hex="0045"/>
  <anchor x="621" y="0" name="bottom"/>
  <anchor x="928" y="0" name="ogonek"/>
  <anchor x="598" y="1464" name="top"/>
  <outline>
    <contour>
      <point x="154" y="1352" type="line"/>
      <point x="154" y="174" type="line" smooth="yes"/>
      <point x="154" y="63"/>
      <point x="220" y="-5"/>
      <point x="329" y="-5" type="curve" smooth="yes"/>
      <point x="454" y="-5" type="line"/>
      <point x="454" y="248" type="line" smooth="yes"/>
      <point x="454" y="300"/>
      <point x="456" y="337"/>
      <point x="456" y="386" type="curve" smooth="yes"/>
      <point x="456" y="968" type="line" smooth="yes"/>
      <point x="456" y="1022"/>
      <point x="454" y="1059"/>
      <point x="454" y="1115" type="curve" smooth="yes"/>
      <point x="454" y="1366" type="line"/>
      <point x="168" y="1366" type="line"/>
    </contour>
    <contour>
      <point x="905" y="811" type="curve"/>
      <point x="590" y="811" type="line" smooth="yes"/>
      <point x="540" y="811"/>
      <point x="414" y="809"/>
      <point x="351" y="808" type="curve"/>
      <point x="351" y="566" type="line"/>
      <point x="414" y="565"/>
      <point x="540" y="563"/>
      <point x="590" y="563" type="curve" smooth="yes"/>
      <point x="905" y="563" type="line"/>
      <point x="917" y="601"/>
      <point x="923" y="652"/>
      <point x="923" y="687" type="curve" smooth="yes"/>
      <point x="923" y="720"/>
      <point x="917" y="774"/>
    </contour>
    <contour>
      <point x="1022" y="1366" type="curve"/>
      <point x="351" y="1366" type="line"/>
      <point x="351" y="1114" type="line"/>
      <point x="414" y="1112"/>
      <point x="540" y="1110"/>
      <point x="590" y="1110" type="curve" smooth="yes"/>
      <point x="1008" y="1110" type="line"/>
      <point x="1024" y="1156"/>
      <point x="1033" y="1211"/>
      <point x="1033" y="1246" type="curve" smooth="yes"/>
      <point x="1033" y="1280"/>
      <point x="1031" y="1320"/>
    </contour>
    <contour>
      <point x="1071" y="251" type="curve"/>
      <point x="600" y="251" type="line" smooth="yes"/>
      <point x="504" y="251"/>
      <point x="434" y="245"/>
      <point x="351" y="241" type="curve"/>
      <point x="351" y="-5" type="line"/>
      <point x="870" y="-5" type="line" smooth="yes"/>
      <point x="1031" y="-5"/>
      <point x="1071" y="81"/>
    </contour>
  </outline>
</glyph>
<glyph name="F" format="2">
  <advance width="1066"/>
  <unicode hex="0046"/>
  <anchor x="591" y="1464" name="top"/>
  <outline>
    <contour>
      <point x="462" y="0" type="curve"/>
      <point x="462" y="939" type="line" smooth="yes"/>
      <point x="462" y="1044"/>
      <point x="460" y="1159"/>
      <point x="460" y="1269" type="curve" smooth="yes"/>
      <point x="460" y="1366" type="line"/>
      <point x="170" y="1366" type="line"/>
      <point x="156" y="1354" type="line"/>
      <point x="156" y="0" type="line"/>
      <point x="208" y="-9"/>
      <point x="269" y="-11"/>
      <point x="312" y="-11" type="curve" smooth="yes"/>
      <point x="355" y="-11"/>
      <point x="410" y="-9"/>
    </contour>
    <contour>
      <point x="1016" y="1366" type="curve"/>
      <point x="336" y="1366" type="line"/>
      <point x="336" y="1110" type="line"/>
      <point x="422" y="1109"/>
      <point x="509" y="1107"/>
      <point x="610" y="1107" type="curve" smooth="yes"/>
      <point x="866" y="1107" type="line" smooth="yes"/>
      <point x="976" y="1107"/>
      <point x="1030" y="1149"/>
      <point x="1030" y="1249" type="curve" smooth="yes"/>
      <point x="1030" y="1284"/>
      <point x="1026" y="1333"/>
    </contour>
    <contour>
      <point x="897" y="806" type="curve"/>
      <point x="507" y="806" type="line" smooth="yes"/>
      <point x="451" y="806"/>
      <point x="387" y="804"/>
      <point x="346" y="803" type="curve"/>
      <point x="346" y="560" type="line"/>
      <point x="387" y="558"/>
      <point x="451" y="556"/>
      <point x="507" y="556" type="curve" smooth="yes"/>
      <point x="897" y="556" type="line"/>
      <point x="907" y="593"/>
      <point x="913" y="647"/>
      <point x="913" y="682" type="curve" smooth="yes"/>
      <point x="913" y="715"/>
      <point x="907" y="771"/>
    </contour>
  </outline>
</glyph>
<glyph name="G" format="2">
  <advance width="1306"/>
  <unicode hex="0047"/>
  <anchor x="687" y="0" name="bottom"/>
  <anchor x="699" y="1464" name="top"/>
  <outline>
    <contour>
      <point x="1195" y="1252" type="curve"/>
      <point x="1062" y="1337"/>
      <point x="889" y="1395"/>
      <point x="708" y="1395" type="curve" smooth="yes"/>
      <point x="387" y="1395"/>
      <point x="76" y="1162"/>
      <point x="76" y="674" type="curve" smooth="yes"/>
      <point x="76" y="250"/>
      <point x="265" y="-29"/>
      <point x="678" y="-29" type="curve" smooth="yes"/>
      <point x="891" y="-29"/>
      <point x="1082" y="14"/>
      <point x="1199" y="54" type="curve"/>
      <point x="1039" y="265" type="line"/>
      <point x="972" y="244"/>
      <point x="862" y="212"/>
      <point x="731" y="212" type="curve" smooth="yes"/>
      <point x="509" y="212"/>
      <point x="388" y="354"/>
      <point x="388" y="672" type="curve" smooth="yes"/>
      <point x="388" y="1003"/>
      <point x="521" y="1142"/>
      <point x="725" y="1142" type="curve" smooth="yes"/>
      <point x="839" y="1142"/>
      <point x="961" y="1098"/>
      <point x="1058" y="1032" type="curve"/>
      <point x="1120" y="1072"/>
      <point x="1188" y="1165"/>
    </contour>
    <contour>
      <point x="912" y="376" type="curve" smooth="yes"/>
      <point x="912" y="50" type="line"/>
      <point x="1199" y="54" type="line"/>
      <point x="1199" y="579" type="line"/>
      <point x="940" y="665" type="line"/>
      <point x="916" y="579"/>
      <point x="912" y="470"/>
    </contour>
    <contour>
      <point x="996" y="768" type="curve" smooth="yes"/>
      <point x="683" y="768" type="line"/>
      <point x="671" y="731"/>
      <point x="661" y="682"/>
      <point x="661" y="641" type="curve" smooth="yes"/>
      <point x="661" y="544"/>
      <point x="712" y="513"/>
      <point x="808" y="513" type="curve" smooth="yes"/>
      <point x="1199" y="513" type="line"/>
      <point x="1199" y="579" type="line" smooth="yes"/>
      <point x="1199" y="691"/>
      <point x="1149" y="768"/>
    </contour>
  </outline>
</glyph>
<glyph name="H" format="2">
  <advance width="1369"/>
  <unicode hex="0048"/>
  <anchor x="685" y="0" name="bottom"/>
  <anchor x="685" y="1466" name="top"/>
  <outline>
    <contour>
      <point x="562" y="576" type="curve" smooth="yes"/>
      <point x="808" y="576" type="line"/>
      <point x="835" y="576"/>
      <point x="882" y="578"/>
      <point x="909" y="578" type="curve" smooth="yes"/>
      <point x="969" y="578"/>
      <point x="1033" y="576"/>
      <point x="1093" y="576" type="curve"/>
      <point x="1093" y="832" type="line"/>
      <point x="1033" y="832"/>
      <point x="969" y="830"/>
      <point x="909" y="830" type="curve" smooth="yes"/>
      <point x="882" y="830"/>
      <point x="835" y="832"/>
      <point x="808" y="832" type="curve" smooth="yes"/>
      <point x="562" y="832" type="line" smooth="yes"/>
      <point x="535" y="832"/>
      <point x="488" y="830"/>
      <point x="460" y="830" type="curve" smooth="yes"/>
      <point x="400" y="830"/>
      <point x="337" y="832"/>
      <point x="277" y="832" type="curve"/>
      <point x="277" y="576" type="line"/>
      <point x="337" y="576"/>
      <point x="400" y="578"/>
      <point x="460" y="578" type="curve" smooth="yes"/>
      <point x="488" y="578"/>
      <point x="535" y="576"/>
    </contour>
    <contour>
      <point x="462" y="0" type="curve"/>
      <point x="462" y="430" type="line" smooth="yes"/>
      <point x="462" y="486"/>
      <point x="460" y="524"/>
      <point x="460" y="578" type="curve" smooth="yes"/>
      <point x="460" y="830" type="line" smooth="yes"/>
      <point x="460" y="884"/>
      <point x="462" y="922"/>
      <point x="462" y="978" type="curve" smooth="yes"/>
      <point x="462" y="1366" type="line"/>
      <point x="412" y="1375"/>
      <point x="350" y="1377"/>
      <point x="309" y="1377" type="curve" smooth="yes"/>
      <point x="271" y="1377"/>
      <point x="205" y="1375"/>
      <point x="156" y="1366" type="curve"/>
      <point x="156" y="0" type="line"/>
      <point x="205" y="-9"/>
      <point x="271" y="-11"/>
      <point x="309" y="-11" type="curve" smooth="yes"/>
      <point x="350" y="-11"/>
      <point x="412" y="-9"/>
    </contour>
    <contour>
      <point x="907" y="430" type="curve" smooth="yes"/>
      <point x="907" y="0" type="line"/>
      <point x="959" y="-9"/>
      <point x="1021" y="-11"/>
      <point x="1063" y="-11" type="curve" smooth="yes"/>
      <point x="1107" y="-11"/>
      <point x="1161" y="-9"/>
      <point x="1213" y="0" type="curve"/>
      <point x="1213" y="1366" type="line"/>
      <point x="1165" y="1375"/>
      <point x="1098" y="1377"/>
      <point x="1060" y="1377" type="curve" smooth="yes"/>
      <point x="1019" y="1377"/>
      <point x="957" y="1375"/>
      <point x="907" y="1366" type="curve"/>
      <point x="907" y="978" type="line" smooth="yes"/>
      <point x="907" y="922"/>
      <point x="909" y="884"/>
      <point x="909" y="830" type="curve" smooth="yes"/>
      <point x="909" y="578" type="line" smooth="yes"/>
      <point x="909" y="524"/>
      <point x="907" y="486"/>
    </contour>
  </outline>
</glyph>
<glyph name="I" format="2">
  <advance width="627"/>
  <unicode hex="0049"/>
  <anchor x="313" y="0" name="bottom"/>
  <anchor x="467" y="0" name="ogonek"/>
  <anchor x="314" y="1466" name="top"/>
  <outline>
    <contour>
      <point x="161" y="1366" type="curve"/>
      <point x="161" y="0" type="line"/>
      <point x="209" y="-9"/>
      <point x="276" y="-11"/>
      <point x="313" y="-11" type="curve" smooth="yes"/>
      <point x="355" y="-11"/>
      <point x="416" y="-9"/>
      <point x="467" y="0" type="curve"/>
      <point x="467" y="1366" type="line"/>
      <point x="416" y="1375"/>
      <point x="355" y="1377"/>
      <point x="313" y="1377" type="curve" smooth="yes"/>
      <point x="276" y="1377"/>
      <point x="209" y="1375"/>
    </contour>
  </outline>
</glyph>
<glyph name="J" format="2">
  <advance width="935"/>
  <unicode hex="004A"/>
  <anchor x="648" y="1464" name="top"/>
  <outline>
    <contour>
      <point x="126" y="293" type="curve"/>
      <point x="70" y="231"/>
      <point x="32" y="145"/>
      <point x="20" y="67" type="curve"/>
      <point x="114" y="9"/>
      <point x="239" y="-20"/>
      <point x="344" y="-20" type="curve" smooth="yes"/>
      <point x="716" y="-20"/>
      <point x="801" y="209"/>
      <point x="801" y="520" type="curve" smooth="yes"/>
      <point x="801" y="1366" type="line"/>
      <point x="750" y="1375"/>
      <point x="689" y="1377"/>
      <point x="648" y="1377" type="curve" smooth="yes"/>
      <point x="610" y="1377"/>
      <point x="543" y="1375"/>
      <point x="495" y="1366" type="curve"/>
      <point x="495" y="490" type="line" smooth="yes"/>
      <point x="495" y="325"/>
      <point x="458" y="232"/>
      <point x="311" y="232" type="curve" smooth="yes"/>
      <point x="246" y="232"/>
      <point x="182" y="259"/>
    </contour>
  </outline>
</glyph>
<glyph name="K" format="2">
  <advance width="1234"/>
  <unicode hex="004B"/>
  <anchor x="653" y="0" name="bottom"/>
  <anchor x="646" y="1464" name="top"/>
  <outline>
    <contour>
      <point x="156" y="1366" type="curve"/>
      <point x="156" y="0" type="line"/>
      <point x="205" y="-9"/>
      <point x="271" y="-11"/>
      <point x="309" y="-11" type="curve" smooth="yes"/>
      <point x="350" y="-11"/>
      <point x="412" y="-9"/>
      <point x="462" y="0" type="curve"/>
      <point x="462" y="1366" type="line"/>
      <point x="412" y="1375"/>
      <point x="350" y="1377"/>
      <point x="309" y="1377" type="curve" smooth="yes"/>
      <point x="271" y="1377"/>
      <point x="205" y="1375"/>
    </contour>
    <contour>
      <point x="1219" y="75" type="curve"/>
      <point x="1174" y="116"/>
      <point x="1155" y="145"/>
      <point x="1117" y="257" type="curve" smooth="yes"/>
      <point x="1031" y="511" type="line" smooth="yes"/>
      <point x="985" y="648"/>
      <point x="920" y="751"/>
      <point x="697" y="751" type="curve" smooth="yes"/>
      <point x="307" y="751" type="line"/>
      <point x="307" y="563" type="line"/>
      <point x="410" y="573"/>
      <point x="499" y="579"/>
      <point x="556" y="579" type="curve" smooth="yes"/>
      <point x="654" y="579"/>
      <point x="707" y="530"/>
      <point x="750" y="401" type="curve" smooth="yes"/>
      <point x="829" y="158" type="line" smooth="yes"/>
      <point x="867" y="41"/>
      <point x="905" y="-17"/>
      <point x="1016" y="-17" type="curve" smooth="yes"/>
      <point x="1097" y="-17"/>
      <point x="1179" y="16"/>
    </contour>
    <contour>
      <point x="808" y="1269" type="curve" smooth="yes"/>
      <point x="609" y="900" type="line" smooth="yes"/>
      <point x="582" y="848"/>
      <point x="570" y="834"/>
      <point x="521" y="834" type="curve" smooth="yes"/>
      <point x="452" y="833"/>
      <point x="377" y="831"/>
      <point x="307" y="829" type="curve"/>
      <point x="307" y="657" type="line"/>
      <point x="549" y="657" type="line" smooth="yes"/>
      <point x="737" y="657"/>
      <point x="843" y="741"/>
      <point x="916" y="880" type="curve" smooth="yes"/>
      <point x="1167" y="1347" type="line"/>
      <point x="1150" y="1368" type="line"/>
      <point x="1090" y="1373"/>
      <point x="1017" y="1377"/>
      <point x="968" y="1377" type="curve" smooth="yes"/>
      <point x="878" y="1377"/>
      <point x="846" y="1342"/>
    </contour>
  </outline>
</glyph>
<glyph name="L" format="2">
  <advance width="1042"/>
  <unicode hex="004C"/>
  <anchor x="571" y="0" name="bottom"/>
  <anchor x="1042" y="786" name="periodcentered"/>
  <anchor x="305" y="1456" name="top"/>
  <anchor x="508" y="894" name="topright"/>
  <outline>
    <contour>
      <point x="460" y="-5" type="line"/>
      <point x="460" y="1185" type="line" smooth="yes"/>
      <point x="460" y="1321"/>
      <point x="398" y="1379"/>
      <point x="280" y="1379" type="curve" smooth="yes"/>
      <point x="168" y="1379" type="line"/>
      <point x="154" y="1365" type="line"/>
      <point x="154" y="174" type="line" smooth="yes"/>
      <point x="154" y="62"/>
      <point x="223" y="-5"/>
      <point x="331" y="-5" type="curve" smooth="yes"/>
    </contour>
    <contour>
      <point x="1000" y="258" type="curve"/>
      <point x="646" y="258" type="line" smooth="yes"/>
      <point x="509" y="258"/>
      <point x="336" y="245"/>
      <point x="168" y="216" type="curve"/>
      <point x="331" y="-5" type="line"/>
      <point x="793" y="-5" type="line" smooth="yes"/>
      <point x="943" y="-5"/>
      <point x="1000" y="63"/>
    </contour>
  </outline>
</glyph>
<glyph name="M" format="2">
  <advance width="1660"/>
  <unicode hex="004D"/>
  <anchor x="830" y="0" name="bottom"/>
  <anchor x="830" y="1464" name="top"/>
  <outline>
    <contour>
      <point x="221" y="1364" type="curve"/>
      <point x="115" y="4" type="line"/>
      <point x="158" y="-7"/>
      <point x="220" y="-11"/>
      <point x="269" y="-11" type="curve" smooth="yes"/>
      <point x="315" y="-11"/>
      <point x="359" y="-9"/>
      <point x="403" y="-2" type="curve"/>
      <point x="436" y="579" type="line" smooth="yes"/>
      <point x="443" y="716"/>
      <point x="451" y="903"/>
      <point x="452" y="1032" type="curve"/>
      <point x="465" y="1032" type="line"/>
      <point x="673" y="202" type="line"/>
      <point x="718" y="195"/>
      <point x="789" y="191"/>
      <point x="829" y="191" type="curve" smooth="yes"/>
      <point x="871" y="191"/>
      <point x="941" y="195"/>
      <point x="987" y="202" type="curve"/>
      <point x="1194" y="1032" type="line"/>
      <point x="1208" y="1032" type="line"/>
      <point x="1208" y="903"/>
      <point x="1216" y="716"/>
      <point x="1224" y="579" type="curve" smooth="yes"/>
      <point x="1257" y="-2" type="line"/>
      <point x="1300" y="-9"/>
      <point x="1344" y="-11"/>
      <point x="1390" y="-11" type="curve" smooth="yes"/>
      <point x="1439" y="-11"/>
      <point x="1501" y="-7"/>
      <point x="1545" y="4" type="curve"/>
      <point x="1439" y="1364" type="line"/>
      <point x="1374" y="1375"/>
      <point x="1288" y="1379"/>
      <point x="1233" y="1379" type="curve" smooth="yes"/>
      <point x="1178" y="1379"/>
      <point x="1105" y="1375"/>
      <point x="1040" y="1364" type="curve"/>
      <point x="912" y="856" type="line" smooth="yes"/>
      <point x="900" y="806"/>
      <point x="852" y="594"/>
      <point x="836" y="499" type="curve"/>
      <point x="823" y="499" type="line"/>
      <point x="807" y="594"/>
      <point x="760" y="806"/>
      <point x="748" y="856" type="curve" smooth="yes"/>
      <point x="620" y="1364" type="line"/>
      <point x="555" y="1375"/>
      <point x="482" y="1379"/>
      <point x="427" y="1379" type="curve" smooth="yes"/>
      <point x="371" y="1379"/>
      <point x="285" y="1375"/>
    </contour>
  </outline>
</glyph>
<glyph name="N" format="2">
  <advance width="1387"/>
  <unicode hex="004E"/>
  <anchor x="694" y="0" name="bottom"/>
  <anchor x="701" y="1464" name="top"/>
  <outline>
    <contour>
      <point x="156" y="1361" type="curve"/>
      <point x="156" y="0" type="line"/>
      <point x="204" y="-9"/>
      <point x="265" y="-11"/>
      <point x="301" y="-11" type="curve" smooth="yes"/>
      <point x="340" y="-11"/>
      <point x="391" y="-9"/>
      <point x="440" y="0" type="curve"/>
      <point x="440" y="429" type="line" smooth="yes"/>
      <point x="440" y="593"/>
      <point x="431" y="846"/>
      <point x="416" y="1012" type="curve"/>
      <point x="437" y="1018" type="line"/>
      <point x="514" y="1366" type="line"/>
      <point x="448" y="1375"/>
      <point x="377" y="1377"/>
      <point x="337" y="1377" type="curve" smooth="yes"/>
      <point x="297" y="1377"/>
      <point x="204" y="1372"/>
    </contour>
    <contour>
      <point x="538" y="733" type="curve" smooth="yes"/>
      <point x="869" y="0" type="line"/>
      <point x="1119" y="166" type="line"/>
      <point x="965" y="333" type="line"/>
      <point x="934" y="408"/>
      <point x="889" y="519"/>
      <point x="838" y="635" type="curve" smooth="yes"/>
      <point x="514" y="1366" type="line"/>
      <point x="283" y="1179" type="line"/>
      <point x="424" y="1015" type="line"/>
      <point x="453" y="937"/>
      <point x="493" y="835"/>
    </contour>
    <contour>
      <point x="1231" y="1365" type="line"/>
      <point x="1217" y="1379" type="line"/>
      <point x="1119" y="1379" type="line" smooth="yes"/>
      <point x="1001" y="1379"/>
      <point x="949" y="1330"/>
      <point x="949" y="1194" type="curve" smooth="yes"/>
      <point x="949" y="914" type="line" smooth="yes"/>
      <point x="949" y="776"/>
      <point x="956" y="519"/>
      <point x="972" y="337" type="curve"/>
      <point x="950" y="330" type="line"/>
      <point x="869" y="0" type="line"/>
      <point x="935" y="-9"/>
      <point x="1006" y="-11"/>
      <point x="1047" y="-11" type="curve" smooth="yes"/>
      <point x="1088" y="-11"/>
      <point x="1182" y="-6"/>
      <point x="1231" y="5" type="curve"/>
    </contour>
  </outline>
</glyph>
<glyph name="O" format="2">
  <advance width="1331"/>
  <unicode hex="004F"/>
  <anchor x="665" y="0" name="bottom"/>
  <anchor x="871" y="1" name="ogonek"/>
  <anchor x="665" y="1464" name="top"/>
  <anchor x="1094" y="1338" name="topright"/>
  <outline>
    <contour>
      <point x="394" y="684" type="curve" smooth="yes"/>
      <point x="394" y="899"/>
      <point x="428" y="1160"/>
      <point x="665" y="1160" type="curve" smooth="yes"/>
      <point x="903" y="1160"/>
      <point x="936" y="899"/>
      <point x="936" y="684" type="curve" smooth="yes"/>
      <point x="936" y="469"/>
      <point x="903" y="206"/>
      <point x="665" y="206" type="curve" smooth="yes"/>
      <point x="428" y="206"/>
      <point x="394" y="469"/>
    </contour>
    <contour>
      <point x="76" y="684" type="curve" smooth="yes"/>
      <point x="76" y="262"/>
      <point x="262" y="-29"/>
      <point x="665" y="-29" type="curve" smooth="yes"/>
      <point x="1066" y="-29"/>
      <point x="1255" y="258"/>
      <point x="1255" y="684" type="curve" smooth="yes"/>
      <point x="1255" y="1105"/>
      <point x="1069" y="1395"/>
      <point x="665" y="1395" type="curve" smooth="yes"/>
      <point x="265" y="1395"/>
      <point x="76" y="1109"/>
    </contour>
  </outline>
</glyph>
<glyph name="P" format="2">
  <advance width="1172"/>
  <unicode hex="0050"/>
  <anchor x="598" y="1464" name="top"/>
  <outline>
    <contour>
      <point x="1112" y="906" type="curve" smooth="yes"/>
      <point x="1112" y="1226"/>
      <point x="908" y="1377"/>
      <point x="627" y="1377" type="curve" smooth="yes"/>
      <point x="477" y="1377"/>
      <point x="338" y="1373"/>
      <point x="170" y="1369" type="curve"/>
      <point x="156" y="1356" type="line"/>
      <point x="156" y="0" type="line"/>
      <point x="205" y="-9"/>
      <point x="271" y="-11"/>
      <point x="309" y="-11" type="curve" smooth="yes"/>
      <point x="350" y="-11"/>
      <point x="412" y="-9"/>
      <point x="462" y="0" type="curve"/>
      <point x="462" y="1144" type="line"/>
      <point x="517" y="1142"/>
      <point x="560" y="1142"/>
      <point x="603" y="1142" type="curve" smooth="yes"/>
      <point x="768" y="1142"/>
      <point x="800" y="1003"/>
      <point x="800" y="906" type="curve" smooth="yes"/>
      <point x="800" y="807"/>
      <point x="768" y="669"/>
      <point x="603" y="669" type="curve" smooth="yes"/>
      <point x="560" y="669"/>
      <point x="388" y="664"/>
      <point x="333" y="660" type="curve"/>
      <point x="333" y="435" type="line"/>
      <point x="627" y="435" type="line" smooth="yes"/>
      <point x="909" y="435"/>
      <point x="1112" y="595"/>
    </contour>
  </outline>
</glyph>
<glyph name="Q" format="2">
  <advance width="1334"/>
  <unicode hex="0051"/>
  <outline>
    <contour>
      <point x="389" y="684" type="curve" smooth="yes"/>
      <point x="389" y="901"/>
      <point x="428" y="1160"/>
      <point x="667" y="1160" type="curve" smooth="yes"/>
      <point x="906" y="1160"/>
      <point x="943" y="901"/>
      <point x="943" y="684" type="curve" smooth="yes"/>
      <point x="943" y="469"/>
      <point x="906" y="207"/>
      <point x="667" y="207" type="curve" smooth="yes"/>
      <point x="428" y="207"/>
      <point x="389" y="469"/>
    </contour>
    <contour>
      <point x="76" y="684" type="curve" smooth="yes"/>
      <point x="76" y="268"/>
      <point x="261" y="-29"/>
      <point x="667" y="-29" type="curve" smooth="yes"/>
      <point x="735" y="-29"/>
      <point x="788" y="2"/>
      <point x="835" y="38" type="curve" smooth="yes"/>
      <point x="1133" y="40"/>
      <point x="1258" y="351"/>
      <point x="1258" y="682" type="curve" smooth="yes"/>
      <point x="1258" y="1100"/>
      <point x="1074" y="1395"/>
      <point x="667" y="1395" type="curve" smooth="yes"/>
      <point x="262" y="1395"/>
      <point x="76" y="1103"/>
    </contour>
    <contour>
      <point x="561" y="65" type="line"/>
      <point x="876" y="-208" type="line" smooth="yes"/>
      <point x="929" y="-254"/>
      <point x="991" y="-285"/>
      <point x="1081" y="-285" type="curve" smooth="yes"/>
      <point x="1183" y="-285"/>
      <point x="1272" y="-203"/>
      <point x="1275" y="-67" type="curve"/>
      <point x="1194" y="-67"/>
      <point x="1130" y="-47"/>
      <point x="1022" y="30" type="curve" smooth="yes"/>
      <point x="841" y="159" type="line"/>
    </contour>
  </outline>
</glyph>
<glyph name="R" format="2">
  <advance width="1226"/>
  <unicode hex="0052"/>
  <anchor x="646" y="0" name="bottom"/>
  <anchor x="603" y="1464" name="top"/>
  <outline>
    <contour>
      <point x="1125" y="946" type="curve" smooth="yes"/>
      <point x="1125" y="1244"/>
      <point x="920" y="1377"/>
      <point x="642" y="1377" type="curve" smooth="yes"/>
      <point x="493" y="1377"/>
      <point x="338" y="1373"/>
      <point x="170" y="1369" type="curve"/>
      <point x="156" y="1356" type="line"/>
      <point x="156" y="0" type="line"/>
      <point x="205" y="-9"/>
      <point x="269" y="-11"/>
      <point x="307" y="-11" type="curve" smooth="yes"/>
      <point x="349" y="-11"/>
      <point x="408" y="-9"/>
      <point x="459" y="0" type="curve"/>
      <point x="459" y="1147" type="line"/>
      <point x="517" y="1145"/>
      <point x="574" y="1145"/>
      <point x="617" y="1145" type="curve" smooth="yes"/>
      <point x="775" y="1145"/>
      <point x="813" y="1053"/>
      <point x="813" y="946" type="curve" smooth="yes"/>
      <point x="813" y="843"/>
      <point x="775" y="746"/>
      <point x="617" y="746" type="curve" smooth="yes"/>
      <point x="569" y="746"/>
      <point x="413" y="741"/>
      <point x="335" y="737" type="curve"/>
      <point x="335" y="508" type="line"/>
      <point x="553" y="508" type="line" smooth="yes"/>
      <point x="662" y="508"/>
      <point x="702" y="449"/>
      <point x="726" y="377" type="curve" smooth="yes"/>
      <point x="802" y="160" type="line" smooth="yes"/>
      <point x="843" y="42"/>
      <point x="880" y="-17"/>
      <point x="991" y="-17" type="curve" smooth="yes"/>
      <point x="1071" y="-17"/>
      <point x="1155" y="21"/>
      <point x="1193" y="73" type="curve"/>
      <point x="1151" y="106"/>
      <point x="1119" y="155"/>
      <point x="1096" y="220" type="curve" smooth="yes"/>
      <point x="1032" y="398" type="line" smooth="yes"/>
      <point x="1001" y="485"/>
      <point x="953" y="554"/>
      <point x="879" y="580" type="curve"/>
      <point x="998" y="625"/>
      <point x="1125" y="754"/>
    </contour>
  </outline>
</glyph>
<glyph name="S" format="2">
  <advance width="1113"/>
  <unicode hex="0053"/>
  <anchor x="551" y="0" name="bottom"/>
  <anchor x="565" y="1464" name="top"/>
  <outline>
    <contour>
      <point x="34" y="119" type="curve"/>
      <point x="180" y="24"/>
      <point x="374" y="-29"/>
      <point x="537" y="-29" type="curve" smooth="yes"/>
      <point x="884" y="-29"/>
      <point x="1057" y="155"/>
      <point x="1057" y="395" type="curve" smooth="yes"/>
      <point x="1057" y="569"/>
      <point x="946" y="709"/>
      <point x="756" y="787" type="curve" smooth="yes"/>
      <point x="511" y="889" type="line" smooth="yes"/>
      <point x="422" y="926"/>
      <point x="387" y="966"/>
      <point x="387" y="1022" type="curve" smooth="yes"/>
      <point x="387" y="1083"/>
      <point x="438" y="1150"/>
      <point x="557" y="1150" type="curve" smooth="yes"/>
      <point x="664" y="1150"/>
      <point x="813" y="1102"/>
      <point x="916" y="1053" type="curve"/>
      <point x="975" y="1108"/>
      <point x="1014" y="1195"/>
      <point x="1020" y="1282" type="curve"/>
      <point x="916" y="1336"/>
      <point x="742" y="1395"/>
      <point x="556" y="1395" type="curve" smooth="yes"/>
      <point x="285" y="1395"/>
      <point x="74" y="1227"/>
      <point x="74" y="982" type="curve" smooth="yes"/>
      <point x="74" y="793"/>
      <point x="193" y="685"/>
      <point x="359" y="616" type="curve" smooth="yes"/>
      <point x="600" y="515" type="line" smooth="yes"/>
      <point x="713" y="468"/>
      <point x="734" y="407"/>
      <point x="734" y="357" type="curve" smooth="yes"/>
      <point x="734" y="286"/>
      <point x="681" y="217"/>
      <point x="558" y="217" type="curve" smooth="yes"/>
      <point x="416" y="217"/>
      <point x="266" y="280"/>
      <point x="153" y="348" type="curve"/>
      <point x="94" y="297"/>
      <point x="42" y="205"/>
    </contour>
  </outline>
</glyph>
<glyph name="T" format="2">
  <advance width="1014"/>
  <unicode hex="0054"/>
  <anchor x="509" y="0" name="bottom"/>
  <anchor x="509" y="1464" name="top"/>
  <outline>
    <contour>
      <point x="21" y="1112" type="curve"/>
      <point x="231" y="1112" type="line" smooth="yes"/>
      <point x="261" y="1112"/>
      <point x="327" y="1114"/>
      <point x="356" y="1114" type="curve" smooth="yes"/>
      <point x="662" y="1114" type="line" smooth="yes"/>
      <point x="691" y="1114"/>
      <point x="758" y="1112"/>
      <point x="787" y="1112" type="curve" smooth="yes"/>
      <point x="855" y="1112" type="line" smooth="yes"/>
      <point x="966" y="1112"/>
      <point x="1016" y="1149"/>
      <point x="1016" y="1249" type="curve" smooth="yes"/>
      <point x="1016" y="1287"/>
      <point x="1010" y="1335"/>
      <point x="1001" y="1366" type="curve"/>
      <point x="21" y="1366" type="line"/>
      <point x="11" y="1320"/>
      <point x="9" y="1273"/>
      <point x="9" y="1238" type="curve" smooth="yes"/>
      <point x="9" y="1203"/>
      <point x="11" y="1157"/>
    </contour>
    <contour>
      <point x="356" y="966" type="curve" smooth="yes"/>
      <point x="356" y="0" type="line"/>
      <point x="408" y="-9"/>
      <point x="467" y="-11"/>
      <point x="509" y="-11" type="curve" smooth="yes"/>
      <point x="552" y="-11"/>
      <point x="610" y="-9"/>
      <point x="662" y="0" type="curve"/>
      <point x="662" y="966" type="line" smooth="yes"/>
      <point x="662" y="1020"/>
      <point x="660" y="1058"/>
      <point x="660" y="1114" type="curve" smooth="yes"/>
      <point x="660" y="1240" type="line"/>
      <point x="358" y="1240" type="line"/>
      <point x="358" y="1114" type="line" smooth="yes"/>
      <point x="358" y="1058"/>
      <point x="356" y="1020"/>
    </contour>
  </outline>
</glyph>
<glyph name="V" format="2">
  <advance width="1204"/>
  <unicode hex="0056"/>
  <anchor x="600" y="0" name="bottom"/>
  <anchor x="607" y="1464" name="top"/>
  <outline>
    <contour>
      <point x="900" y="1366" type="curve"/>
      <point x="629" y="257" type="line"/>
      <point x="617" y="257"/>
      <point x="612" y="260"/>
      <point x="608" y="281" type="curve" smooth="yes"/>
      <point x="588" y="396"/>
      <point x="561" y="527"/>
      <point x="530" y="642" type="curve" smooth="yes"/>
      <point x="369" y="1232" type="line" smooth="yes"/>
      <point x="342" y="1337"/>
      <point x="295" y="1383"/>
      <point x="205" y="1383" type="curve" smooth="yes"/>
      <point x="138" y="1383"/>
      <point x="76" y="1363"/>
      <point x="21" y="1339" type="curve"/>
      <point x="358" y="127" type="line" smooth="yes"/>
      <point x="389" y="18"/>
      <point x="450" y="-11"/>
      <point x="565" y="-11" type="curve" smooth="yes"/>
      <point x="643" y="-11"/>
      <point x="736" y="-8"/>
      <point x="807" y="0" type="curve"/>
      <point x="1185" y="1340" type="line"/>
      <point x="1173" y="1357" type="line"/>
      <point x="1131" y="1371"/>
      <point x="1070" y="1377"/>
      <point x="1032" y="1377" type="curve" smooth="yes"/>
      <point x="991" y="1377"/>
      <point x="944" y="1377"/>
    </contour>
  </outline>
</glyph>
<glyph name="W" format="2">
  <advance width="1792"/>
  <unicode hex="0057"/>
  <anchor x="898" y="0" name="bottom"/>
  <anchor x="898" y="1464" name="top"/>
  <outline>
    <contour>
      <point x="34" y="1348" type="curve"/>
      <point x="273" y="128" type="line" smooth="yes"/>
      <point x="297" y="4"/>
      <point x="369" y="-11"/>
      <point x="467" y="-11" type="curve" smooth="yes"/>
      <point x="550" y="-11"/>
      <point x="650" y="-6"/>
      <point x="723" y="2" type="curve"/>
      <point x="819" y="574" type="line" smooth="yes"/>
      <point x="845" y="729"/>
      <point x="871" y="910"/>
      <point x="887" y="1042" type="curve"/>
      <point x="902" y="1042" type="line"/>
      <point x="915" y="910"/>
      <point x="939" y="727"/>
      <point x="963" y="574" type="curve" smooth="yes"/>
      <point x="1035" y="127" type="line" smooth="yes"/>
      <point x="1053" y="4"/>
      <point x="1130" y="-11"/>
      <point x="1221" y="-11" type="curve" smooth="yes"/>
      <point x="1301" y="-11"/>
      <point x="1412" y="-6"/>
      <point x="1482" y="2" type="curve"/>
      <point x="1750" y="1339" type="line"/>
      <point x="1735" y="1357" type="line"/>
      <point x="1694" y="1370"/>
      <point x="1638" y="1377"/>
      <point x="1591" y="1377" type="curve" smooth="yes"/>
      <point x="1549" y="1377"/>
      <point x="1499" y="1375"/>
      <point x="1454" y="1366" type="curve"/>
      <point x="1335" y="680" type="line" smooth="yes"/>
      <point x="1312" y="549"/>
      <point x="1285" y="366"/>
      <point x="1274" y="255" type="curve"/>
      <point x="1262" y="255"/>
      <point x="1257" y="255"/>
      <point x="1253" y="281" type="curve" smooth="yes"/>
      <point x="1093" y="1339" type="line"/>
      <point x="1036" y="1350"/>
      <point x="960" y="1354"/>
      <point x="898" y="1354" type="curve" smooth="yes"/>
      <point x="839" y="1354"/>
      <point x="763" y="1350"/>
      <point x="703" y="1339" type="curve"/>
      <point x="530" y="255" type="line"/>
      <point x="517" y="255"/>
      <point x="513" y="256"/>
      <point x="511" y="281" type="curve" smooth="yes"/>
      <point x="501" y="377"/>
      <point x="475" y="550"/>
      <point x="454" y="677" type="curve" smooth="yes"/>
      <point x="364" y="1216" type="line" smooth="yes"/>
      <point x="344" y="1346"/>
      <point x="302" y="1383"/>
      <point x="196" y="1383" type="curve" smooth="yes"/>
      <point x="141" y="1383"/>
      <point x="80" y="1368"/>
    </contour>
  </outline>
</glyph>
<glyph name="X" format="2">
  <advance width="1224"/>
  <unicode hex="0058"/>
  <anchor x="609" y="1464" name="top"/>
  <outline>
    <contour>
      <point x="54" y="1319" type="curve"/>
      <point x="809" y="102" type="line"/>
      <point x="868" y="11"/>
      <point x="920" y="-19"/>
      <point x="1005" y="-19" type="curve" smooth="yes"/>
      <point x="1069" y="-19"/>
      <point x="1144" y="6"/>
      <point x="1205" y="47" type="curve"/>
      <point x="446" y="1266" type="line" smooth="yes"/>
      <point x="389" y="1355"/>
      <point x="339" y="1385"/>
      <point x="253" y="1385" type="curve" smooth="yes"/>
      <point x="189" y="1385"/>
      <point x="114" y="1360"/>
    </contour>
    <contour>
      <point x="869" y="1366" type="curve"/>
      <point x="610" y="928" type="line"/>
      <point x="486" y="790" type="line"/>
      <point x="19" y="31" type="line"/>
      <point x="27" y="14" type="line"/>
      <point x="70" y="0"/>
      <point x="132" y="-11"/>
      <point x="190" y="-11" type="curve" smooth="yes"/>
      <point x="242" y="-11"/>
      <point x="287" y="-7"/>
      <point x="318" y="0" type="curve"/>
      <point x="615" y="499" type="line"/>
      <point x="739" y="639" type="line"/>
      <point x="1164" y="1336" type="line"/>
      <point x="1156" y="1352" type="line"/>
      <point x="1117" y="1366"/>
      <point x="1055" y="1377"/>
      <point x="996" y="1377" type="curve" smooth="yes"/>
      <point x="944" y="1377"/>
      <point x="901" y="1373"/>
    </contour>
  </outline>
</glyph>
<glyph name="Y" format="2">
  <advance width="1074"/>
  <unicode hex="0059"/>
  <anchor x="539" y="0" name="bottom"/>
  <anchor x="543" y="1464" name="top"/>
  <outline>
    <contour>
      <point x="384" y="605" type="line"/>
      <point x="384" y="0" type="line"/>
      <point x="433" y="-9"/>
      <point x="501" y="-11"/>
      <point x="539" y="-11" type="curve" smooth="yes"/>
      <point x="580" y="-11"/>
      <point x="640" y="-9"/>
      <point x="690" y="0" type="curve"/>
      <point x="690" y="605" type="line"/>
    </contour>
    <contour>
      <point x="790" y="1366" type="curve"/>
      <point x="648" y="1011" type="line" smooth="yes"/>
      <point x="614" y="924"/>
      <point x="576" y="817"/>
      <point x="551" y="719" type="curve"/>
      <point x="540" y="719" type="line"/>
      <point x="513" y="823"/>
      <point x="482" y="918"/>
      <point x="450" y="1001" type="curve" smooth="yes"/>
      <point x="346" y="1259" type="line" smooth="yes"/>
      <point x="311" y="1346"/>
      <point x="271" y="1382"/>
      <point x="185" y="1382" type="curve" smooth="yes"/>
      <point x="121" y="1382"/>
      <point x="52" y="1361"/>
      <point x="-2" y="1330" type="curve"/>
      <point x="404" y="384" type="line"/>
      <point x="674" y="384" type="line"/>
      <point x="1076" y="1339" type="line"/>
      <point x="1064" y="1356" type="line"/>
      <point x="1023" y="1370"/>
      <point x="966" y="1377"/>
      <point x="914" y="1377" type="curve" smooth="yes"/>
      <point x="874" y="1377"/>
      <point x="832" y="1375"/>
    </contour>
  </outline>
</glyph>
<glyph name="Z" format="2">
  <advance width="1154"/>
  <unicode hex="005A"/>
  <anchor x="569" y="0" name="bottom"/>
  <anchor x="575" y="1464" name="top"/>
  <outline>
    <contour>
      <point x="568" y="930" type="curve" smooth="yes"/>
      <point x="115" y="298" type="line" smooth="yes"/>
      <point x="90" y="264"/>
      <point x="78" y="221"/>
      <point x="78" y="184" type="curve" smooth="yes"/>
      <point x="78" y="158"/>
      <point x="81" y="134"/>
      <point x="111" y="0" type="curve"/>
      <point x="876" y="0" type="line" smooth="yes"/>
      <point x="995" y="0"/>
      <point x="1077" y="53"/>
      <point x="1077" y="162" type="curve" smooth="yes"/>
      <point x="1077" y="210"/>
      <point x="1067" y="263"/>
      <point x="1056" y="300" type="curve"/>
      <point x="1002" y="275"/>
      <point x="927" y="255"/>
      <point x="829" y="255" type="curve" smooth="yes"/>
      <point x="704" y="255" type="line" smooth="yes"/>
      <point x="622" y="255"/>
      <point x="498" y="248"/>
      <point x="412" y="241" type="curve"/>
      <point x="406" y="247" type="line"/>
      <point x="458" y="303"/>
      <point x="523" y="384"/>
      <point x="563" y="439" type="curve" smooth="yes"/>
      <point x="1016" y="1070" type="line" smooth="yes"/>
      <point x="1042" y="1108"/>
      <point x="1050" y="1143"/>
      <point x="1050" y="1178" type="curve" smooth="yes"/>
      <point x="1050" y="1201"/>
      <point x="1048" y="1223"/>
      <point x="1008" y="1366" type="curve"/>
      <point x="131" y="1366" type="line"/>
      <point x="118" y="1315"/>
      <point x="111" y="1272"/>
      <point x="111" y="1219" type="curve" smooth="yes"/>
      <point x="111" y="1186"/>
      <point x="113" y="1153"/>
      <point x="122" y="1117" type="curve"/>
      <point x="414" y="1117" type="line" smooth="yes"/>
      <point x="492" y="1117"/>
      <point x="633" y="1122"/>
      <point x="723" y="1134" type="curve"/>
      <point x="729" y="1128" type="line"/>
      <point x="677" y="1071"/>
      <point x="607" y="984"/>
    </contour>
  </outline>
</glyph>
<glyph name="bracketleft" format="2">
  <advance width="775"/>
  <unicode hex="005B"/>
  <outline>
    <contour>
      <point x="197" y="1537" type="line"/>
      <point x="197" y="-408" type="line"/>
      <point x="487" y="-333" type="line"/>
      <point x="487" y="1437" type="line"/>
    </contour>
    <contour>
      <point x="214" y="-424" type="line"/>
      <point x="700" y="-406" type="line"/>
      <point x="707" y="-387"/>
      <point x="710" y="-346"/>
      <point x="710" y="-324" type="curve" smooth="yes"/>
      <point x="710" y="-277"/>
      <point x="698" y="-225"/>
      <point x="688" y="-202" type="curve"/>
      <point x="220" y="-189" type="line"/>
      <point x="197" y="-408" type="line"/>
    </contour>
    <contour>
      <point x="700" y="1535" type="curve"/>
      <point x="214" y="1553" type="line"/>
      <point x="197" y="1537" type="line"/>
      <point x="220" y="1318" type="line"/>
      <point x="688" y="1331" type="line"/>
      <point x="698" y="1354"/>
      <point x="710" y="1406"/>
      <point x="710" y="1453" type="curve" smooth="yes"/>
      <point x="710" y="1475"/>
      <point x="707" y="1516"/>
    </contour>
  </outline>
</glyph>
<glyph name="backslash" format="2">
  <advance width="894"/>
  <unicode hex="005C"/>
  <outline>
    <contour>
      <point x="637" y="-337" type="curve"/>
      <point x="8" y="1338" type="line"/>
      <point x="81" y="1394"/>
      <point x="174" y="1424"/>
      <point x="262" y="1434" type="curve"/>
      <point x="891" y="-240" type="line"/>
      <point x="818" y="-297"/>
      <point x="724" y="-327"/>
    </contour>
  </outline>
</glyph>
<glyph name="bracketright" format="2">
  <advance width="775"/>
  <unicode hex="005D"/>
  <outline>
    <contour>
      <point x="579" y="1537" type="line"/>
      <point x="579" y="-408" type="line"/>
      <point x="288" y="-333" type="line"/>
      <point x="288" y="1437" type="line"/>
    </contour>
    <contour>
      <point x="562" y="-424" type="line"/>
      <point x="76" y="-406" type="line"/>
      <point x="68" y="-387"/>
      <point x="65" y="-346"/>
      <point x="65" y="-324" type="curve" smooth="yes"/>
      <point x="65" y="-277"/>
      <point x="78" y="-225"/>
      <point x="87" y="-202" type="curve"/>
      <point x="555" y="-189" type="line"/>
      <point x="579" y="-408" type="line"/>
    </contour>
    <contour>
      <point x="76" y="1535" type="curve"/>
      <point x="562" y="1553" type="line"/>
      <point x="579" y="1537" type="line"/>
      <point x="555" y="1318" type="line"/>
      <point x="87" y="1331" type="line"/>
      <point x="78" y="1354"/>
      <point x="65" y="1406"/>
      <point x="65" y="1453" type="curve" smooth="yes"/>
      <point x="65" y="1475"/>
      <point x="68" y="1516"/>
    </contour>
  </outline>
</glyph>
<glyph name="asciicircum" format="2">
  <advance width="1060"/>
  <unicode hex="005E"/>
  <outline>
    <contour>
      <point x="999" y="612" type="curve"/>
      <point x="689" y="1296" type="line"/>
      <point x="655" y="1305"/>
      <point x="594" y="1309"/>
      <point x="533" y="1309" type="curve" smooth="yes"/>
      <point x="469" y="1309"/>
      <point x="405" y="1304"/>
      <point x="371" y="1296" type="curve"/>
      <point x="61" y="612" type="line"/>
      <point x="98" y="604"/>
      <point x="153" y="599"/>
      <point x="207" y="599" type="curve" smooth="yes"/>
      <point x="258" y="599"/>
      <point x="309" y="603"/>
      <point x="345" y="612" type="curve"/>
      <point x="450" y="866" type="line" smooth="yes"/>
      <point x="467" y="909"/>
      <point x="507" y="1029"/>
      <point x="522" y="1073" type="curve"/>
      <point x="538" y="1073" type="line"/>
      <point x="553" y="1029"/>
      <point x="593" y="909"/>
      <point x="610" y="866" type="curve" smooth="yes"/>
      <point x="715" y="612" type="line"/>
      <point x="751" y="603"/>
      <point x="802" y="599"/>
      <point x="853" y="599" type="curve" smooth="yes"/>
      <point x="907" y="599"/>
      <point x="962" y="604"/>
    </contour>
  </outline>
</glyph>
<glyph name="underscore" format="2">
  <advance width="1120"/>
  <unicode hex="005F"/>
  <outline>
    <contour>
      <point x="-2" y="-348" type="curve"/>
      <point x="1122" y="-348" type="line"/>
      <point x="1131" y="-310"/>
      <point x="1135" y="-279"/>
      <point x="1135" y="-236" type="curve"/>
      <point x="1135" y="-193"/>
      <point x="1131" y="-163"/>
      <point x="1122" y="-124" type="curve"/>
      <point x="-2" y="-124" type="line"/>
      <point x="-12" y="-163"/>
      <point x="-14" y="-215"/>
      <point x="-14" y="-236" type="curve" smooth="yes"/>
      <point x="-14" y="-260"/>
      <point x="-12" y="-310"/>
    </contour>
  </outline>
</glyph>
<glyph name="a" format="2">
  <advance width="1025"/>
  <unicode hex="0061"/>
  <anchor x="509" y="0" name="bottom"/>
  <anchor x="868" y="-16" name="ogonek"/>
  <anchor x="499" y="1084" name="top"/>
  <outline>
    <contour>
      <point x="64" y="273" type="curve" smooth="yes"/>
      <point x="64" y="129"/>
      <point x="161" y="-29"/>
      <point x="367" y="-29" type="curve" smooth="yes"/>
      <point x="545" y="-29"/>
      <point x="652" y="75"/>
      <point x="730" y="166" type="curve"/>
      <point x="688" y="359" type="line"/>
      <point x="629" y="254"/>
      <point x="535" y="192"/>
      <point x="452" y="192" type="curve" smooth="yes"/>
      <point x="391" y="192"/>
      <point x="354" y="235"/>
      <point x="354" y="293" type="curve" smooth="yes"/>
      <point x="354" y="372"/>
      <point x="395" y="426"/>
      <point x="488" y="426" type="curve" smooth="yes"/>
      <point x="545" y="426"/>
      <point x="638" y="425"/>
      <point x="698" y="412" type="curve"/>
      <point x="698" y="602" type="line"/>
      <point x="624" y="617"/>
      <point x="520" y="618"/>
      <point x="458" y="618" type="curve" smooth="yes"/>
      <point x="251" y="618"/>
      <point x="64" y="511"/>
    </contour>
    <contour>
      <point x="961" y="137" type="curve"/>
      <point x="921" y="167"/>
      <point x="905" y="212"/>
      <point x="905" y="273" type="curve" smooth="yes"/>
      <point x="905" y="680" type="line" smooth="yes"/>
      <point x="905" y="929"/>
      <point x="731" y="1020"/>
      <point x="553" y="1020" type="curve" smooth="yes"/>
      <point x="423" y="1020"/>
      <point x="233" y="985"/>
      <point x="101" y="931" type="curve"/>
      <point x="107" y="858"/>
      <point x="132" y="772"/>
      <point x="175" y="724" type="curve"/>
      <point x="279" y="756"/>
      <point x="384" y="789"/>
      <point x="472" y="789" type="curve" smooth="yes"/>
      <point x="564" y="789"/>
      <point x="608" y="745"/>
      <point x="608" y="655" type="curve" smooth="yes"/>
      <point x="608" y="225" type="line"/>
      <point x="624" y="119"/>
      <point x="698" y="-10"/>
      <point x="868" y="-16" type="curve"/>
      <point x="907" y="13"/>
      <point x="949" y="84"/>
    </contour>
  </outline>
</glyph>
<glyph name="b" format="2">
  <advance width="1068"/>
  <unicode hex="0062"/>
  <anchor x="522" y="0" name="bottom"/>
  <anchor x="563" y="1520" name="top"/>
  <outline>
    <contour>
      <point x="415" y="50" type="line"/>
      <point x="415" y="1291" type="line" smooth="yes"/>
      <point x="415" y="1424"/>
      <point x="368" y="1472"/>
      <point x="250" y="1472" type="curve" smooth="yes"/>
      <point x="138" y="1472" type="line"/>
      <point x="124" y="1458" type="line"/>
      <point x="124" y="50" type="line"/>
    </contour>
    <contour>
      <point x="1004" y="512" type="curve" smooth="yes"/>
      <point x="1004" y="804"/>
      <point x="887" y="1016"/>
      <point x="651" y="1016" type="curve" smooth="yes"/>
      <point x="508" y="1016"/>
      <point x="407" y="950"/>
      <point x="329" y="871" type="curve"/>
      <point x="371" y="644" type="line"/>
      <point x="421" y="736"/>
      <point x="500" y="778"/>
      <point x="564" y="776" type="curve" smooth="yes"/>
      <point x="652" y="775"/>
      <point x="699" y="695"/>
      <point x="699" y="507" type="curve" smooth="yes"/>
      <point x="699" y="313"/>
      <point x="642" y="197"/>
      <point x="517" y="197" type="curve" smooth="yes"/>
      <point x="424" y="197"/>
      <point x="342" y="222"/>
      <point x="265" y="270" type="curve"/>
      <point x="124" y="50" type="line"/>
      <point x="232" y="8"/>
      <point x="369" y="-17"/>
      <point x="513" y="-17" type="curve" smooth="yes"/>
      <point x="810" y="-17"/>
      <point x="1006" y="183"/>
    </contour>
  </outline>
</glyph>
<glyph name="c" format="2">
  <advance width="948"/>
  <unicode hex="0063"/>
  <anchor x="501" y="0" name="bottom"/>
  <anchor x="504" y="1084" name="top"/>
  <outline>
    <contour>
      <point x="627" y="562" type="curve"/>
      <point x="664" y="555"/>
      <point x="697" y="551"/>
      <point x="747" y="551" type="curve" smooth="yes"/>
      <point x="833" y="551"/>
      <point x="894" y="598"/>
      <point x="894" y="698" type="curve" smooth="yes"/>
      <point x="894" y="888"/>
      <point x="735" y="1026"/>
      <point x="508" y="1026" type="curve" smooth="yes"/>
      <point x="290" y="1026"/>
      <point x="64" y="881"/>
      <point x="64" y="495" type="curve" smooth="yes"/>
      <point x="64" y="182"/>
      <point x="213" y="-29"/>
      <point x="501" y="-29" type="curve" smooth="yes"/>
      <point x="647" y="-29"/>
      <point x="797" y="31"/>
      <point x="885" y="123" type="curve"/>
      <point x="872" y="183"/>
      <point x="820" y="263"/>
      <point x="772" y="291" type="curve"/>
      <point x="708" y="245"/>
      <point x="629" y="204"/>
      <point x="549" y="204" type="curve" smooth="yes"/>
      <point x="431" y="204"/>
      <point x="368" y="280"/>
      <point x="368" y="495" type="curve" smooth="yes"/>
      <point x="368" y="710"/>
      <point x="405" y="804"/>
      <point x="502" y="804" type="curve" smooth="yes"/>
      <point x="612" y="804"/>
      <point x="628" y="713"/>
    </contour>
  </outline>
</glyph>
<glyph name="d" format="2">
  <advance width="1075"/>
  <unicode hex="0064"/>
  <guideline x="545" y="-1" angle="90.0"/>
  <anchor x="563" y="0" name="bottom"/>
  <anchor x="507" y="1520" name="top"/>
  <anchor x="947" y="997" name="topright"/>
  <outline>
    <contour>
      <point x="947" y="288" type="curve" smooth="yes"/>
      <point x="947" y="1291" type="line" smooth="yes"/>
      <point x="947" y="1424"/>
      <point x="903" y="1472"/>
      <point x="785" y="1472" type="curve" smooth="yes"/>
      <point x="670" y="1472" type="line"/>
      <point x="656" y="1458" type="line"/>
      <point x="656" y="280" type="line" smooth="yes"/>
      <point x="656" y="119"/>
      <point x="741" y="-9"/>
      <point x="910" y="-16" type="curve"/>
      <point x="948" y="13"/>
      <point x="991" y="84"/>
      <point x="1003" y="137" type="curve"/>
      <point x="968" y="163"/>
      <point x="947" y="222"/>
    </contour>
    <contour>
      <point x="67" y="486" type="curve" smooth="yes"/>
      <point x="67" y="183"/>
      <point x="183" y="-29"/>
      <point x="425" y="-29" type="curve" smooth="yes"/>
      <point x="620" y="-29"/>
      <point x="778" y="133"/>
      <point x="799" y="291" type="curve"/>
      <point x="733" y="465" type="line"/>
      <point x="679" y="257"/>
      <point x="569" y="211"/>
      <point x="501" y="211" type="curve" smooth="yes"/>
      <point x="428" y="211"/>
      <point x="372" y="292"/>
      <point x="372" y="485" type="curve" smooth="yes"/>
      <point x="372" y="677"/>
      <point x="418" y="793"/>
      <point x="517" y="793" type="curve" smooth="yes"/>
      <point x="586" y="793"/>
      <point x="672" y="739"/>
      <point x="750" y="676" type="curve"/>
      <point x="796" y="889" type="line"/>
      <point x="707" y="945"/>
      <point x="603" y="1016"/>
      <point x="466" y="1016" type="curve" smooth="yes"/>
      <point x="250" y="1016"/>
      <point x="67" y="832"/>
    </contour>
  </outline>
</glyph>
<glyph name="e" format="2">
  <advance width="994"/>
  <unicode hex="0065"/>
  <anchor x="519" y="0" name="bottom"/>
  <anchor x="713" y="0" name="ogonek"/>
  <anchor x="510" y="1084" name="top"/>
  <outline>
    <contour>
      <point x="254" y="402" type="line"/>
      <point x="897" y="402" type="line"/>
      <point x="915" y="467"/>
      <point x="922" y="516"/>
      <point x="922" y="601" type="curve" smooth="yes"/>
      <point x="922" y="842"/>
      <point x="770" y="1026"/>
      <point x="507" y="1026" type="curve" smooth="yes"/>
      <point x="195" y="1026"/>
      <point x="64" y="793"/>
      <point x="64" y="492" type="curve" smooth="yes"/>
      <point x="64" y="226"/>
      <point x="158" y="-29"/>
      <point x="505" y="-29" type="curve" smooth="yes"/>
      <point x="646" y="-29"/>
      <point x="795" y="12"/>
      <point x="895" y="85" type="curve"/>
      <point x="886" y="143"/>
      <point x="859" y="218"/>
      <point x="815" y="262" type="curve"/>
      <point x="733" y="227"/>
      <point x="644" y="199"/>
      <point x="553" y="199" type="curve" smooth="yes"/>
      <point x="389" y="199"/>
      <point x="364" y="324"/>
      <point x="364" y="468" type="curve" smooth="yes"/>
      <point x="364" y="558" type="line" smooth="yes"/>
      <point x="364" y="729"/>
      <point x="403" y="813"/>
      <point x="506" y="813" type="curve" smooth="yes"/>
      <point x="607" y="813"/>
      <point x="647" y="730"/>
      <point x="647" y="631" type="curve" smooth="yes"/>
      <point x="647" y="608" type="line"/>
      <point x="254" y="608" type="line"/>
    </contour>
  </outline>
</glyph>
<glyph name="f" format="2">
  <advance width="708"/>
  <unicode hex="0066"/>
  <anchor x="465" y="1522" name="top"/>
  <outline>
    <contour>
      <point x="324" y="995" type="line"/>
      <point x="7" y="999" type="line"/>
      <point x="0" y="965"/>
      <point x="-4" y="928"/>
      <point x="-4" y="894" type="curve" smooth="yes"/>
      <point x="-4" y="861"/>
      <point x="0" y="820"/>
      <point x="7" y="786" type="curve"/>
      <point x="321" y="792" type="line"/>
      <point x="714" y="786" type="line"/>
      <point x="722" y="820"/>
      <point x="725" y="861"/>
      <point x="725" y="894" type="curve" smooth="yes"/>
      <point x="725" y="928"/>
      <point x="722" y="965"/>
      <point x="714" y="999" type="curve"/>
    </contour>
    <contour>
      <point x="179" y="872" type="curve"/>
      <point x="179" y="0" type="line"/>
      <point x="225" y="-7"/>
      <point x="276" y="-11"/>
      <point x="323" y="-11" type="curve" smooth="yes"/>
      <point x="372" y="-11"/>
      <point x="425" y="-7"/>
      <point x="470" y="0" type="curve"/>
      <point x="470" y="870" type="line"/>
      <point x="460" y="947"/>
      <point x="439" y="1040"/>
      <point x="439" y="1115" type="curve" smooth="yes"/>
      <point x="439" y="1208"/>
      <point x="489" y="1256"/>
      <point x="575" y="1256" type="curve" smooth="yes"/>
      <point x="630" y="1256"/>
      <point x="691" y="1240"/>
      <point x="732" y="1229" type="curve"/>
      <point x="771" y="1270"/>
      <point x="798" y="1358"/>
      <point x="797" y="1426" type="curve"/>
      <point x="729" y="1451"/>
      <point x="617" y="1480"/>
      <point x="497" y="1480" type="curve" smooth="yes"/>
      <point x="291" y="1480"/>
      <point x="154" y="1332"/>
      <point x="154" y="1136" type="curve" smooth="yes"/>
      <point x="154" y="1047"/>
      <point x="171" y="961"/>
    </contour>
  </outline>
</glyph>
<glyph name="g" format="2">
  <advance width="1070"/>
  <unicode hex="0067"/>
  <anchor x="525" y="-418" name="bottom"/>
  <anchor x="548" y="1084" name="top"/>
  <outline>
    <contour>
      <point x="1005" y="860" type="curve"/>
      <point x="997" y="913"/>
      <point x="950" y="983"/>
      <point x="912" y="1013" type="curve"/>
      <point x="743" y="1006"/>
      <point x="658" y="878"/>
      <point x="658" y="717" type="curve"/>
      <point x="658" y="-7" type="line" smooth="yes"/>
      <point x="658" y="-133"/>
      <point x="604" y="-220"/>
      <point x="450" y="-220" type="curve" smooth="yes"/>
      <point x="363" y="-220"/>
      <point x="265" y="-197"/>
      <point x="180" y="-159" type="curve"/>
      <point x="137" y="-209"/>
      <point x="106" y="-305"/>
      <point x="106" y="-375" type="curve"/>
      <point x="208" y="-415"/>
      <point x="352" y="-442"/>
      <point x="478" y="-442" type="curve" smooth="yes"/>
      <point x="637" y="-442"/>
      <point x="770" y="-395"/>
      <point x="847" y="-297" type="curve" smooth="yes"/>
      <point x="909" y="-218"/>
      <point x="949" y="-101"/>
      <point x="949" y="173" type="curve" smooth="yes"/>
      <point x="949" y="709" type="line" smooth="yes"/>
      <point x="949" y="775"/>
      <point x="970" y="834"/>
    </contour>
    <contour>
      <point x="67" y="496" type="curve" smooth="yes"/>
      <point x="67" y="192"/>
      <point x="183" y="-19"/>
      <point x="425" y="-19" type="curve" smooth="yes"/>
      <point x="568" y="-19"/>
      <point x="698" y="68"/>
      <point x="763" y="177" type="curve"/>
      <point x="720" y="387" type="line"/>
      <point x="668" y="279"/>
      <point x="583" y="221"/>
      <point x="499" y="221" type="curve" smooth="yes"/>
      <point x="427" y="221"/>
      <point x="372" y="302"/>
      <point x="372" y="495" type="curve" smooth="yes"/>
      <point x="372" y="689"/>
      <point x="418" y="803"/>
      <point x="517" y="803" type="curve" smooth="yes"/>
      <point x="593" y="803"/>
      <point x="691" y="725"/>
      <point x="767" y="585" type="curve"/>
      <point x="815" y="829" type="line"/>
      <point x="762" y="916"/>
      <point x="658" y="1026"/>
      <point x="466" y="1026" type="curve" smooth="yes"/>
      <point x="252" y="1026"/>
      <point x="67" y="842"/>
    </contour>
  </outline>
</glyph>
<glyph name="h" format="2">
  <advance width="1086"/>
  <unicode hex="0068"/>
  <anchor x="562" y="0" name="bottom"/>
  <anchor x="546" y="1520" name="top"/>
  <outline>
    <contour>
      <point x="415" y="0" type="curve"/>
      <point x="415" y="1291" type="line" smooth="yes"/>
      <point x="415" y="1424"/>
      <point x="372" y="1472"/>
      <point x="254" y="1472" type="curve" smooth="yes"/>
      <point x="138" y="1472" type="line"/>
      <point x="124" y="1458" type="line"/>
      <point x="124" y="0" type="line"/>
      <point x="169" y="-7"/>
      <point x="220" y="-11"/>
      <point x="268" y="-11" type="curve" smooth="yes"/>
      <point x="321" y="-11"/>
      <point x="374" y="-7"/>
    </contour>
    <contour>
      <point x="967" y="245" type="curve" smooth="yes"/>
      <point x="967" y="662" type="line" smooth="yes"/>
      <point x="967" y="867"/>
      <point x="873" y="1015"/>
      <point x="689" y="1015" type="curve" smooth="yes"/>
      <point x="547" y="1015"/>
      <point x="436" y="928"/>
      <point x="344" y="835" type="curve"/>
      <point x="344" y="572" type="line"/>
      <point x="405" y="696"/>
      <point x="511" y="747"/>
      <point x="578" y="747" type="curve" smooth="yes"/>
      <point x="649" y="747"/>
      <point x="669" y="703"/>
      <point x="669" y="606" type="curve" smooth="yes"/>
      <point x="669" y="169" type="line" smooth="yes"/>
      <point x="669" y="50"/>
      <point x="709" y="-15"/>
      <point x="829" y="-15" type="curve" smooth="yes"/>
      <point x="903" y="-15"/>
      <point x="971" y="12"/>
      <point x="1014" y="48" type="curve"/>
      <point x="980" y="99"/>
      <point x="967" y="168"/>
    </contour>
  </outline>
</glyph>
<glyph name="k" format="2">
  <advance width="1040"/>
  <unicode hex="006B"/>
  <anchor x="562" y="0" name="bottom"/>
  <anchor x="562" y="1084" name="top"/>
  <outline>
    <contour>
      <point x="415" y="0" type="curve"/>
      <point x="415" y="1291" type="line" smooth="yes"/>
      <point x="415" y="1424"/>
      <point x="372" y="1472"/>
      <point x="254" y="1472" type="curve" smooth="yes"/>
      <point x="138" y="1472" type="line"/>
      <point x="124" y="1458" type="line"/>
      <point x="124" y="0" type="line"/>
      <point x="168" y="-7"/>
      <point x="218" y="-11"/>
      <point x="268" y="-11" type="curve" smooth="yes"/>
      <point x="320" y="-11"/>
      <point x="374" y="-7"/>
    </contour>
    <contour>
      <point x="927" y="245" type="curve" smooth="yes"/>
      <point x="875" y="395" type="line" smooth="yes"/>
      <point x="827" y="532"/>
      <point x="717" y="590"/>
      <point x="572" y="590" type="curve" smooth="yes"/>
      <point x="265" y="590" type="line"/>
      <point x="265" y="384" type="line"/>
      <point x="344" y="393" type="line" smooth="yes"/>
      <point x="389" y="399"/>
      <point x="427" y="404"/>
      <point x="482" y="404" type="curve" smooth="yes"/>
      <point x="542" y="404"/>
      <point x="575" y="384"/>
      <point x="605" y="297" type="curve" smooth="yes"/>
      <point x="667" y="120" type="line" smooth="yes"/>
      <point x="700" y="23"/>
      <point x="735" y="-15"/>
      <point x="823" y="-15" type="curve" smooth="yes"/>
      <point x="899" y="-15"/>
      <point x="976" y="25"/>
      <point x="1023" y="77" type="curve"/>
      <point x="982" y="106"/>
      <point x="959" y="145"/>
    </contour>
    <contour>
      <point x="806" y="680" type="curve" smooth="yes"/>
      <point x="968" y="985" type="line"/>
      <point x="956" y="1001" type="line"/>
      <point x="901" y="1003"/>
      <point x="853" y="1005"/>
      <point x="790" y="1005" type="curve" smooth="yes"/>
      <point x="708" y="1005"/>
      <point x="658" y="967"/>
      <point x="621" y="894" type="curve" smooth="yes"/>
      <point x="507" y="683" type="line" smooth="yes"/>
      <point x="492" y="655"/>
      <point x="480" y="649"/>
      <point x="452" y="649" type="curve" smooth="yes"/>
      <point x="300" y="646" type="line"/>
      <point x="300" y="509" type="line"/>
      <point x="472" y="509" type="line" smooth="yes"/>
      <point x="637" y="509"/>
      <point x="746" y="565"/>
    </contour>
  </outline>
</glyph>
<glyph name="l" format="2">
  <advance width="621"/>
  <unicode hex="006C"/>
  <anchor x="355" y="0" name="bottom"/>
  <anchor x="621" y="786" name="periodcentered"/>
  <anchor x="260" y="1545" name="top"/>
  <anchor x="413" y="997" name="topright"/>
  <outline>
    <contour>
      <point x="556" y="218" type="curve"/>
      <point x="499" y="218" type="line"/>
      <point x="437" y="218"/>
      <point x="413" y="251"/>
      <point x="413" y="312" type="curve" smooth="yes"/>
      <point x="413" y="1291" type="line" smooth="yes"/>
      <point x="413" y="1424"/>
      <point x="369" y="1472"/>
      <point x="251" y="1472" type="curve" smooth="yes"/>
      <point x="136" y="1472" type="line"/>
      <point x="122" y="1458" type="line"/>
      <point x="122" y="258" type="line" smooth="yes"/>
      <point x="122" y="75"/>
      <point x="190" y="-10"/>
      <point x="364" y="-10" type="curve" smooth="yes"/>
      <point x="437" y="-10"/>
      <point x="515" y="0"/>
      <point x="573" y="9" type="curve"/>
      <point x="578" y="29"/>
      <point x="580" y="54"/>
      <point x="580" y="76" type="curve" smooth="yes"/>
      <point x="580" y="124"/>
      <point x="571" y="176"/>
    </contour>
  </outline>
</glyph>
<glyph name="m" format="2">
  <advance width="1614"/>
  <unicode hex="006D"/>
  <anchor x="809" y="0" name="bottom"/>
  <anchor x="793" y="1084" name="top"/>
  <outline>
    <contour>
      <point x="249" y="1010" type="curve" smooth="yes"/>
      <point x="138" y="1010" type="line"/>
      <point x="124" y="996" type="line"/>
      <point x="124" y="0" type="line"/>
      <point x="168" y="-7"/>
      <point x="224" y="-11"/>
      <point x="274" y="-11" type="curve" smooth="yes"/>
      <point x="325" y="-11"/>
      <point x="381" y="-7"/>
      <point x="423" y="0" type="curve"/>
      <point x="423" y="794" type="line" smooth="yes"/>
      <point x="423" y="927"/>
      <point x="364" y="1010"/>
    </contour>
    <contour>
      <point x="660" y="605" type="curve" smooth="yes"/>
      <point x="660" y="0" type="line"/>
      <point x="704" y="-7"/>
      <point x="760" y="-11"/>
      <point x="809" y="-11" type="curve" smooth="yes"/>
      <point x="861" y="-11"/>
      <point x="917" y="-7"/>
      <point x="958" y="0" type="curve"/>
      <point x="958" y="700" type="line" smooth="yes"/>
      <point x="958" y="882"/>
      <point x="860" y="1015"/>
      <point x="686" y="1015" type="curve" smooth="yes"/>
      <point x="543" y="1015"/>
      <point x="419" y="905"/>
      <point x="325" y="796" type="curve"/>
      <point x="325" y="535" type="line"/>
      <point x="363" y="633"/>
      <point x="478" y="746"/>
      <point x="566" y="747" type="curve" smooth="yes"/>
      <point x="614" y="747"/>
      <point x="660" y="716"/>
    </contour>
    <contour>
      <point x="1196" y="607" type="curve"/>
      <point x="1196" y="169" type="line" smooth="yes"/>
      <point x="1196" y="50"/>
      <point x="1237" y="-15"/>
      <point x="1356" y="-15" type="curve" smooth="yes"/>
      <point x="1430" y="-15"/>
      <point x="1498" y="12"/>
      <point x="1542" y="48" type="curve"/>
      <point x="1507" y="99"/>
      <point x="1495" y="168"/>
      <point x="1495" y="245" type="curve" smooth="yes"/>
      <point x="1495" y="697" type="line" smooth="yes"/>
      <point x="1495" y="878"/>
      <point x="1405" y="1015"/>
      <point x="1229" y="1015" type="curve" smooth="yes"/>
      <point x="1090" y="1015"/>
      <point x="944" y="914"/>
      <point x="854" y="806" type="curve"/>
      <point x="854" y="525" type="line"/>
      <point x="903" y="633"/>
      <point x="1018" y="747"/>
      <point x="1099" y="747" type="curve" smooth="yes"/>
      <point x="1147" y="747"/>
      <point x="1196" y="718"/>
    </contour>
  </outline>
</glyph>
<glyph name="n" format="2">
  <advance width="1093"/>
  <unicode hex="006E"/>
  <anchor x="562" y="0" name="bottom"/>
  <anchor x="561" y="1084" name="top"/>
  <outline>
    <contour>
      <point x="251" y="1010" type="curve" smooth="yes"/>
      <point x="138" y="1010" type="line"/>
      <point x="124" y="996" type="line"/>
      <point x="124" y="0" type="line"/>
      <point x="168" y="-7"/>
      <point x="224" y="-11"/>
      <point x="274" y="-11" type="curve" smooth="yes"/>
      <point x="325" y="-11"/>
      <point x="381" y="-7"/>
      <point x="423" y="0" type="curve"/>
      <point x="423" y="794" type="line" smooth="yes"/>
      <point x="423" y="927"/>
      <point x="365" y="1010"/>
    </contour>
    <contour>
      <point x="974" y="245" type="curve" smooth="yes"/>
      <point x="974" y="663" type="line" smooth="yes"/>
      <point x="974" y="868"/>
      <point x="880" y="1015"/>
      <point x="696" y="1015" type="curve" smooth="yes"/>
      <point x="554" y="1015"/>
      <point x="444" y="928"/>
      <point x="351" y="835" type="curve"/>
      <point x="351" y="572" type="line"/>
      <point x="412" y="697"/>
      <point x="518" y="747"/>
      <point x="585" y="747" type="curve" smooth="yes"/>
      <point x="656" y="747"/>
      <point x="676" y="703"/>
      <point x="676" y="607" type="curve" smooth="yes"/>
      <point x="676" y="169" type="line" smooth="yes"/>
      <point x="676" y="50"/>
      <point x="716" y="-15"/>
      <point x="836" y="-15" type="curve" smooth="yes"/>
      <point x="910" y="-15"/>
      <point x="978" y="12"/>
      <point x="1022" y="48" type="curve"/>
      <point x="987" y="99"/>
      <point x="974" y="168"/>
    </contour>
  </outline>
</glyph>
<glyph name="o" format="2">
  <advance width="1043"/>
  <unicode hex="006F"/>
  <anchor x="521" y="0" name="bottom"/>
  <anchor x="697" y="0" name="ogonek"/>
  <anchor x="521" y="1084" name="top"/>
  <anchor x="855" y="968" name="topright"/>
  <outline>
    <contour>
      <point x="979" y="498" type="curve" smooth="yes"/>
      <point x="979" y="815"/>
      <point x="823" y="1026"/>
      <point x="521" y="1026" type="curve" smooth="yes"/>
      <point x="223" y="1026"/>
      <point x="64" y="817"/>
      <point x="64" y="498" type="curve" smooth="yes"/>
      <point x="64" y="182"/>
      <point x="220" y="-29"/>
      <point x="521" y="-29" type="curve" smooth="yes"/>
      <point x="821" y="-29"/>
      <point x="979" y="180"/>
    </contour>
    <contour>
      <point x="370" y="498" type="curve" smooth="yes"/>
      <point x="370" y="666"/>
      <point x="392" y="803"/>
      <point x="522" y="803" type="curve" smooth="yes"/>
      <point x="651" y="803"/>
      <point x="673" y="666"/>
      <point x="673" y="498" type="curve" smooth="yes"/>
      <point x="673" y="330"/>
      <point x="651" y="194"/>
      <point x="522" y="194" type="curve" smooth="yes"/>
      <point x="392" y="194"/>
      <point x="370" y="330"/>
    </contour>
  </outline>
</glyph>
<glyph name="p" format="2">
  <advance width="1074"/>
  <unicode hex="0070"/>
  <anchor x="524" y="1084" name="top"/>
  <outline>
    <contour>
      <point x="218" y="1010" type="curve" smooth="yes"/>
      <point x="138" y="1010" type="line"/>
      <point x="124" y="996" type="line"/>
      <point x="124" y="-418" type="line"/>
      <point x="138" y="-432" type="line"/>
      <point x="254" y="-432" type="line" smooth="yes"/>
      <point x="372" y="-432"/>
      <point x="417" y="-384"/>
      <point x="417" y="-251" type="curve" smooth="yes"/>
      <point x="417" y="760" type="line" smooth="yes"/>
      <point x="417" y="915"/>
      <point x="340" y="1010"/>
    </contour>
    <contour>
      <point x="1007" y="510" type="curve" smooth="yes"/>
      <point x="1007" y="813"/>
      <point x="891" y="1026"/>
      <point x="649" y="1026" type="curve" smooth="yes"/>
      <point x="454" y="1026"/>
      <point x="296" y="864"/>
      <point x="275" y="706" type="curve"/>
      <point x="341" y="532" type="line"/>
      <point x="394" y="740"/>
      <point x="504" y="786"/>
      <point x="573" y="786" type="curve" smooth="yes"/>
      <point x="646" y="786"/>
      <point x="701" y="705"/>
      <point x="701" y="512" type="curve" smooth="yes"/>
      <point x="701" y="319"/>
      <point x="655" y="204"/>
      <point x="557" y="204" type="curve" smooth="yes"/>
      <point x="487" y="204"/>
      <point x="401" y="258"/>
      <point x="324" y="321" type="curve"/>
      <point x="277" y="108" type="line"/>
      <point x="367" y="52"/>
      <point x="471" y="-19"/>
      <point x="608" y="-19" type="curve" smooth="yes"/>
      <point x="824" y="-19"/>
      <point x="1007" y="165"/>
    </contour>
  </outline>
</glyph>
<glyph name="q" format="2">
  <advance width="1075"/>
  <unicode hex="0071"/>
  <outline>
    <contour>
      <point x="67" y="496" type="curve" smooth="yes"/>
      <point x="67" y="192"/>
      <point x="183" y="-19"/>
      <point x="425" y="-19" type="curve" smooth="yes"/>
      <point x="568" y="-19"/>
      <point x="698" y="67"/>
      <point x="763" y="177" type="curve"/>
      <point x="720" y="387" type="line"/>
      <point x="668" y="279"/>
      <point x="583" y="221"/>
      <point x="499" y="221" type="curve" smooth="yes"/>
      <point x="427" y="221"/>
      <point x="372" y="302"/>
      <point x="372" y="495" type="curve" smooth="yes"/>
      <point x="372" y="689"/>
      <point x="418" y="803"/>
      <point x="517" y="803" type="curve" smooth="yes"/>
      <point x="593" y="803"/>
      <point x="691" y="725"/>
      <point x="767" y="585" type="curve"/>
      <point x="815" y="830" type="line"/>
      <point x="762" y="917"/>
      <point x="658" y="1026"/>
      <point x="466" y="1026" type="curve" smooth="yes"/>
      <point x="252" y="1026"/>
      <point x="67" y="842"/>
    </contour>
    <contour>
      <point x="656" y="717" type="curve" smooth="yes"/>
      <point x="656" y="-251" type="line" smooth="yes"/>
      <point x="656" y="-384"/>
      <point x="700" y="-432"/>
      <point x="818" y="-432" type="curve" smooth="yes"/>
      <point x="934" y="-432" type="line"/>
      <point x="947" y="-418" type="line"/>
      <point x="947" y="709" type="line" smooth="yes"/>
      <point x="947" y="775"/>
      <point x="968" y="834"/>
      <point x="1003" y="860" type="curve"/>
      <point x="992" y="913"/>
      <point x="949" y="983"/>
      <point x="910" y="1013" type="curve"/>
      <point x="741" y="1006"/>
      <point x="656" y="878"/>
    </contour>
  </outline>
</glyph>
<glyph name="r" format="2">
  <advance width="786"/>
  <unicode hex="0072"/>
  <anchor x="290" y="0" name="bottom"/>
  <anchor x="416" y="1084" name="top"/>
  <outline>
    <contour>
      <point x="783" y="994" type="curve"/>
      <point x="744" y="1004"/>
      <point x="712" y="1011"/>
      <point x="655" y="1011" type="curve" smooth="yes"/>
      <point x="421" y="1011"/>
      <point x="361" y="771"/>
      <point x="347" y="556" type="curve"/>
      <point x="382" y="511" type="line"/>
      <point x="436" y="647"/>
      <point x="496" y="735"/>
      <point x="609" y="735" type="curve"/>
      <point x="643" y="731"/>
      <point x="676" y="728"/>
      <point x="709" y="716" type="curve"/>
      <point x="759" y="799"/>
      <point x="783" y="923"/>
    </contour>
    <contour>
      <point x="65" y="859" type="curve"/>
      <point x="98" y="834"/>
      <point x="141" y="768"/>
      <point x="141" y="651" type="curve" smooth="yes"/>
      <point x="141" y="0" type="line"/>
      <point x="184" y="-7"/>
      <point x="240" y="-11"/>
      <point x="290" y="-11" type="curve" smooth="yes"/>
      <point x="341" y="-11"/>
      <point x="397" y="-7"/>
      <point x="439" y="0" type="curve"/>
      <point x="439" y="674" type="line"/>
      <point x="421" y="868"/>
      <point x="335" y="996"/>
      <point x="158" y="1013" type="curve"/>
      <point x="120" y="983"/>
      <point x="77" y="912"/>
    </contour>
  </outline>
</glyph>
<glyph name="s" format="2">
  <advance width="885"/>
  <unicode hex="0073"/>
  <anchor x="444" y="0" name="bottom"/>
  <anchor x="444" y="1084" name="top"/>
  <outline>
    <contour>
      <point x="42" y="69" type="curve"/>
      <point x="135" y="16"/>
      <point x="268" y="-29"/>
      <point x="410" y="-29" type="curve" smooth="yes"/>
      <point x="676" y="-29"/>
      <point x="837" y="95"/>
      <point x="837" y="293" type="curve" smooth="yes"/>
      <point x="837" y="461"/>
      <point x="724" y="557"/>
      <point x="572" y="611" type="curve" smooth="yes"/>
      <point x="449" y="656" type="line" smooth="yes"/>
      <point x="390" y="677"/>
      <point x="365" y="700"/>
      <point x="365" y="738" type="curve" smooth="yes"/>
      <point x="365" y="778"/>
      <point x="398" y="809"/>
      <point x="457" y="809" type="curve" smooth="yes"/>
      <point x="552" y="809"/>
      <point x="653" y="772"/>
      <point x="734" y="736" type="curve"/>
      <point x="782" y="772"/>
      <point x="820" y="873"/>
      <point x="816" y="943" type="curve"/>
      <point x="730" y="986"/>
      <point x="577" y="1026"/>
      <point x="454" y="1026" type="curve" smooth="yes"/>
      <point x="223" y="1026"/>
      <point x="71" y="900"/>
      <point x="71" y="700" type="curve" smooth="yes"/>
      <point x="71" y="540"/>
      <point x="181" y="454"/>
      <point x="322" y="402" type="curve" smooth="yes"/>
      <point x="434" y="361" type="line" smooth="yes"/>
      <point x="501" y="337"/>
      <point x="529" y="306"/>
      <point x="529" y="265" type="curve" smooth="yes"/>
      <point x="529" y="219"/>
      <point x="485" y="187"/>
      <point x="404" y="187" type="curve" smooth="yes"/>
      <point x="310" y="187"/>
      <point x="214" y="225"/>
      <point x="127" y="271" type="curve"/>
      <point x="82" y="225"/>
      <point x="44" y="134"/>
    </contour>
  </outline>
</glyph>
<glyph name="t" format="2">
  <advance width="742"/>
  <unicode hex="0074"/>
  <anchor x="416" y="0" name="bottom"/>
  <anchor x="340" y="1368" name="top"/>
  <anchor x="456" y="997" name="topright"/>
  <outline>
    <contour>
      <point x="165" y="1118" type="curve" smooth="yes"/>
      <point x="165" y="258" type="line" smooth="yes"/>
      <point x="165" y="75"/>
      <point x="247" y="-10"/>
      <point x="422" y="-10" type="curve" smooth="yes"/>
      <point x="502" y="-10"/>
      <point x="604" y="-1"/>
      <point x="676" y="9" type="curve"/>
      <point x="682" y="29"/>
      <point x="683" y="54"/>
      <point x="683" y="76" type="curve" smooth="yes"/>
      <point x="683" y="122"/>
      <point x="674" y="176"/>
      <point x="660" y="218" type="curve"/>
      <point x="544" y="218" type="line" smooth="yes"/>
      <point x="481" y="218"/>
      <point x="456" y="252"/>
      <point x="456" y="311" type="curve" smooth="yes"/>
      <point x="456" y="1285" type="line"/>
      <point x="443" y="1298" type="line"/>
      <point x="327" y="1298" type="line" smooth="yes"/>
      <point x="209" y="1298"/>
      <point x="165" y="1251"/>
    </contour>
    <contour>
      <point x="695" y="999" type="curve"/>
      <point x="336" y="993" type="line"/>
      <point x="10" y="999" type="line"/>
      <point x="1" y="962"/>
      <point x="-3" y="928"/>
      <point x="-3" y="894" type="curve" smooth="yes"/>
      <point x="-3" y="857"/>
      <point x="1" y="821"/>
      <point x="10" y="786" type="curve"/>
      <point x="328" y="792" type="line"/>
      <point x="695" y="786" type="line"/>
      <point x="704" y="821"/>
      <point x="708" y="857"/>
      <point x="708" y="894" type="curve" smooth="yes"/>
      <point x="708" y="928"/>
      <point x="704" y="962"/>
    </contour>
  </outline>
</glyph>
<glyph name="u" format="2">
  <advance width="1097"/>
  <unicode hex="0075"/>
  <anchor x="539" y="0" name="bottom"/>
  <anchor x="932" y="-16" name="ogonek"/>
  <anchor x="531" y="1084" name="top"/>
  <anchor x="969" y="997" name="topright"/>
  <outline>
    <contour>
      <point x="969" y="284" type="curve" smooth="yes"/>
      <point x="969" y="997" type="line"/>
      <point x="926" y="1004"/>
      <point x="870" y="1008"/>
      <point x="820" y="1008" type="curve" smooth="yes"/>
      <point x="768" y="1008"/>
      <point x="712" y="1004"/>
      <point x="671" y="997" type="curve"/>
      <point x="671" y="283" type="line" smooth="yes"/>
      <point x="671" y="122"/>
      <point x="761" y="-9"/>
      <point x="932" y="-16" type="curve"/>
      <point x="970" y="13"/>
      <point x="1013" y="81"/>
      <point x="1025" y="134" type="curve"/>
      <point x="990" y="160"/>
      <point x="969" y="219"/>
    </contour>
    <contour>
      <point x="119" y="752" type="curve" smooth="yes"/>
      <point x="119" y="334" type="line" smooth="yes"/>
      <point x="119" y="129"/>
      <point x="214" y="-18"/>
      <point x="397" y="-18" type="curve" smooth="yes"/>
      <point x="540" y="-18"/>
      <point x="650" y="68"/>
      <point x="743" y="162" type="curve"/>
      <point x="743" y="425" type="line"/>
      <point x="682" y="300"/>
      <point x="575" y="250"/>
      <point x="508" y="250" type="curve" smooth="yes"/>
      <point x="437" y="250"/>
      <point x="417" y="294"/>
      <point x="417" y="390" type="curve" smooth="yes"/>
      <point x="417" y="828" type="line" smooth="yes"/>
      <point x="417" y="947"/>
      <point x="377" y="1012"/>
      <point x="258" y="1012" type="curve" smooth="yes"/>
      <point x="183" y="1012"/>
      <point x="115" y="985"/>
      <point x="72" y="949" type="curve"/>
      <point x="107" y="898"/>
      <point x="119" y="829"/>
    </contour>
  </outline>
</glyph>
<glyph name="v" format="2">
  <advance width="952"/>
  <unicode hex="0076"/>
  <anchor x="481" y="0" name="bottom"/>
  <anchor x="475" y="1084" name="top"/>
  <outline>
    <contour>
      <point x="678" y="995" type="curve"/>
      <point x="495" y="228" type="line"/>
      <point x="483" y="228"/>
      <point x="477" y="229"/>
      <point x="475" y="244" type="curve" smooth="yes"/>
      <point x="464" y="305"/>
      <point x="447" y="413"/>
      <point x="426" y="494" type="curve" smooth="yes"/>
      <point x="330" y="876" type="line" smooth="yes"/>
      <point x="306" y="978"/>
      <point x="252" y="1014"/>
      <point x="159" y="1014" type="curve" smooth="yes"/>
      <point x="110" y="1014"/>
      <point x="47" y="997"/>
      <point x="-6" y="973" type="curve"/>
      <point x="238" y="133" type="line" smooth="yes"/>
      <point x="273" y="13"/>
      <point x="332" y="-12"/>
      <point x="445" y="-12" type="curve" smooth="yes"/>
      <point x="521" y="-12"/>
      <point x="603" y="-8"/>
      <point x="668" y="0" type="curve"/>
      <point x="741" y="229"/>
      <point x="867" y="678"/>
      <point x="949" y="970" type="curve"/>
      <point x="940" y="983" type="line"/>
      <point x="894" y="1001"/>
      <point x="837" y="1007"/>
      <point x="786" y="1007" type="curve" smooth="yes"/>
      <point x="750" y="1007"/>
      <point x="713" y="1003"/>
    </contour>
  </outline>
</glyph>
<glyph name="w" format="2">
  <advance width="1503"/>
  <unicode hex="0077"/>
  <anchor x="750" y="0" name="bottom"/>
  <anchor x="750" y="1084" name="top"/>
  <outline>
    <contour>
      <point x="14" y="979" type="curve"/>
      <point x="210" y="130" type="line" smooth="yes"/>
      <point x="237" y="14"/>
      <point x="292" y="-11"/>
      <point x="403" y="-11" type="curve" smooth="yes"/>
      <point x="474" y="-11"/>
      <point x="566" y="-8"/>
      <point x="629" y="0" type="curve"/>
      <point x="688" y="353" type="line" smooth="yes"/>
      <point x="704" y="453"/>
      <point x="727" y="595"/>
      <point x="744" y="732" type="curve"/>
      <point x="756" y="732" type="line"/>
      <point x="773" y="593"/>
      <point x="795" y="450"/>
      <point x="811" y="350" type="curve" smooth="yes"/>
      <point x="847" y="126" type="line" smooth="yes"/>
      <point x="865" y="7"/>
      <point x="922" y="-11"/>
      <point x="1037" y="-11" type="curve" smooth="yes"/>
      <point x="1106" y="-11"/>
      <point x="1196" y="-9"/>
      <point x="1256" y="0" type="curve"/>
      <point x="1491" y="965" type="line"/>
      <point x="1482" y="983" type="line"/>
      <point x="1440" y="1004"/>
      <point x="1366" y="1008"/>
      <point x="1325" y="1008" type="curve" smooth="yes"/>
      <point x="1289" y="1008"/>
      <point x="1243" y="1005"/>
      <point x="1210" y="995" type="curve"/>
      <point x="1118" y="552" type="line" smooth="yes"/>
      <point x="1093" y="429"/>
      <point x="1076" y="315"/>
      <point x="1061" y="220" type="curve"/>
      <point x="1049" y="220"/>
      <point x="1047" y="224"/>
      <point x="1045" y="237" type="curve" smooth="yes"/>
      <point x="925" y="987" type="line"/>
      <point x="880" y="997"/>
      <point x="788" y="1001"/>
      <point x="748" y="1001" type="curve" smooth="yes"/>
      <point x="711" y="1001"/>
      <point x="623" y="997"/>
      <point x="576" y="987" type="curve"/>
      <point x="458" y="220" type="line"/>
      <point x="447" y="220"/>
      <point x="444" y="224"/>
      <point x="442" y="237" type="curve" smooth="yes"/>
      <point x="434" y="307"/>
      <point x="415" y="423"/>
      <point x="388" y="552" type="curve" smooth="yes"/>
      <point x="323" y="888" type="line" smooth="yes"/>
      <point x="306" y="969"/>
      <point x="274" y="1014"/>
      <point x="181" y="1014" type="curve" smooth="yes"/>
      <point x="129" y="1014"/>
      <point x="72" y="1002"/>
    </contour>
  </outline>
</glyph>
<glyph name="x" format="2">
  <advance width="956"/>
  <unicode hex="0078"/>
  <anchor x="476" y="1084" name="top"/>
  <outline>
    <contour>
      <point x="30" y="950" type="curve"/>
      <point x="597" y="72" type="line"/>
      <point x="636" y="12"/>
      <point x="679" y="-17"/>
      <point x="753" y="-17" type="curve" smooth="yes"/>
      <point x="821" y="-17"/>
      <point x="898" y="9"/>
      <point x="956" y="49" type="curve"/>
      <point x="383" y="924" type="line" smooth="yes"/>
      <point x="343" y="985"/>
      <point x="307" y="1016"/>
      <point x="232" y="1016" type="curve" smooth="yes"/>
      <point x="170" y="1016"/>
      <point x="95" y="997"/>
    </contour>
    <contour>
      <point x="650" y="997" type="curve"/>
      <point x="442" y="655" type="line"/>
      <point x="365" y="586" type="line"/>
      <point x="7" y="29" type="line"/>
      <point x="17" y="11" type="line"/>
      <point x="61" y="-6"/>
      <point x="116" y="-12"/>
      <point x="174" y="-12" type="curve" smooth="yes"/>
      <point x="217" y="-12"/>
      <point x="260" y="-9"/>
      <point x="290" y="0" type="curve"/>
      <point x="518" y="384" type="line"/>
      <point x="589" y="454" type="line"/>
      <point x="922" y="967" type="line"/>
      <point x="914" y="988" type="line"/>
      <point x="870" y="1001"/>
      <point x="822" y="1008"/>
      <point x="767" y="1008" type="curve" smooth="yes"/>
      <point x="725" y="1008"/>
      <point x="682" y="1004"/>
    </contour>
  </outline>
</glyph>
<glyph name="y" format="2">
  <advance width="986"/>
  <unicode hex="0079"/>
  <anchor x="860" y="-34" name="bottom"/>
  <anchor x="490" y="1084" name="top"/>
  <outline>
    <contour>
      <point x="725" y="27" type="curve" smooth="yes"/>
      <point x="974" y="967" type="line"/>
      <point x="963" y="986" type="line"/>
      <point x="910" y="1004"/>
      <point x="855" y="1008"/>
      <point x="804" y="1008" type="curve" smooth="yes"/>
      <point x="767" y="1008"/>
      <point x="719" y="1005"/>
      <point x="686" y="995" type="curve"/>
      <point x="505" y="210" type="line"/>
      <point x="495" y="210"/>
      <point x="491" y="212"/>
      <point x="489" y="224" type="curve" smooth="yes"/>
      <point x="478" y="291"/>
      <point x="459" y="420"/>
      <point x="440" y="491" type="curve" smooth="yes"/>
      <point x="341" y="886" type="line" smooth="yes"/>
      <point x="316" y="985"/>
      <point x="268" y="1014"/>
      <point x="196" y="1014" type="curve" smooth="yes"/>
      <point x="147" y="1014"/>
      <point x="74" y="1001"/>
      <point x="13" y="973" type="curve"/>
      <point x="249" y="110" type="line" smooth="yes"/>
      <point x="275" y="18"/>
      <point x="345" y="-12"/>
      <point x="450" y="-13" type="curve"/>
      <point x="442" y="-41" type="line" smooth="yes"/>
      <point x="410" y="-150"/>
      <point x="345" y="-215"/>
      <point x="240" y="-215" type="curve" smooth="yes"/>
      <point x="176" y="-215"/>
      <point x="106" y="-199"/>
      <point x="65" y="-185" type="curve"/>
      <point x="25" y="-231"/>
      <point x="-3" y="-330"/>
      <point x="4" y="-398" type="curve"/>
      <point x="57" y="-417"/>
      <point x="162" y="-438"/>
      <point x="240" y="-438" type="curve" smooth="yes"/>
      <point x="545" y="-438"/>
      <point x="651" y="-250"/>
    </contour>
  </outline>
</glyph>
<glyph name="z" format="2">
  <advance width="898"/>
  <unicode hex="007A"/>
  <anchor x="450" y="0" name="bottom"/>
  <anchor x="450" y="1084" name="top"/>
  <outline>
    <contour>
      <point x="344" y="591" type="curve" smooth="yes"/>
      <point x="95" y="258" type="line" smooth="yes"/>
      <point x="63" y="216"/>
      <point x="52" y="180"/>
      <point x="52" y="147" type="curve" smooth="yes"/>
      <point x="52" y="112"/>
      <point x="61" y="72"/>
      <point x="86" y="0" type="curve"/>
      <point x="688" y="0" type="line" smooth="yes"/>
      <point x="809" y="0"/>
      <point x="850" y="53"/>
      <point x="850" y="133" type="curve" smooth="yes"/>
      <point x="850" y="173"/>
      <point x="841" y="206"/>
      <point x="819" y="256" type="curve"/>
      <point x="765" y="230"/>
      <point x="694" y="224"/>
      <point x="629" y="224" type="curve" smooth="yes"/>
      <point x="556" y="224" type="line" smooth="yes"/>
      <point x="506" y="224"/>
      <point x="453" y="220"/>
      <point x="394" y="213" type="curve"/>
      <point x="388" y="222" type="line"/>
      <point x="439" y="275"/>
      <point x="495" y="345"/>
      <point x="540" y="404" type="curve" smooth="yes"/>
      <point x="796" y="743" type="line" smooth="yes"/>
      <point x="816" y="769"/>
      <point x="825" y="805"/>
      <point x="825" y="833" type="curve" smooth="yes"/>
      <point x="825" y="875"/>
      <point x="811" y="924"/>
      <point x="786" y="997" type="curve"/>
      <point x="92" y="997" type="line"/>
      <point x="83" y="956"/>
      <point x="76" y="911"/>
      <point x="76" y="867" type="curve" smooth="yes"/>
      <point x="76" y="838"/>
      <point x="79" y="804"/>
      <point x="86" y="775" type="curve"/>
      <point x="248" y="775" type="line" smooth="yes"/>
      <point x="322" y="775"/>
      <point x="427" y="782"/>
      <point x="499" y="790" type="curve"/>
      <point x="505" y="781" type="line"/>
      <point x="459" y="730"/>
      <point x="391" y="655"/>
    </contour>
  </outline>
</glyph>
<glyph name="braceleft" format="2">
  <advance width="783"/>
  <unicode hex="007B"/>
  <outline>
    <contour>
      <point x="89" y="650" type="curve"/>
      <point x="70" y="603"/>
      <point x="70" y="507"/>
      <point x="89" y="460" type="curve"/>
      <point x="187" y="440"/>
      <point x="257" y="345"/>
      <point x="257" y="239" type="curve" smooth="yes"/>
      <point x="257" y="-85" type="line" smooth="yes"/>
      <point x="257" y="-292"/>
      <point x="391" y="-407"/>
      <point x="574" y="-437" type="curve" smooth="yes"/>
      <point x="704" y="-457" type="line"/>
      <point x="744" y="-413"/>
      <point x="771" y="-310"/>
      <point x="760" y="-264" type="curve"/>
      <point x="642" y="-225" type="line" smooth="yes"/>
      <point x="597" y="-210"/>
      <point x="556" y="-161"/>
      <point x="556" y="-83" type="curve" smooth="yes"/>
      <point x="556" y="235" type="line" smooth="yes"/>
      <point x="556" y="370"/>
      <point x="488" y="500"/>
      <point x="381" y="547" type="curve"/>
      <point x="381" y="563" type="line"/>
      <point x="488" y="609"/>
      <point x="556" y="739"/>
      <point x="556" y="875" type="curve" smooth="yes"/>
      <point x="556" y="1192" type="line" smooth="yes"/>
      <point x="556" y="1270"/>
      <point x="597" y="1319"/>
      <point x="642" y="1334" type="curve" smooth="yes"/>
      <point x="760" y="1373" type="line"/>
      <point x="771" y="1419"/>
      <point x="744" y="1523"/>
      <point x="704" y="1567" type="curve"/>
      <point x="574" y="1546" type="line" smooth="yes"/>
      <point x="391" y="1516"/>
      <point x="257" y="1401"/>
      <point x="257" y="1194" type="curve" smooth="yes"/>
      <point x="257" y="871" type="line" smooth="yes"/>
      <point x="257" y="765"/>
      <point x="187" y="669"/>
    </contour>
  </outline>
</glyph>
<glyph name="bar" format="2">
  <advance width="536"/>
  <unicode hex="007C"/>
  <outline>
    <contour>
      <point x="129" y="1547" type="curve"/>
      <point x="129" y="-283" type="line"/>
      <point x="173" y="-294"/>
      <point x="239" y="-296"/>
      <point x="271" y="-296" type="curve" smooth="yes"/>
      <point x="307" y="-296"/>
      <point x="361" y="-294"/>
      <point x="406" y="-283" type="curve"/>
      <point x="406" y="1547" type="line"/>
      <point x="361" y="1557"/>
      <point x="307" y="1559"/>
      <point x="271" y="1559" type="curve" smooth="yes"/>
      <point x="239" y="1559"/>
      <point x="173" y="1557"/>
    </contour>
  </outline>
</glyph>
<glyph name="braceright" format="2">
  <advance width="783"/>
  <unicode hex="007D"/>
  <outline>
    <contour>
      <point x="694" y="650" type="curve"/>
      <point x="712" y="603"/>
      <point x="712" y="507"/>
      <point x="694" y="460" type="curve"/>
      <point x="596" y="440"/>
      <point x="526" y="345"/>
      <point x="526" y="239" type="curve" smooth="yes"/>
      <point x="526" y="-85" type="line" smooth="yes"/>
      <point x="526" y="-292"/>
      <point x="392" y="-407"/>
      <point x="208" y="-437" type="curve" smooth="yes"/>
      <point x="79" y="-457" type="line"/>
      <point x="39" y="-413"/>
      <point x="12" y="-310"/>
      <point x="23" y="-264" type="curve"/>
      <point x="141" y="-225" type="line" smooth="yes"/>
      <point x="186" y="-210"/>
      <point x="227" y="-161"/>
      <point x="227" y="-83" type="curve" smooth="yes"/>
      <point x="227" y="235" type="line" smooth="yes"/>
      <point x="227" y="370"/>
      <point x="295" y="500"/>
      <point x="402" y="547" type="curve"/>
      <point x="402" y="563" type="line"/>
      <point x="295" y="609"/>
      <point x="227" y="739"/>
      <point x="227" y="875" type="curve" smooth="yes"/>
      <point x="227" y="1192" type="line" smooth="yes"/>
      <point x="227" y="1270"/>
      <point x="186" y="1319"/>
      <point x="141" y="1334" type="curve" smooth="yes"/>
      <point x="23" y="1373" type="line"/>
      <point x="12" y="1419"/>
      <point x="39" y="1523"/>
      <point x="79" y="1567" type="curve"/>
      <point x="208" y="1546" type="line" smooth="yes"/>
      <point x="392" y="1516"/>
      <point x="526" y="1401"/>
      <point x="526" y="1194" type="curve" smooth="yes"/>
      <point x="526" y="871" type="line" smooth="yes"/>
      <point x="526" y="765"/>
      <point x="596" y="669"/>
    </contour>
  </outline>
</glyph>
<glyph name="asciitilde" format="2">
  <advance width="1252"/>
  <unicode hex="007E"/>
  <outline>
    <contour>
      <point x="761" y="687" type="curve" smooth="yes"/>
      <point x="596" y="762" type="line" smooth="yes"/>
      <point x="533" y="789"/>
      <point x="474" y="803"/>
      <point x="418" y="803" type="curve" smooth="yes"/>
      <point x="283" y="803"/>
      <point x="175" y="724"/>
      <point x="103" y="602" type="curve" smooth="yes"/>
      <point x="65" y="537" type="line"/>
      <point x="94" y="470"/>
      <point x="180" y="428"/>
      <point x="241" y="423" type="curve"/>
      <point x="290" y="474" type="line" smooth="yes"/>
      <point x="322" y="510"/>
      <point x="359" y="529"/>
      <point x="401" y="529" type="curve" smooth="yes"/>
      <point x="428" y="529"/>
      <point x="458" y="521"/>
      <point x="491" y="507" type="curve" smooth="yes"/>
      <point x="656" y="432" type="line" smooth="yes"/>
      <point x="718" y="405"/>
      <point x="778" y="390"/>
      <point x="834" y="390" type="curve" smooth="yes"/>
      <point x="969" y="390"/>
      <point x="1076" y="469"/>
      <point x="1149" y="592" type="curve" smooth="yes"/>
      <point x="1187" y="656" type="line"/>
      <point x="1158" y="723"/>
      <point x="1071" y="766"/>
      <point x="1011" y="771" type="curve"/>
      <point x="962" y="719" type="line" smooth="yes"/>
      <point x="930" y="684"/>
      <point x="893" y="664"/>
      <point x="851" y="664" type="curve" smooth="yes"/>
      <point x="824" y="664"/>
      <point x="794" y="673"/>
    </contour>
  </outline>
</glyph>
<glyph name="cent" format="2">
  <advance width="1080"/>
  <unicode hex="00A2"/>
  <outline>
    <contour>
      <point x="563" y="-55" type="curve" smooth="yes"/>
      <point x="599" y="-55"/>
      <point x="643" y="-51"/>
      <point x="671" y="-44" type="curve"/>
      <point x="671" y="277" type="line"/>
      <point x="456" y="277" type="line"/>
      <point x="456" y="-44" type="line"/>
      <point x="484" y="-51"/>
      <point x="528" y="-55"/>
    </contour>
    <contour>
      <point x="462" y="980" type="line"/>
      <point x="677" y="980" type="line"/>
      <point x="677" y="1310" type="line"/>
      <point x="649" y="1317"/>
      <point x="606" y="1321"/>
      <point x="569" y="1321" type="curve" smooth="yes"/>
      <point x="532" y="1321"/>
      <point x="490" y="1317"/>
      <point x="462" y="1310" type="curve"/>
    </contour>
    <contour>
      <point x="575" y="131" type="curve" smooth="yes"/>
      <point x="719" y="131"/>
      <point x="892" y="201"/>
      <point x="973" y="300" type="curve"/>
      <point x="956" y="359"/>
      <point x="902" y="431"/>
      <point x="853" y="464" type="curve"/>
      <point x="792" y="410"/>
      <point x="698" y="368"/>
      <point x="621" y="368" type="curve" smooth="yes"/>
      <point x="493" y="368"/>
      <point x="404" y="438"/>
      <point x="404" y="631" type="curve" smooth="yes"/>
      <point x="404" y="816"/>
      <point x="455" y="913"/>
      <point x="571" y="913" type="curve" smooth="yes"/>
      <point x="682" y="913"/>
      <point x="718" y="794"/>
      <point x="716" y="673" type="curve"/>
      <point x="748" y="664"/>
      <point x="788" y="660"/>
      <point x="818" y="660" type="curve" smooth="yes"/>
      <point x="921" y="660"/>
      <point x="977" y="709"/>
      <point x="977" y="823" type="curve" smooth="yes"/>
      <point x="977" y="993"/>
      <point x="813" y="1135"/>
      <point x="578" y="1135" type="curve" smooth="yes"/>
      <point x="341" y="1135"/>
      <point x="107" y="991"/>
      <point x="107" y="631" type="curve" smooth="yes"/>
      <point x="107" y="400"/>
      <point x="210" y="131"/>
    </contour>
  </outline>
</glyph>
<glyph name="sterling" format="2">
  <advance width="1080"/>
  <unicode hex="00A3"/>
  <guideline x="130" y="156" angle="90.0"/>
  <outline>
    <contour>
      <point x="166" y="0" type="curve"/>
      <point x="796" y="0" type="line" smooth="yes"/>
      <point x="933" y="0"/>
      <point x="994" y="58"/>
      <point x="994" y="243" type="curve"/>
      <point x="800" y="243" type="line" smooth="yes"/>
      <point x="662" y="243"/>
      <point x="537" y="242"/>
      <point x="432" y="228" type="curve"/>
      <point x="427" y="233" type="line"/>
      <point x="514" y="316"/>
      <point x="570" y="421"/>
      <point x="570" y="525" type="curve" smooth="yes"/>
      <point x="570" y="680"/>
      <point x="507" y="787"/>
      <point x="507" y="895" type="curve" smooth="yes"/>
      <point x="507" y="1016"/>
      <point x="584" y="1054"/>
      <point x="660" y="1054" type="curve" smooth="yes"/>
      <point x="725" y="1054"/>
      <point x="792" y="1016"/>
      <point x="843" y="972" type="curve"/>
      <point x="909" y="1008"/>
      <point x="965" y="1091"/>
      <point x="980" y="1162" type="curve"/>
      <point x="889" y="1243"/>
      <point x="768" y="1298"/>
      <point x="633" y="1298" type="curve" smooth="yes"/>
      <point x="382" y="1298"/>
      <point x="215" y="1132"/>
      <point x="215" y="920" type="curve" smooth="yes"/>
      <point x="215" y="758"/>
      <point x="305" y="664"/>
      <point x="305" y="501" type="curve" smooth="yes"/>
      <point x="305" y="416"/>
      <point x="265" y="358"/>
      <point x="220" y="310" type="curve" smooth="yes"/>
      <point x="196" y="284" type="line" smooth="yes"/>
      <point x="163" y="248"/>
      <point x="130" y="212"/>
      <point x="130" y="158" type="curve" smooth="yes"/>
      <point x="130" y="125"/>
      <point x="135" y="88"/>
    </contour>
    <contour>
      <point x="141" y="511" type="curve"/>
      <point x="419" y="513" type="line"/>
      <point x="833" y="511" type="line"/>
      <point x="840" y="539"/>
      <point x="844" y="582"/>
      <point x="844" y="617" type="curve" smooth="yes"/>
      <point x="844" y="654"/>
      <point x="840" y="695"/>
      <point x="833" y="722" type="curve"/>
      <point x="419" y="720" type="line"/>
      <point x="141" y="722" type="line"/>
      <point x="133" y="694"/>
      <point x="130" y="658"/>
      <point x="130" y="617" type="curve" smooth="yes"/>
      <point x="130" y="578"/>
      <point x="133" y="539"/>
    </contour>
  </outline>
</glyph>
<glyph name="currency" format="2">
  <advance width="1080"/>
  <unicode hex="00A4"/>
  <outline>
    <contour>
      <point x="537" y="230" type="curve" smooth="yes"/>
      <point x="777" y="230"/>
      <point x="943" y="389"/>
      <point x="943" y="632" type="curve" smooth="yes"/>
      <point x="943" y="877"/>
      <point x="777" y="1036"/>
      <point x="537" y="1036" type="curve" smooth="yes"/>
      <point x="300" y="1036"/>
      <point x="134" y="877"/>
      <point x="134" y="632" type="curve" smooth="yes"/>
      <point x="134" y="389"/>
      <point x="300" y="230"/>
    </contour>
    <contour>
      <point x="537" y="433" type="curve" smooth="yes"/>
      <point x="433" y="433"/>
      <point x="392" y="524"/>
      <point x="392" y="632" type="curve" smooth="yes"/>
      <point x="392" y="745"/>
      <point x="433" y="833"/>
      <point x="537" y="833" type="curve" smooth="yes"/>
      <point x="644" y="833"/>
      <point x="684" y="745"/>
      <point x="684" y="632" type="curve" smooth="yes"/>
      <point x="684" y="521"/>
      <point x="644" y="433"/>
    </contour>
    <contour>
      <point x="190" y="128" type="curve"/>
      <point x="440" y="349" type="line"/>
      <point x="262" y="528" type="line"/>
      <point x="39" y="280" type="line"/>
      <point x="75" y="222"/>
      <point x="133" y="161"/>
    </contour>
    <contour>
      <point x="262" y="733" type="line"/>
      <point x="437" y="912" type="line"/>
      <point x="190" y="1133" type="line"/>
      <point x="133" y="1098"/>
      <point x="70" y="1041"/>
      <point x="39" y="981" type="curve"/>
    </contour>
    <contour>
      <point x="820" y="737" type="line"/>
      <point x="1041" y="986" type="line"/>
      <point x="1005" y="1044"/>
      <point x="947" y="1103"/>
      <point x="890" y="1138" type="curve"/>
      <point x="641" y="916" type="line"/>
    </contour>
    <contour>
      <point x="884" y="126" type="line"/>
      <point x="946" y="163"/>
      <point x="1003" y="220"/>
      <point x="1036" y="278" type="curve"/>
      <point x="815" y="524" type="line"/>
      <point x="636" y="349" type="line"/>
    </contour>
  </outline>
</glyph>
<glyph name="yen" format="2">
  <advance width="1080"/>
  <unicode hex="00A5"/>
  <guideline x="608" y="785" angle="133.94926239999995"/>
  <outline>
    <contour>
      <point x="395" y="441" type="line"/>
      <point x="673" y="441" type="line"/>
      <point x="1023" y="1240" type="line"/>
      <point x="1013" y="1263" type="line"/>
      <point x="957" y="1278"/>
      <point x="906" y="1282"/>
      <point x="861" y="1282" type="curve" smooth="yes"/>
      <point x="825" y="1282"/>
      <point x="790" y="1280"/>
      <point x="752" y="1268" type="curve"/>
      <point x="644" y="988" type="line" smooth="yes"/>
      <point x="616" y="916"/>
      <point x="578" y="813"/>
      <point x="549" y="713" type="curve"/>
      <point x="538" y="713" type="line"/>
      <point x="510" y="825"/>
      <point x="479" y="916"/>
      <point x="453" y="988" type="curve" smooth="yes"/>
      <point x="380" y="1184" type="line" smooth="yes"/>
      <point x="353" y="1259"/>
      <point x="315" y="1291"/>
      <point x="247" y="1291" type="curve" smooth="yes"/>
      <point x="184" y="1291"/>
      <point x="109" y="1266"/>
      <point x="57" y="1239" type="curve"/>
    </contour>
    <contour>
      <point x="537" y="-11" type="curve" smooth="yes"/>
      <point x="575" y="-11"/>
      <point x="630" y="-9"/>
      <point x="680" y="0" type="curve"/>
      <point x="680" y="528" type="line"/>
      <point x="388" y="528" type="line"/>
      <point x="388" y="0" type="line"/>
      <point x="437" y="-9"/>
      <point x="503" y="-11"/>
    </contour>
    <contour>
      <point x="118" y="283" type="curve"/>
      <point x="951" y="283" type="line"/>
      <point x="958" y="312"/>
      <point x="963" y="346"/>
      <point x="963" y="381" type="curve" smooth="yes"/>
      <point x="963" y="416"/>
      <point x="958" y="449"/>
      <point x="951" y="477" type="curve"/>
      <point x="118" y="477" type="line"/>
      <point x="112" y="451"/>
      <point x="107" y="417"/>
      <point x="107" y="381" type="curve" smooth="yes"/>
      <point x="107" y="343"/>
      <point x="112" y="311"/>
    </contour>
    <contour>
      <point x="118" y="603" type="curve"/>
      <point x="397" y="603" type="line"/>
      <point x="397" y="800" type="line"/>
      <point x="118" y="800" type="line"/>
      <point x="112" y="772"/>
      <point x="107" y="739"/>
      <point x="107" y="701" type="curve" smooth="yes"/>
      <point x="107" y="664"/>
      <point x="112" y="630"/>
    </contour>
    <contour>
      <point x="672" y="603" type="line"/>
      <point x="951" y="603" type="line"/>
      <point x="958" y="632"/>
      <point x="963" y="666"/>
      <point x="963" y="702" type="curve" smooth="yes"/>
      <point x="963" y="743"/>
      <point x="957" y="777"/>
      <point x="951" y="800" type="curve"/>
      <point x="672" y="800" type="line"/>
    </contour>
  </outline>
</glyph>
<glyph name="brokenbar" format="2">
  <advance width="524"/>
  <unicode hex="00A6"/>
  <outline>
    <contour>
      <point x="125" y="491" type="curve"/>
      <point x="125" y="-283" type="line"/>
      <point x="168" y="-294"/>
      <point x="233" y="-296"/>
      <point x="265" y="-296" type="curve" smooth="yes"/>
      <point x="301" y="-296"/>
      <point x="353" y="-294"/>
      <point x="399" y="-283" type="curve"/>
      <point x="399" y="491" type="line"/>
      <point x="353" y="501"/>
      <point x="301" y="503"/>
      <point x="265" y="503" type="curve" smooth="yes"/>
      <point x="233" y="503"/>
      <point x="168" y="501"/>
    </contour>
    <contour>
      <point x="125" y="1547" type="curve"/>
      <point x="125" y="773" type="line"/>
      <point x="168" y="762"/>
      <point x="233" y="760"/>
      <point x="265" y="760" type="curve" smooth="yes"/>
      <point x="301" y="760"/>
      <point x="353" y="762"/>
      <point x="399" y="773" type="curve"/>
      <point x="399" y="1547" type="line"/>
      <point x="353" y="1557"/>
      <point x="301" y="1559"/>
      <point x="265" y="1559" type="curve" smooth="yes"/>
      <point x="233" y="1559"/>
      <point x="168" y="1557"/>
    </contour>
  </outline>
</glyph>
<glyph name="section" format="2">
  <advance width="996"/>
  <unicode hex="00A7"/>
  <outline>
    <contour>
      <point x="513" y="398" type="curve"/>
      <point x="602" y="258" type="line"/>
      <point x="788" y="322"/>
      <point x="945" y="457"/>
      <point x="945" y="620" type="curve" smooth="yes"/>
      <point x="945" y="803"/>
      <point x="795" y="893"/>
      <point x="617" y="968" type="curve" smooth="yes"/>
      <point x="502" y="1015" type="line" smooth="yes"/>
      <point x="445" y="1038"/>
      <point x="415" y="1062"/>
      <point x="415" y="1102" type="curve" smooth="yes"/>
      <point x="415" y="1149"/>
      <point x="460" y="1178"/>
      <point x="522" y="1178" type="curve" smooth="yes"/>
      <point x="598" y="1178"/>
      <point x="679" y="1152"/>
      <point x="760" y="1119" type="curve"/>
      <point x="808" y="1155"/>
      <point x="848" y="1252"/>
      <point x="843" y="1322" type="curve"/>
      <point x="756" y="1362"/>
      <point x="629" y="1395"/>
      <point x="509" y="1395" type="curve" smooth="yes"/>
      <point x="275" y="1395"/>
      <point x="121" y="1253"/>
      <point x="121" y="1078" type="curve" smooth="yes"/>
      <point x="121" y="927"/>
      <point x="230" y="832"/>
      <point x="377" y="774" type="curve" smooth="yes"/>
      <point x="468" y="738" type="line" smooth="yes"/>
      <point x="579" y="694"/>
      <point x="660" y="644"/>
      <point x="660" y="567" type="curve" smooth="yes"/>
      <point x="660" y="491"/>
      <point x="592" y="426"/>
    </contour>
    <contour>
      <point x="487" y="768" type="curve"/>
      <point x="397" y="908" type="line"/>
      <point x="211" y="844"/>
      <point x="55" y="708"/>
      <point x="55" y="546" type="curve" smooth="yes"/>
      <point x="55" y="363"/>
      <point x="204" y="272"/>
      <point x="383" y="198" type="curve" smooth="yes"/>
      <point x="498" y="151" type="line" smooth="yes"/>
      <point x="555" y="128"/>
      <point x="584" y="100"/>
      <point x="584" y="60" type="curve" smooth="yes"/>
      <point x="584" y="14"/>
      <point x="540" y="-16"/>
      <point x="475" y="-16" type="curve" smooth="yes"/>
      <point x="381" y="-16"/>
      <point x="279" y="21"/>
      <point x="207" y="53" type="curve"/>
      <point x="159" y="18"/>
      <point x="119" y="-79"/>
      <point x="125" y="-149" type="curve"/>
      <point x="217" y="-202"/>
      <point x="354" y="-233"/>
      <point x="478" y="-233" type="curve" smooth="yes"/>
      <point x="724" y="-233"/>
      <point x="878" y="-90"/>
      <point x="878" y="85" type="curve" smooth="yes"/>
      <point x="878" y="236"/>
      <point x="769" y="333"/>
      <point x="622" y="392" type="curve" smooth="yes"/>
      <point x="532" y="428" type="line" smooth="yes"/>
      <point x="412" y="475"/>
      <point x="339" y="522"/>
      <point x="339" y="599" type="curve" smooth="yes"/>
      <point x="339" y="675"/>
      <point x="408" y="739"/>
    </contour>
  </outline>
</glyph>
<glyph name="copyright" format="2">
  <advance width="1582"/>
  <unicode hex="00A9"/>
  <outline>
    <contour>
      <point x="65" y="682" type="curve" smooth="yes"/>
      <point x="65" y="273"/>
      <point x="380" y="-43"/>
      <point x="790" y="-43" type="curve" smooth="yes"/>
      <point x="1199" y="-43"/>
      <point x="1517" y="273"/>
      <point x="1517" y="682" type="curve" smooth="yes"/>
      <point x="1517" y="1091"/>
      <point x="1199" y="1409"/>
      <point x="790" y="1409" type="curve" smooth="yes"/>
      <point x="380" y="1409"/>
      <point x="65" y="1091"/>
    </contour>
    <contour>
      <point x="290" y="682" type="curve" smooth="yes"/>
      <point x="290" y="976"/>
      <point x="496" y="1211"/>
      <point x="790" y="1211" type="curve" smooth="yes"/>
      <point x="1084" y="1211"/>
      <point x="1291" y="976"/>
      <point x="1291" y="682" type="curve" smooth="yes"/>
      <point x="1291" y="388"/>
      <point x="1084" y="155"/>
      <point x="790" y="155" type="curve" smooth="yes"/>
      <point x="496" y="155"/>
      <point x="290" y="388"/>
    </contour>
    <contour>
      <point x="885" y="733" type="curve"/>
      <point x="905" y="725"/>
      <point x="941" y="721"/>
      <point x="968" y="721" type="curve" smooth="yes"/>
      <point x="1052" y="721"/>
      <point x="1092" y="761"/>
      <point x="1092" y="839" type="curve" smooth="yes"/>
      <point x="1092" y="968"/>
      <point x="969" y="1073"/>
      <point x="796" y="1073" type="curve" smooth="yes"/>
      <point x="630" y="1073"/>
      <point x="447" y="968"/>
      <point x="447" y="684" type="curve" smooth="yes"/>
      <point x="447" y="490"/>
      <point x="529" y="295"/>
      <point x="794" y="295" type="curve" smooth="yes"/>
      <point x="893" y="295"/>
      <point x="1019" y="344"/>
      <point x="1081" y="408" type="curve"/>
      <point x="1074" y="454"/>
      <point x="1038" y="514"/>
      <point x="1000" y="539" type="curve"/>
      <point x="945" y="506"/>
      <point x="883" y="474"/>
      <point x="832" y="474" type="curve" smooth="yes"/>
      <point x="733" y="474"/>
      <point x="678" y="545"/>
      <point x="678" y="684" type="curve" smooth="yes"/>
      <point x="678" y="830"/>
      <point x="711" y="906"/>
      <point x="787" y="906" type="curve" smooth="yes"/>
      <point x="869" y="906"/>
      <point x="886" y="818"/>
    </contour>
  </outline>
</glyph>
<glyph name="ordfeminine" format="2">
  <advance width="905"/>
  <unicode hex="00AA"/>
  <outline>
    <contour>
      <point x="78" y="694" type="curve" smooth="yes"/>
      <point x="78" y="565"/>
      <point x="171" y="448"/>
      <point x="330" y="448" type="curve" smooth="yes"/>
      <point x="473" y="448"/>
      <point x="567" y="540"/>
      <point x="633" y="613" type="curve"/>
      <point x="594" y="765" type="line"/>
      <point x="545" y="686"/>
      <point x="463" y="629"/>
      <point x="402" y="629" type="curve" smooth="yes"/>
      <point x="351" y="629"/>
      <point x="318" y="666"/>
      <point x="318" y="709" type="curve" smooth="yes"/>
      <point x="318" y="771"/>
      <point x="353" y="810"/>
      <point x="421" y="810" type="curve" smooth="yes"/>
      <point x="471" y="810"/>
      <point x="545" y="805"/>
      <point x="596" y="800" type="curve"/>
      <point x="596" y="957" type="line"/>
      <point x="531" y="962"/>
      <point x="449" y="968"/>
      <point x="399" y="968" type="curve" smooth="yes"/>
      <point x="223" y="968"/>
      <point x="78" y="884"/>
    </contour>
    <contour>
      <point x="829" y="588" type="curve"/>
      <point x="787" y="610"/>
      <point x="775" y="649"/>
      <point x="775" y="703" type="curve" smooth="yes"/>
      <point x="775" y="1019" type="line" smooth="yes"/>
      <point x="775" y="1220"/>
      <point x="626" y="1295"/>
      <point x="483" y="1295" type="curve" smooth="yes"/>
      <point x="373" y="1295"/>
      <point x="224" y="1265"/>
      <point x="118" y="1221" type="curve"/>
      <point x="121" y="1161"/>
      <point x="142" y="1099"/>
      <point x="179" y="1059" type="curve"/>
      <point x="268" y="1087"/>
      <point x="337" y="1108"/>
      <point x="415" y="1108" type="curve" smooth="yes"/>
      <point x="464" y="1108"/>
      <point x="515" y="1080"/>
      <point x="515" y="1011" type="curve" smooth="yes"/>
      <point x="515" y="717" type="line" smooth="yes"/>
      <point x="515" y="559"/>
      <point x="602" y="462"/>
      <point x="737" y="457" type="curve"/>
      <point x="782" y="481"/>
      <point x="823" y="540"/>
    </contour>
  </outline>
</glyph>
<glyph name="logicalnot" format="2">
  <advance width="1080"/>
  <unicode hex="00AC"/>
  <outline>
    <contour>
      <point x="106" y="767" type="curve"/>
      <point x="953" y="767" type="line"/>
      <point x="967" y="753" type="line"/>
      <point x="967" y="527" type="line"/>
      <point x="720" y="529" type="line" smooth="yes"/>
      <point x="672" y="529"/>
      <point x="632" y="527"/>
      <point x="581" y="527" type="curve" smooth="yes"/>
      <point x="106" y="527" type="line"/>
      <point x="95" y="567"/>
      <point x="93" y="621"/>
      <point x="93" y="647" type="curve" smooth="yes"/>
      <point x="93" y="673"/>
      <point x="95" y="727"/>
    </contour>
    <contour>
      <point x="712" y="556" type="curve" smooth="yes"/>
      <point x="710" y="663" type="line"/>
      <point x="967" y="663" type="line"/>
      <point x="967" y="287" type="line"/>
      <point x="927" y="278"/>
      <point x="885" y="276"/>
      <point x="843" y="276" type="curve" smooth="yes"/>
      <point x="799" y="276"/>
      <point x="761" y="278"/>
      <point x="710" y="287" type="curve"/>
      <point x="710" y="408" type="line" smooth="yes"/>
      <point x="710" y="459"/>
      <point x="713" y="507"/>
    </contour>
  </outline>
</glyph>
<glyph name="registered" format="2">
  <advance width="1201"/>
  <unicode hex="00AE"/>
  <outline>
    <contour>
      <point x="56" y="942" type="curve" smooth="yes"/>
      <point x="56" y="636"/>
      <point x="294" y="399"/>
      <point x="599" y="399" type="curve" smooth="yes"/>
      <point x="905" y="399"/>
      <point x="1145" y="636"/>
      <point x="1145" y="942" type="curve" smooth="yes"/>
      <point x="1145" y="1248"/>
      <point x="905" y="1488"/>
      <point x="599" y="1488" type="curve" smooth="yes"/>
      <point x="294" y="1488"/>
      <point x="56" y="1248"/>
    </contour>
    <contour>
      <point x="230" y="942" type="curve" smooth="yes"/>
      <point x="230" y="1155"/>
      <point x="387" y="1329"/>
      <point x="599" y="1329" type="curve" smooth="yes"/>
      <point x="812" y="1329"/>
      <point x="971" y="1155"/>
      <point x="971" y="942" type="curve" smooth="yes"/>
      <point x="971" y="730"/>
      <point x="812" y="558"/>
      <point x="599" y="558" type="curve" smooth="yes"/>
      <point x="387" y="558"/>
      <point x="230" y="730"/>
    </contour>
    <contour>
      <point x="816" y="1060" type="curve" smooth="yes"/>
      <point x="816" y="1138"/>
      <point x="762" y="1207"/>
      <point x="613" y="1207" type="curve" smooth="yes"/>
      <point x="549" y="1207"/>
      <point x="473" y="1203"/>
      <point x="399" y="1201" type="curve"/>
      <point x="393" y="1197" type="line"/>
      <point x="393" y="703" type="line"/>
      <point x="412" y="697"/>
      <point x="441" y="694"/>
      <point x="470" y="694" type="curve" smooth="yes"/>
      <point x="498" y="694"/>
      <point x="526" y="697"/>
      <point x="544" y="703" type="curve"/>
      <point x="544" y="1093" type="line"/>
      <point x="566" y="1093"/>
      <point x="575" y="1093"/>
      <point x="598" y="1093" type="curve" smooth="yes"/>
      <point x="639" y="1093"/>
      <point x="656" y="1071"/>
      <point x="656" y="1044" type="curve" smooth="yes"/>
      <point x="656" y="1016"/>
      <point x="640" y="992"/>
      <point x="591" y="992" type="curve" smooth="yes"/>
      <point x="573" y="992"/>
      <point x="507" y="990"/>
      <point x="475" y="990" type="curve"/>
      <point x="475" y="876" type="line"/>
      <point x="561" y="876" type="line" smooth="yes"/>
      <point x="593" y="876"/>
      <point x="603" y="865"/>
      <point x="615" y="841" type="curve" smooth="yes"/>
      <point x="659" y="755" type="line" smooth="yes"/>
      <point x="680" y="712"/>
      <point x="703" y="693"/>
      <point x="744" y="693" type="curve" smooth="yes"/>
      <point x="784" y="693"/>
      <point x="828" y="716"/>
      <point x="850" y="748" type="curve"/>
      <point x="829" y="760"/>
      <point x="815" y="783"/>
      <point x="803" y="807" type="curve" smooth="yes"/>
      <point x="781" y="851" type="line" smooth="yes"/>
      <point x="766" y="883"/>
      <point x="748" y="911"/>
      <point x="715" y="925" type="curve"/>
      <point x="765" y="938"/>
      <point x="816" y="980"/>
    </contour>
  </outline>
</glyph>
<glyph name="degree" format="2">
  <advance width="792"/>
  <unicode hex="00B0"/>
  <outline>
    <contour>
      <point x="58" y="957" type="curve" smooth="yes"/>
      <point x="58" y="759"/>
      <point x="200" y="619"/>
      <point x="396" y="619" type="curve" smooth="yes"/>
      <point x="592" y="619"/>
      <point x="733" y="759"/>
      <point x="733" y="957" type="curve" smooth="yes"/>
      <point x="733" y="1155"/>
      <point x="592" y="1295"/>
      <point x="396" y="1295" type="curve" smooth="yes"/>
      <point x="200" y="1295"/>
      <point x="58" y="1155"/>
    </contour>
    <contour>
      <point x="266" y="957" type="curve" smooth="yes"/>
      <point x="266" y="1049"/>
      <point x="317" y="1110"/>
      <point x="396" y="1110" type="curve" smooth="yes"/>
      <point x="473" y="1110"/>
      <point x="524" y="1049"/>
      <point x="524" y="957" type="curve" smooth="yes"/>
      <point x="524" y="864"/>
      <point x="473" y="804"/>
      <point x="396" y="804" type="curve" smooth="yes"/>
      <point x="317" y="804"/>
      <point x="266" y="864"/>
    </contour>
  </outline>
</glyph>
<glyph name="plusminus" format="2">
  <advance width="1080"/>
  <unicode hex="00B1"/>
  <outline>
    <contour>
      <point x="138" y="833" type="curve"/>
      <point x="290" y="833" type="line" smooth="yes"/>
      <point x="339" y="833"/>
      <point x="379" y="831"/>
      <point x="426" y="831" type="curve" smooth="yes"/>
      <point x="654" y="831" type="line" smooth="yes"/>
      <point x="701" y="831"/>
      <point x="741" y="833"/>
      <point x="790" y="833" type="curve" smooth="yes"/>
      <point x="942" y="833" type="line"/>
      <point x="951" y="791"/>
      <point x="953" y="768"/>
      <point x="953" y="726" type="curve" smooth="yes"/>
      <point x="953" y="684"/>
      <point x="951" y="660"/>
      <point x="942" y="617" type="curve"/>
      <point x="790" y="617" type="line" smooth="yes"/>
      <point x="741" y="617"/>
      <point x="701" y="619"/>
      <point x="654" y="619" type="curve" smooth="yes"/>
      <point x="426" y="619" type="line" smooth="yes"/>
      <point x="379" y="619"/>
      <point x="339" y="617"/>
      <point x="290" y="617" type="curve" smooth="yes"/>
      <point x="138" y="617" type="line"/>
      <point x="129" y="660"/>
      <point x="127" y="684"/>
      <point x="127" y="726" type="curve" smooth="yes"/>
      <point x="127" y="768"/>
      <point x="129" y="791"/>
    </contour>
    <contour>
      <point x="416" y="969" type="curve" smooth="yes"/>
      <point x="416" y="1117" type="line"/>
      <point x="458" y="1126"/>
      <point x="500" y="1128"/>
      <point x="542" y="1128" type="curve" smooth="yes"/>
      <point x="583" y="1128"/>
      <point x="624" y="1126"/>
      <point x="666" y="1117" type="curve"/>
      <point x="666" y="969" type="line" smooth="yes"/>
      <point x="666" y="918"/>
      <point x="664" y="872"/>
      <point x="664" y="825" type="curve" smooth="yes"/>
      <point x="664" y="627" type="line" smooth="yes"/>
      <point x="664" y="580"/>
      <point x="666" y="533"/>
      <point x="666" y="484" type="curve" smooth="yes"/>
      <point x="666" y="351" type="line"/>
      <point x="624" y="342"/>
      <point x="583" y="340"/>
      <point x="542" y="340" type="curve" smooth="yes"/>
      <point x="500" y="340"/>
      <point x="458" y="342"/>
      <point x="416" y="351" type="curve"/>
      <point x="416" y="484" type="line" smooth="yes"/>
      <point x="416" y="533"/>
      <point x="418" y="580"/>
      <point x="418" y="627" type="curve" smooth="yes"/>
      <point x="418" y="825" type="line" smooth="yes"/>
      <point x="418" y="872"/>
      <point x="416" y="918"/>
    </contour>
    <contour>
      <point x="138" y="0" type="curve"/>
      <point x="942" y="0" type="line"/>
      <point x="951" y="42"/>
      <point x="953" y="72"/>
      <point x="953" y="113" type="curve" smooth="yes"/>
      <point x="953" y="156"/>
      <point x="951" y="182"/>
      <point x="942" y="225" type="curve"/>
      <point x="138" y="225" type="line"/>
      <point x="129" y="182"/>
      <point x="127" y="156"/>
      <point x="127" y="113" type="curve" smooth="yes"/>
      <point x="127" y="72"/>
      <point x="129" y="42"/>
    </contour>
  </outline>
</glyph>
<glyph name="twosuperior" format="2">
  <advance width="826"/>
  <unicode hex="00B2"/>
  <outline>
    <contour>
      <point x="88" y="1287" type="curve"/>
      <point x="116" y="1245"/>
      <point x="217" y="1208"/>
      <point x="275" y="1208" type="curve"/>
      <point x="287" y="1261"/>
      <point x="323" y="1307"/>
      <point x="373" y="1309" type="curve" smooth="yes"/>
      <point x="419" y="1311"/>
      <point x="449" y="1279"/>
      <point x="449" y="1233" type="curve" smooth="yes"/>
      <point x="449" y="1170"/>
      <point x="401" y="1131"/>
      <point x="353" y="1095" type="curve" smooth="yes"/>
      <point x="225" y="997" type="line" smooth="yes"/>
      <point x="149" y="939"/>
      <point x="79" y="860"/>
      <point x="79" y="776" type="curve" smooth="yes"/>
      <point x="79" y="735"/>
      <point x="96" y="701"/>
      <point x="157" y="628" type="curve"/>
      <point x="316" y="628" type="line"/>
      <point x="316" y="775" type="line" smooth="yes"/>
      <point x="316" y="810"/>
      <point x="375" y="852"/>
      <point x="446" y="902" type="curve" smooth="yes"/>
      <point x="525" y="957" type="line" smooth="yes"/>
      <point x="583" y="998"/>
      <point x="698" y="1085"/>
      <point x="698" y="1241" type="curve" smooth="yes"/>
      <point x="698" y="1402"/>
      <point x="577" y="1519"/>
      <point x="397" y="1519" type="curve" smooth="yes"/>
      <point x="231" y="1519"/>
      <point x="117" y="1420"/>
    </contour>
    <contour>
      <point x="723" y="843" type="curve"/>
      <point x="596" y="843" type="line" smooth="yes"/>
      <point x="408" y="843"/>
      <point x="278" y="819"/>
      <point x="169" y="770" type="curve"/>
      <point x="196" y="628" type="line"/>
      <point x="574" y="628" type="line" smooth="yes"/>
      <point x="663" y="628"/>
      <point x="723" y="652"/>
    </contour>
  </outline>
</glyph>
<glyph name="threesuperior" format="2">
  <advance width="827"/>
  <unicode hex="00B3"/>
  <outline>
    <contour>
      <point x="473" y="912" type="curve" smooth="yes"/>
      <point x="473" y="852"/>
      <point x="426" y="811"/>
      <point x="354" y="811" type="curve" smooth="yes"/>
      <point x="287" y="811"/>
      <point x="231" y="838"/>
      <point x="184" y="872" type="curve"/>
      <point x="137" y="833"/>
      <point x="97" y="768"/>
      <point x="86" y="712" type="curve"/>
      <point x="151" y="656"/>
      <point x="254" y="617"/>
      <point x="373" y="617" type="curve" smooth="yes"/>
      <point x="556" y="617"/>
      <point x="722" y="719"/>
      <point x="722" y="910" type="curve" smooth="yes"/>
      <point x="722" y="1067"/>
      <point x="593" y="1164"/>
      <point x="458" y="1164" type="curve" smooth="yes"/>
      <point x="382" y="1164"/>
      <point x="299" y="1152"/>
      <point x="204" y="1129" type="curve"/>
      <point x="216" y="1079"/>
      <point x="259" y="1020"/>
      <point x="303" y="1000" type="curve"/>
      <point x="322" y="1006"/>
      <point x="342" y="1011"/>
      <point x="365" y="1011" type="curve" smooth="yes"/>
      <point x="425" y="1011"/>
      <point x="473" y="973"/>
    </contour>
    <contour>
      <point x="562" y="1193" type="curve" smooth="yes"/>
      <point x="624" y="1248" type="line"/>
      <point x="663" y="1280"/>
      <point x="687" y="1307"/>
      <point x="687" y="1358" type="curve" smooth="yes"/>
      <point x="687" y="1408"/>
      <point x="659" y="1464"/>
      <point x="636" y="1505" type="curve"/>
      <point x="139" y="1505" type="line"/>
      <point x="122" y="1463"/>
      <point x="118" y="1421"/>
      <point x="118" y="1390" type="curve" smooth="yes"/>
      <point x="118" y="1365"/>
      <point x="121" y="1337"/>
      <point x="129" y="1304" type="curve"/>
      <point x="262" y="1304" type="line" smooth="yes"/>
      <point x="295" y="1304"/>
      <point x="377" y="1308"/>
      <point x="413" y="1315" type="curve"/>
      <point x="418" y="1308" type="line"/>
      <point x="393" y="1290"/>
      <point x="360" y="1266"/>
      <point x="334" y="1243" type="curve" smooth="yes"/>
      <point x="204" y="1129" type="line"/>
      <point x="334" y="1081" type="line"/>
      <point x="428" y="1105"/>
      <point x="521" y="1160"/>
    </contour>
  </outline>
</glyph>
<glyph name="micro" format="2">
  <advance width="1105"/>
  <unicode hex="00B5"/>
  <outline>
    <contour>
      <point x="228" y="477" type="line"/>
      <point x="417" y="477" type="line"/>
      <point x="417" y="386" type="line" smooth="yes"/>
      <point x="417" y="294"/>
      <point x="456" y="232"/>
      <point x="541" y="232" type="curve" smooth="yes"/>
      <point x="628" y="232"/>
      <point x="688" y="301"/>
      <point x="735" y="412" type="curve"/>
      <point x="759" y="176" type="line"/>
      <point x="720" y="65"/>
      <point x="632" y="-18"/>
      <point x="506" y="-18" type="curve" smooth="yes"/>
      <point x="341" y="-18"/>
      <point x="228" y="162"/>
      <point x="228" y="347" type="curve" smooth="yes"/>
    </contour>
    <contour>
      <point x="974" y="997" type="curve"/>
      <point x="974" y="286" type="line" smooth="yes"/>
      <point x="974" y="220"/>
      <point x="995" y="160"/>
      <point x="1030" y="134" type="curve"/>
      <point x="1018" y="81"/>
      <point x="975" y="13"/>
      <point x="937" y="-16" type="curve"/>
      <point x="765" y="-9"/>
      <point x="675" y="124"/>
      <point x="675" y="285" type="curve" smooth="yes"/>
      <point x="675" y="997" type="line"/>
      <point x="717" y="1004"/>
      <point x="773" y="1008"/>
      <point x="824" y="1008" type="curve" smooth="yes"/>
      <point x="874" y="1008"/>
      <point x="930" y="1004"/>
    </contour>
    <contour>
      <point x="417" y="997" type="curve"/>
      <point x="417" y="164" type="line"/>
      <point x="398" y="164" type="line"/>
      <point x="398" y="-236" type="line" smooth="yes"/>
      <point x="398" y="-354"/>
      <point x="379" y="-438"/>
      <point x="256" y="-438" type="curve" smooth="yes"/>
      <point x="183" y="-438"/>
      <point x="126" y="-416"/>
      <point x="75" y="-378" type="curve"/>
      <point x="115" y="-320"/>
      <point x="123" y="-226"/>
      <point x="123" y="-178" type="curve" smooth="yes"/>
      <point x="123" y="997" type="line"/>
      <point x="164" y="1004"/>
      <point x="220" y="1008"/>
      <point x="271" y="1008" type="curve" smooth="yes"/>
      <point x="321" y="1008"/>
      <point x="374" y="1004"/>
    </contour>
  </outline>
</glyph>
<glyph name="paragraph" format="2">
  <advance width="1479"/>
  <unicode hex="00B6"/>
  <outline>
    <contour>
      <point x="554" y="126" type="curve" smooth="yes"/>
      <point x="554" y="476" type="line"/>
      <point x="529" y="476" type="line" smooth="yes"/>
      <point x="265" y="476"/>
      <point x="57" y="623"/>
      <point x="57" y="930" type="curve" smooth="yes"/>
      <point x="57" y="1251"/>
      <point x="264" y="1377"/>
      <point x="545" y="1377" type="curve" smooth="yes"/>
      <point x="644" y="1377"/>
      <point x="729" y="1372"/>
      <point x="840" y="1368" type="curve"/>
      <point x="853" y="1354" type="line"/>
      <point x="853" y="186" type="line" smooth="yes"/>
      <point x="853" y="-148"/>
      <point x="737" y="-318"/>
      <point x="402" y="-318" type="curve" smooth="yes"/>
      <point x="287" y="-318"/>
      <point x="177" y="-292"/>
      <point x="113" y="-268" type="curve"/>
      <point x="111" y="-214"/>
      <point x="133" y="-111"/>
      <point x="175" y="-53" type="curve"/>
      <point x="235" y="-73"/>
      <point x="308" y="-94"/>
      <point x="373" y="-94" type="curve" smooth="yes"/>
      <point x="513" y="-94"/>
      <point x="554" y="-19"/>
    </contour>
    <contour>
      <point x="976" y="1352" type="line"/>
      <point x="976" y="-261" type="line"/>
      <point x="1024" y="-272"/>
      <point x="1092" y="-274"/>
      <point x="1130" y="-274" type="curve" smooth="yes"/>
      <point x="1172" y="-274"/>
      <point x="1228" y="-272"/>
      <point x="1278" y="-261" type="curve"/>
      <point x="1278" y="1366" type="line"/>
      <point x="990" y="1366" type="line"/>
    </contour>
    <contour>
      <point x="1129" y="1366" type="line"/>
      <point x="1129" y="1115" type="line"/>
      <point x="1225" y="1115" type="line" smooth="yes"/>
      <point x="1277" y="1115"/>
      <point x="1329" y="1110"/>
      <point x="1383" y="1110" type="curve" smooth="yes"/>
      <point x="1440" y="1110" type="line"/>
      <point x="1459" y="1167"/>
      <point x="1459" y="1309"/>
      <point x="1440" y="1366" type="curve"/>
    </contour>
  </outline>
</glyph>
<glyph name="onesuperior" format="2">
  <advance width="826"/>
  <unicode hex="00B9"/>
  <outline>
    <contour>
      <point x="576" y="740" type="line"/>
      <point x="576" y="1500" type="line"/>
      <point x="530" y="1507"/>
      <point x="499" y="1511"/>
      <point x="462" y="1511" type="curve" smooth="yes"/>
      <point x="425" y="1511"/>
      <point x="386" y="1507"/>
      <point x="345" y="1500" type="curve"/>
      <point x="347" y="1265" type="line" smooth="yes"/>
      <point x="348" y="1189"/>
      <point x="338" y="1065"/>
      <point x="338" y="1022" type="curve" smooth="yes"/>
      <point x="338" y="740" type="line"/>
    </contour>
    <contour>
      <point x="239" y="828" type="curve" smooth="yes"/>
      <point x="140" y="828" type="line"/>
      <point x="133" y="797"/>
      <point x="129" y="757"/>
      <point x="129" y="727" type="curve" smooth="yes"/>
      <point x="129" y="693"/>
      <point x="133" y="661"/>
      <point x="140" y="628" type="curve"/>
      <point x="735" y="628" type="line"/>
      <point x="745" y="659"/>
      <point x="748" y="697"/>
      <point x="748" y="727" type="curve" smooth="yes"/>
      <point x="748" y="761"/>
      <point x="744" y="797"/>
      <point x="735" y="828" type="curve"/>
      <point x="683" y="828" type="line" smooth="yes"/>
      <point x="660" y="828"/>
      <point x="600" y="828"/>
      <point x="576" y="828" type="curve" smooth="yes"/>
      <point x="338" y="828" type="line" smooth="yes"/>
      <point x="316" y="828"/>
      <point x="265" y="828"/>
    </contour>
    <contour>
      <point x="72" y="1212" type="curve"/>
      <point x="83" y="1158"/>
      <point x="127" y="1089"/>
      <point x="182" y="1062" type="curve"/>
      <point x="324" y="1129"/>
      <point x="386" y="1203"/>
      <point x="425" y="1356" type="curve"/>
      <point x="345" y="1500" type="line"/>
      <point x="287" y="1378"/>
      <point x="221" y="1303"/>
    </contour>
  </outline>
</glyph>
<glyph name="ordmasculine" format="2">
  <advance width="900"/>
  <unicode hex="00BA"/>
  <outline>
    <contour>
      <point x="819" y="872" type="curve" smooth="yes"/>
      <point x="819" y="1000"/>
      <point x="787" y="1117"/>
      <point x="699" y="1205" type="curve" smooth="yes"/>
      <point x="639" y="1266"/>
      <point x="548" y="1295"/>
      <point x="450" y="1295" type="curve" smooth="yes"/>
      <point x="349" y="1295"/>
      <point x="261" y="1265"/>
      <point x="201" y="1205" type="curve" smooth="yes"/>
      <point x="112" y="1117"/>
      <point x="81" y="1000"/>
      <point x="81" y="872" type="curve" smooth="yes"/>
      <point x="81" y="743"/>
      <point x="113" y="624"/>
      <point x="201" y="536" type="curve" smooth="yes"/>
      <point x="261" y="475"/>
      <point x="349" y="446"/>
      <point x="450" y="446" type="curve" smooth="yes"/>
      <point x="548" y="446"/>
      <point x="638" y="476"/>
      <point x="699" y="536" type="curve" smooth="yes"/>
      <point x="788" y="624"/>
      <point x="819" y="743"/>
    </contour>
    <contour>
      <point x="327" y="872" type="curve" smooth="yes"/>
      <point x="327" y="1011"/>
      <point x="358" y="1107"/>
      <point x="450" y="1107" type="curve" smooth="yes"/>
      <point x="541" y="1107"/>
      <point x="573" y="1011"/>
      <point x="573" y="872" type="curve" smooth="yes"/>
      <point x="573" y="732"/>
      <point x="541" y="635"/>
      <point x="450" y="635" type="curve" smooth="yes"/>
      <point x="358" y="635"/>
      <point x="327" y="732"/>
    </contour>
  </outline>
</glyph>
